<?xml version="1.0" standalone="no"?>
<!DOCTYPE svg PUBLIC "-//W3C//DTD SVG 1.1//EN" "../../www.w3.org/Graphics/SVG/1.1/DTD/svg11.dtd" >
<svg>
<metadata>
Created by FontForge 20090914 at Sun Sep 28 23:52:47 2014
 By www-data
Copyright (c) 2005 Active Images. All rights reserved.
</metadata>
<defs>
<font id="AngryBirds-Regular" horiz-adv-x="0" >
  <font-face 
    font-family="AngryBirds"
    font-weight="400"
    font-stretch="normal"
    units-per-em="2048"
    panose-1="0 0 0 0 0 0 0 0 0 0"
    ascent="1638"
    descent="-410"
    x-height="1300"
    cap-height="1690"
    bbox="-68 -351.693 2163.1 2068"
    underline-thickness="40"
    underline-position="-231"
    unicode-range="U+000D-U+FB02"
  />
<missing-glyph horiz-adv-x="748" 
d="M68 0v1365h544v-1365h-544zM136 68h408v1229h-408v-1229z" />
    <glyph glyph-name=".notdef" horiz-adv-x="748" 
d="M68 0v1365h544v-1365h-544zM136 68h408v1229h-408v-1229z" />
    <glyph glyph-name="glyph1" horiz-adv-x="2048" 
 />
    <glyph glyph-name="glyph1" horiz-adv-x="2048" 
 />
    <glyph glyph-name="uni000D" unicode="&#xd;" 
 />
    <glyph glyph-name="space" unicode=" " horiz-adv-x="409" 
 />
    <glyph glyph-name="exclam" unicode="!" horiz-adv-x="688" 
d="M33.5 148.5c5.66699 27 15.5 47.1699 29.5 60.5029c24 20.667 59.833 32 107.5 34s91.167 -4.16699 130.5 -18.5s60.666 -31.833 63.999 -52.5c4.66699 -28.667 3.5 -56.834 -3.5 -84.501s-18.833 -49.167 -35.5 -64.5c-18.667 -17.333 -49.667 -26.333 -93 -27
s-84.666 6.16602 -123.999 20.499s-63.333 32.166 -72 53.499c-8 25.333 -9.16699 51.5 -3.5 78.5zM190 539.003l70 1052l35 15l49 -179l154 213l53 -137l123 66l-324 -1057l-39 -20l-30 98z" />
    <glyph glyph-name="quotedbl" unicode="&#x22;" horiz-adv-x="813" 
d="M86 1565l35 -2l31 43l73 -41l64 61l45 -4l-49 -500l-47 -8l-19 51l-72 -30zM436 1042l66 541l84 29l78 -94l79 59l-184 -516l-45 26z" />
    <glyph glyph-name="numbersign" unicode="#" horiz-adv-x="985" 
d="M45 301v2l96 82l-67 76l37 84l-25 20l152 10l22 326l-158 -10l21 45l-41 61l82 93l-21 67l144 8l26 285l25 14l53 -53l72 35l-21 -272l211 6l25 256l31 -11l67 78l62 -26l-17 -289l135 6l-12 -47l41 -35l-49 -68l14 -59l-149 -29l-25 -360l164 12l10 -28l-94 -74l55 -86
l-12 -29l-14 -2l-131 -20l-31 -285l-12 -8l-66 24l-63 -65l-9 6l21 307l-209 -20l-37 -265l-12 27l-68 -55l-63 55l-4 -8l14 229zM410 582l204 10l15 344l-205 -21z" />
    <glyph glyph-name="dollar" unicode="$" horiz-adv-x="890" 
d="M60.5 981c-4.33301 54.667 2.83301 103.667 21.5 147c48 109.333 153.667 177 317 203c10 62.667 15 135 15 217l92 -53l76 80c-7.33301 -59.333 -20.333 -140 -39 -242c96.667 -5.33301 169 -12 217 -20l6 -53l-49 -27l4 -16c2.66699 -14.667 6 -26.334 10 -35.001
c-45.333 5.33301 -94.166 7.66602 -146.499 6.99902s-99.833 -9.33398 -142.5 -26.001c-24 -9.33301 -44.333 -31.5 -61 -66.5s-24.167 -72 -22.5 -111s15.167 -67.833 40.5 -86.5c19.333 -14.667 42.5 -27.667 69.5 -39s49.667 -19.666 68 -24.999s44.166 -12 77.499 -20
c54 -14 89 -24.333 105 -31c42.667 -18 71.334 -32.333 86.001 -43c20.667 -17.333 37.667 -41.666 51 -72.999s18.166 -69.666 14.499 -114.999s-20.167 -88.333 -49.5 -129c-47.333 -65.333 -139.333 -109 -276 -131c0 -48.667 -8.33301 -132.667 -25 -252l-49 39l-98 -39
l-17 244c-97.333 2 -188 17 -272 45l63 80l-34 47c201.333 -42 333.666 -31.333 396.999 32c16 16 25 36.667 27 62s-5.5 50.833 -22.5 76.5s-42.5 44.5 -76.5 56.5c-11.333 4 -34.5 11.5 -69.5 22.5s-61.333 19.833 -79 26.5s-40 16 -67 28s-50.167 25.5 -69.5 40.5
s-36.333 31.833 -51 50.5c-23.333 31.333 -37.166 74.333 -41.499 129z" />
    <glyph glyph-name="percent" unicode="%" horiz-adv-x="1644" 
d="M74 1004c-21.333 237.333 21 411.332 127 521.999c30.667 32.667 75 52.834 133 60.501s114.167 2 168.5 -17s90.833 -47.833 109.5 -86.5c8.66699 -18 17.167 -38.5 25.5 -61.5s16.333 -56 24 -99s11 -86.167 10 -129.5s-9.33301 -93.333 -25 -150
s-39.5 -111.334 -71.5 -164.001c-25.333 -42.667 -58.5 -75.5 -99.5 -98.5s-83.333 -34.167 -127 -33.5s-85.5 9.83398 -125.5 27.501s-73.667 46.667 -101 87s-43.333 87.833 -48 142.5zM252 1141c-2.66699 -68.667 2.66699 -121.998 16 -159.998
c12.667 -42.667 31.167 -68.167 55.5 -76.5s50.833 3.5 79.5 35.5c22 24.667 38.167 64 48.5 118s14.833 107 13.5 159s-6.66602 93.333 -15.999 124c-7.33301 26 -21.5 44.833 -42.5 56.5s-44.5 11.5 -70.5 -0.5c-26.667 -12.667 -47.334 -44.334 -62.001 -95.001
s-22 -104.334 -22 -161.001zM461.001 -56.999l395 1661l64 16l30 -139l117 211l74 -33l-445 -1702l-78 57l-100 -88zM928.001 221.001c-21.333 252 25.002 435.001 139.002 549.001c34 34 82.833 55.333 146.5 64s125.167 3 184.5 -17s100 -50.667 122 -92
c10 -21.333 19.167 -43 27.5 -65s17 -56.167 26 -102.5s12.833 -92 11.5 -137s-10.5 -97.5 -27.5 -157.5s-43.167 -118.333 -78.5 -175c-35.333 -55.333 -83.333 -94.333 -144 -117s-119.834 -28.334 -177.501 -17.001s-108.834 40.5 -153.501 87.5s-70 106.833 -76 179.5z
M1122 365.002c0 -73.333 6.33301 -129.329 19 -167.996c14 -44.667 34.333 -71.334 61 -80.001s56 3.66602 88 36.999c24 26 41.667 67.667 53 125s16 113.166 14 167.499s-8 98.166 -18 131.499c-8.66699 27.333 -23.667 46.666 -45 57.999s-48 11 -80 -1
c-28 -13.333 -49.5 -45.666 -64.5 -96.999s-24.167 -109 -27.5 -173z" />
    <glyph glyph-name="ampersand" unicode="&#x26;" horiz-adv-x="952" 
d="M40.5 468.5c-3.66699 51.667 8.83203 105.836 37.499 162.503c38.667 73.333 124 130.666 256 171.999c-78 48 -135.167 93.833 -171.5 137.5s-54.166 87.834 -53.499 132.501c2.66699 88 29.167 157.167 79.5 207.5s130.833 92.5 241.5 126.5
c-5.33301 56.667 -8.5 96.5 -9.5 119.5s0.833008 60.833 5.5 113.5c3.33301 2 8.5 3.83301 15.5 5.5s12.167 3.5 15.5 5.5l82 -84l94 53l4 -4l8 -4c-6 -35.333 -15 -98.333 -27 -189c58 -1.33301 113.333 -10 166 -26l64 -19c17.333 -6 35.666 -10 54.999 -12l2 -2l-69 -84
l32 -41c-96 4 -164.667 5.33301 -206 4c-113.333 -2.66699 -184.333 -18.334 -213 -47.001c-32.667 -31.333 -55 -61.833 -67 -91.5s-13.833 -56 -5.5 -79s22 -43.5 41 -61.5s42.833 -33.333 71.5 -46c59.333 -26 143.333 -48 252 -66l-61 -72l22 -24l41 -45
c-160.667 -18.667 -263.667 -52.334 -309 -101.001c-35.333 -40 -58.166 -77.333 -68.499 -112s-8 -65.167 7 -91.5s45.5 -46.666 91.5 -60.999s105.667 -20.833 179 -19.5c46 0 107.333 5.33301 184 16c-1.33301 -4 -2 -14.333 -2 -31v-16l52 -23l-21 -43
c-21.333 -3.33301 -60.666 -8.33301 -117.999 -15s-102.666 -12.334 -135.999 -17.001c-10.667 -68 -29 -145.333 -55 -232l-39 70l-98 -84c-4 80 -9 157.667 -15 233c-72 5.33301 -134.833 21.166 -188.5 47.499s-93.834 59.5 -120.501 99.5s-41.834 85.833 -45.501 137.5z
" />
    <glyph glyph-name="quotesingle" unicode="'" horiz-adv-x="514" 
d="M72 1036l14 531l59 -13l113 70l98 -59l86 16l-231 -571l-31 -17l-65 60z" />
    <glyph glyph-name="parenleft" unicode="(" horiz-adv-x="626" 
d="M72 706.5c-2 87 -0.666992 163.498 4 229.498c3.33301 74.667 23.333 175.334 60 302.001s74 210.334 112 251.001c62 67.333 149.333 117 262 149l20 -18l-65 -92l106 -47v-13c-50 -38 -91.5 -97.167 -124.5 -177.5s-55.5 -167.333 -67.5 -261
s-18.167 -189.667 -18.5 -288s4.33398 -187.5 14.001 -267.5s22.167 -143 37.5 -189c10 -34 31.167 -74.167 63.5 -120.5s69.833 -82.833 112.5 -109.5c-40.667 -24.667 -68.667 -41 -84 -49l55 -88c-2 -2 -4.33301 -3.66699 -7 -5s-5 -3 -7 -5l-13 -10
c-51.333 3.33301 -108.5 18.833 -171.5 46.5s-108.833 58.5 -137.5 92.5c-38 46 -68.833 107.333 -92.5 184s-38.834 155 -45.501 235s-11 163.5 -13 250.5z" />
    <glyph glyph-name="parenright" unicode=")" horiz-adv-x="626" 
d="M29 1475l83.9951 -13l14 101l68 -7l18 58c68.667 -34.667 122.667 -66 162 -94c38 -29.333 72.333 -75.166 103 -137.499s53.334 -120.833 68.001 -175.5s24.334 -103.334 29.001 -146.001c28 -384.667 -11.333 -698.667 -118 -942
c-26 -60.667 -71.167 -115.167 -135.5 -163.5s-134.5 -81.833 -210.5 -100.5c-14 9.33301 -25 18 -33 26l2 4c5.33301 4.66699 8.66602 9.66699 9.99902 15c14.667 25.333 16 47.666 4 66.999c-15.333 24.667 -24.666 46 -27.999 64c60 38 109.167 111.167 147.5 219.5
s62.5 222.833 72.5 343.5s12.833 235.167 8.5 343.5s-15.166 187.166 -32.499 236.499c-6.66699 20.667 -20.167 49.334 -40.5 86.001s-48.666 76.834 -84.999 120.501s-72.166 75.167 -107.499 94.5z" />
    <glyph glyph-name="asterisk" unicode="*" horiz-adv-x="960" 
d="M59 1309l17 39l69 28l13 60l233 -150l4 266l92 19l27 51l39 -6l8 -326l275 162c-2 -2 -3.66699 -5.16699 -5 -9.5s-3 -10.333 -5 -18s-3.66699 -13.5 -5 -17.5l-8 -37l49 -65l-192 -158l245 -166l-8 -37l-76 -29l-30 -34l-234 135l-10 -268l-90 -31l-72 4l-8 323
l-217 -184l-70 39l-28 70l247 196z" />
    <glyph glyph-name="plus" unicode="+" horiz-adv-x="862" 
d="M47 649l82 70l-37 137l232 21l2 290l110 7l66 71l63 -4v-354l252 18l4 -35l-71 -98l69 -72l-6 -38l-252 -58l-18 -328h-111l-88 9l-14 290l-271 -16z" />
    <glyph glyph-name="comma" unicode="," horiz-adv-x="512" 
d="M37 -129l90 559l12 2l41 -74l154 54l41 -47l51 -5l-272 -526l-21 62z" />
    <glyph glyph-name="hyphen" unicode="-" horiz-adv-x="620" 
d="M92 756l49 39l-35 79l422 33l-67 -41l82 -116l-115 -74l45 -68l-362 -69l-15 30l97 78z" />
    <glyph glyph-name="period" unicode="." horiz-adv-x="471" 
d="M65.5 82c-3 31.333 -0.166016 69 8.50098 113c5.33301 40.667 23.666 76 54.999 106s66.666 47.5 105.999 52.5s78.333 -3.5 117 -25.5c12 -8 19.833 -30.833 23.5 -68.5s0.5 -78.5 -9.5 -122.5s-26.333 -75.333 -49 -94c-34 -27.333 -73.667 -45.666 -119 -54.999
s-76.666 -5.33301 -93.999 12c-22.667 23.333 -35.5 50.666 -38.5 81.999z" />
    <glyph glyph-name="slash" unicode="../default.htm" horiz-adv-x="706" 
d="M20 -57l396 1661l63 16l31 -139l117 211l73 -33l-444 -1702l-78 57l-100 -88z" />
    <glyph glyph-name="zero" unicode="0" horiz-adv-x="1204" 
d="M80 920c5.33301 89.333 38.8311 201.83 100.498 337.497s121.5 221.834 179.5 258.501c50 32.667 110.333 56 181 70s137.334 17 200.001 9l-28 -176l145 62l14 -64l101 21c49.333 -64.667 88.833 -143 118.5 -235s44.834 -191.333 45.501 -298
c2.66699 -239.333 -26 -440.666 -86 -603.999s-142 -265.666 -246 -306.999c-73.333 -31.333 -160 -43.833 -260 -37.5s-183.333 31.833 -250 76.5c-92 64 -154.333 169.167 -187 315.5s-42 336.833 -28 571.5zM331.998 796.997c0 -28 0.668945 -57 2.00195 -87
s5 -76.5 11 -139.5s17.5 -120.167 34.5 -171.5s38.5 -89.333 64.5 -114c22 -22 50 -35 84 -39s65.333 -1.83301 94 6.5s52.667 19.166 72 32.499c43.333 30.667 79.833 94.5 109.5 191.5s44.5 183.833 44.5 260.5c0 12.667 0.166992 35.167 0.5 67.5s0.5 56 0.5 71
s-0.833008 37 -2.5 66s-4.16699 51.667 -7.5 68s-8.5 36.833 -15.5 61.5s-15.5 45.334 -25.5 62.001s-22.667 34.334 -38 53.001s-33 35.667 -53 51c-22 16.667 -46.833 26 -74.5 28s-53 -0.666992 -76 -8s-45.5 -18 -67.5 -32c-33.333 -21.333 -62.333 -61.333 -87 -120
s-41.834 -113.834 -51.501 -165.501s-15.834 -99.167 -18.501 -142.5z" />
    <glyph glyph-name="one" unicode="1" horiz-adv-x="933" 
d="M80 1290l412 352l59 -114l100 61l-12 -1349l229 2l13 -62l-103 -71l99 -64l-54 -55l-639 -10l76 63l-113 72l64 39l-37 75l232 27l-37 956l-185 -90l-34 23l71 139z" />
    <glyph glyph-name="two" unicode="2" horiz-adv-x="974" 
d="M82 31l51.0029 56.9951c-32 54 -48.333 82 -49 84c38 61.333 90.667 152.5 158 273.5s128.666 239.5 183.999 355.5l51 109.5l43 99.5c16 38 28 69.833 36 95.5s15 52.167 21 79.5s8.16699 50.833 6.5 70.5s-6.5 36.167 -14.5 49.5c-12 18.667 -42 30.167 -90 34.5
s-98.167 3.83301 -150.5 -1.5s-108.5 -13.666 -168.5 -24.999l57 86l-84 33l55 71l-16 15l-35 28c44.667 17.333 93 32.833 145 46.5s106.5 24.834 163.5 33.501s113.5 11.334 169.5 8.00098s104.333 -13.333 145 -30c76 -30.667 124.5 -80.667 145.5 -150
s14.833 -150.666 -18.5 -243.999c-44 -131.333 -107 -284.666 -189 -459.999c-41.333 -88 -127.333 -254.667 -258 -500c61.333 0 145.666 -1.33301 252.999 -4s170.666 -4 189.999 -4l20 -56l-141 -77l131 -48l-25 -61h-755z" />
    <glyph glyph-name="three" unicode="3" horiz-adv-x="1030" 
d="M88 106l12 40.998c39.333 6 79.333 14 120 24s82.5 22.833 125.5 38.5s83 32.834 120 51.501s70.167 40.167 99.5 64.5s51.666 50 66.999 77s21.833 57.167 19.5 90.5s-15.5 67.666 -39.5 102.999c-26.667 38 -120.667 57 -282 57l18 60l-43 35l78 61l-98 63
c36 19.333 70 40 102 62s63.167 47.667 93.5 77s54 58.833 71 88.5s25.167 62 24.5 97s-13 68.833 -37 101.5c-42.667 56 -116 80 -220 72c-60.667 -6.66699 -122 -14.667 -184 -24l60 79l-84 31l84 57l-60 68c64 18.667 137.667 31.667 221 39s159.5 9 228.5 5
s119.833 -12.667 152.5 -26c46.667 -18 84 -46.167 112 -84.5s44.333 -83.833 49 -136.5s-0.666016 -109.167 -15.999 -169.5s-44.5 -124 -87.5 -191s-96.833 -131.167 -161.5 -192.5c84.667 -28.667 153 -62.834 205 -102.501s85.333 -76.5 100 -110.5
c25.333 -65.333 28.833 -131.666 10.5 -198.999s-51.833 -130.666 -100.5 -189.999s-106.667 -109.666 -174 -150.999c-125.333 -78 -288 -126 -488 -144c2 6.66699 7 17 15 31l8 16l-53 21l106 88z" />
    <glyph glyph-name="four" unicode="4" horiz-adv-x="1110" 
d="M63 553l68 1024l12 4l37 -131l84 86l23 -70l59 21l-35 -719l357 35v788l10 8l80 -141l106 133l41 -4l6 -796l142 18l2 -45l-142 -102l119 -46l-47 -67l31 -41l-111 -16l6 -500l-47 -10l-69 84l-37 -129l-66 12l-24 534l-508 -30v106z" />
    <glyph glyph-name="five" unicode="5" horiz-adv-x="950" 
d="M96 780l8.00098 783.002l709 32l16 -51l-86 -80l125 -59l-10 -21l-463 -38l-6 -152c-2.66699 -112.667 2 -201.334 14 -266.001c80.667 7.33301 161.167 2.33301 241.5 -15s136.5 -39 168.5 -65c34.667 -28.667 59 -73.834 73 -135.501s17.167 -127 9.5 -196
s-27.834 -138.5 -60.501 -208.5s-74.667 -125.667 -126 -167c-106.667 -85.333 -278 -137 -514 -155c6.66699 19.333 18 40.333 34 63l-90 19l129 88l-145 28v27c182 31.333 309 74.333 381 129c72 56 112.167 117.667 120.5 185s-20.834 119.666 -87.501 156.999
c-9.33301 4.66699 -23.666 7.83398 -42.999 9.50098s-45 2 -77 1s-57.667 -1.83301 -77 -2.5s-48.5 -2.5 -87.5 -5.5s-60.5 -4.5 -64.5 -4.5l19 113z" />
    <glyph glyph-name="six" unicode="6" horiz-adv-x="1107" 
d="M96 864c8 158 23.0029 277.669 45.0029 359.002c61.333 256 197.333 394.333 408 415c146 14.667 264.667 8.66699 356 -18l-16 -29l26 -35l-153 -49l168 -80l-15 -20c-74 10 -134 12.667 -180 8c-94 -6.66699 -173.667 -34.667 -239 -84
c-46.667 -36.667 -78.834 -86.334 -96.501 -149.001s-30.834 -157.667 -39.501 -285c77.333 24 153.333 37.333 228 40s136.834 -2.33301 186.501 -15s88.5 -30 116.5 -52c46.667 -34.667 85.667 -95.334 117 -182.001s40.666 -169.334 27.999 -248.001
c-10 -67.333 -22 -123.833 -36 -169.5s-36.667 -90.167 -68 -133.5s-71.666 -80.666 -120.999 -111.999c-32.667 -22 -83.667 -36.833 -153 -44.5s-139.833 -6 -211.5 5s-124.834 30.167 -159.501 57.5c-46 36.667 -88.333 98.167 -127 184.5s-59.334 190.833 -62.001 313.5
c-4 165.333 -4.66699 273 -2 323zM372.503 442.502c7.66699 -75.667 28.1699 -134.498 61.5029 -176.498c17.333 -22.667 39.666 -39 66.999 -49s54.333 -13.833 81 -11.5s51.667 8.66602 75 18.999s41.333 22.833 54 37.5c34 44.667 53.5 107.667 58.5 189
s-8.5 148.666 -40.5 201.999c-16 28 -46.333 48.333 -91 61s-90.334 13.167 -137.001 1.5s-79.334 -35.167 -98.001 -70.5c-28 -59.333 -38.167 -126.833 -30.5 -202.5z" />
    <glyph glyph-name="seven" unicode="7" horiz-adv-x="917" 
d="M78 1548l4 33l698 53l-20 -106l117 10l-7 -88l64 -4l-508 -1415l-53 28l-45 -28l-6 133l-154 -174l-16 8l415 1321h-397l31 59l-82 43l123 88z" />
    <glyph glyph-name="eight" unicode="8" horiz-adv-x="1099" 
d="M63.5 460c2.33301 74 20.4971 148.835 54.4971 224.502s82.667 142.5 146 200.5c-88 121.333 -135.333 246.666 -142 375.999s31.333 227.666 114 294.999c52 42 127 72.5 225 91.5s188.667 18.833 272 -0.5l-20 -140l127 37v-67l106 16
c26.667 -44 44.334 -91.5 53.001 -142.5s8.5 -102.833 -0.5 -155.5s-30.333 -105.667 -64 -159s-78.167 -101.666 -133.5 -144.999c52 -26.667 96 -62.834 132 -108.501s62.167 -95 78.5 -148s25.333 -109 27 -168s-3.66602 -115.333 -15.999 -169
s-31.166 -103.834 -56.499 -150.501s-55 -84.667 -89 -114c-46 -38 -116 -63.833 -210 -77.5s-187.5 -11.167 -280.5 7.5s-159.167 51.334 -198.5 98.001c-42.667 52 -74.667 113 -96 183s-30.833 142 -28.5 216zM324.997 490.002c-8 -49.333 -6.33301 -98.998 5 -148.998
s33 -90.667 65 -122c17.333 -17.333 43.5 -30.833 78.5 -40.5s73 -10.834 114 -3.50098s73.167 25.333 96.5 54c46 57.333 71.667 127.5 77 210.5s-12.667 154.167 -54 213.5c-22 29.333 -57.5 47.166 -106.5 53.499s-96.167 1.5 -141.5 -14.5s-75.333 -38.333 -90 -67
c-21.333 -40.667 -36 -85.667 -44 -135zM367.997 1197.5c1.33301 -83.667 20.0029 -143.503 56.0029 -179.503c25.333 -25.333 58.666 -40.5 99.999 -45.5s80.333 2.5 117 22.5c38.667 22.667 66.167 60.334 82.5 113.001s19.666 105.334 9.99902 158.001
s-29.5 91.334 -59.5 116.001c-32 23.333 -74.5 35.333 -127.5 36s-95.833 -13.333 -128.5 -42c-34.667 -35.333 -51.334 -94.833 -50.001 -178.5z" />
    <glyph glyph-name="nine" unicode="9" horiz-adv-x="1077" 
d="M66 1096c3.33301 89.333 23.3369 180.666 60.0039 273.999s82.667 163.666 138 210.999c43.333 36 104.5 60 183.5 72s155.5 12 229.5 0s130.333 -31.333 169 -58c45.333 -33.333 83 -92.166 113 -176.499s51.667 -176.166 65 -275.499
c8.66699 -70 13.5 -145.333 14.5 -226s-2.83301 -165.667 -11.5 -255s-22.334 -173.333 -41.001 -252s-45.334 -151 -80.001 -217s-75.334 -116 -122.001 -150c-58 -40.667 -143.667 -65 -257 -73s-218 2 -314 30c9.33301 9.33301 22.333 19 39 29l-41 53l160 14l-150 111
l2 2c9.33301 -0.666992 32.5 -3 69.5 -7s64.5 -6.5 82.5 -7.5s42 -1.33301 72 -1s56.667 3.5 80 9.5s45 14.667 65 26c42 24 73.5 65.333 94.5 124s33.167 124.667 36.5 198c-103.333 -16 -202.833 -19.5 -298.5 -10.5s-157.834 26.167 -186.501 51.5
c-128.667 110.667 -186 278.667 -172 504zM328.004 1035c3.33301 -65.333 18.999 -126.999 46.999 -184.999c20.667 -40.667 53.5 -68 98.5 -82s89.333 -14.833 133 -2.5s76.5 32.833 98.5 61.5c26 37.333 42 88.666 48 153.999s3.33301 130.666 -8 195.999
s-28.333 122.333 -51 171c-10.667 24.667 -35.667 42.334 -75 53.001s-79.666 12 -120.999 4s-70 -23.667 -86 -47c-28.667 -42 -50.667 -90 -66 -144s-21.333 -113.667 -18 -179z" />
    <glyph glyph-name="colon" unicode=":" horiz-adv-x="512" 
d="M65.5 82c-3 31.333 -0.166016 69 8.50098 113c5.33301 40.667 23.666 76 54.999 106s66.666 47.5 105.999 52.5s78.333 -3.5 117 -25.5c12 -8 19.833 -30.833 23.5 -68.5s0.5 -78.5 -9.5 -122.5s-26.333 -75.333 -49 -94c-34 -27.333 -73.667 -45.666 -119 -54.999
s-76.666 -5.33301 -93.999 12c-22.667 23.333 -35.5 50.666 -38.5 81.999zM117.001 823c-3.33301 31.333 -0.666016 69 8.00098 113c5.33301 40.667 23.666 76 54.999 106s66.666 47.5 105.999 52.5s78.333 -3.5 117 -25.5c12 -8 20 -30.833 24 -68.5s1 -78.5 -9 -122.5
s-26.333 -75.333 -49 -94c-34 -27.333 -73.667 -45.666 -119 -54.999s-76.666 -5.33301 -93.999 12c-22.667 23.333 -35.667 50.666 -39 81.999z" />
    <glyph glyph-name="semicolon" unicode=";" horiz-adv-x="512" 
d="M37 -129l90 559l12 2l41 -74l154 54l41 -47l51 -5l-272 -526l-21 62zM117 823c-3.33301 31.333 -0.666016 69 8.00098 113c5.33301 40.667 23.666 76 54.999 106s66.666 47.5 105.999 52.5s78.333 -3.5 117 -25.5c12 -8 20 -30.833 24 -68.5s1 -78.5 -9 -122.5
s-26.333 -75.333 -49 -94c-34 -27.333 -73.667 -45.666 -119 -54.999s-76.666 -5.33301 -93.999 12c-22.667 23.333 -35.667 50.666 -39 81.999z" />
    <glyph glyph-name="less" unicode="&#x3c;" horiz-adv-x="770" 
d="M53 733l355 848l53 27l78 -62l96 62l45 -43l14 4l-344 -778l387 -824l-10 -10l-100 47l-90 -98l-54 4z" />
    <glyph glyph-name="equal" unicode="=" horiz-adv-x="714" 
d="M102 408l86 57l-53 102l498 33l31 -61l-80 -60l26 -102l-489 -66l10 56zM109 911l32 52l-6 96l494 18l2 -37l-62 -86l62 -75l-13 -33l-473 -53l25 57z" />
    <glyph glyph-name="greater" unicode="&#x3e;" horiz-adv-x="763" 
d="M59 1581l9 8l100 -45l92 96l51 -4l430 -823l-354 -848l-53 -26l-78 63l-94 -61l-47 41l-15 -5l344 781z" />
    <glyph glyph-name="question" unicode="?" horiz-adv-x="1024" 
d="M127 1499l49.001 43.001l-10 14c-0.666992 1.33301 -4 5.5 -10 12.5s-10.333 12.5 -13 16.5c161.333 48 321.333 61 480 39c86 -10.667 160.833 -43.334 224.5 -98.001s108.167 -120.334 133.5 -197.001s29.333 -153.667 12 -231
c-10.667 -41.333 -30.334 -80 -59.001 -116s-65.667 -68.833 -111 -98.5s-92.833 -56.167 -142.5 -79.5s-107.167 -47 -172.5 -71c-14.667 -43.333 -26.334 -87 -35.001 -131c-2.66699 -13.333 -5.16699 -30.5 -7.5 -51.5s-4.5 -35.167 -6.5 -42.5l-31 -27l-86 78l-33 -104
l-26 4c-0.666992 5.33301 -3.16699 21.833 -7.5 49.5s-7.83301 51.5 -10.5 71.5l-9.5 73.5c-3.66699 29 -6.5 56.833 -8.5 83.5s-3 51.334 -3 74.001c15.333 8.66699 44.833 23.834 88.5 45.501l103.5 52.5c115.333 66 181 127 197 183c12 39.333 14.167 75.666 6.5 108.999
s-22.167 62.5 -43.5 87.5s-47.166 45.167 -77.499 60.5s-61.833 24.333 -94.5 27c-104 8 -197.667 4.66699 -281 -10l80 84zM178.501 25.501c-3 20.333 4.33398 43.166 22.001 68.499s45.834 49.333 84.501 72c18.667 10 53.167 16.5 103.5 19.5s81.166 0.5 92.499 -7.5
c11.333 -6 20.5 -18.667 27.5 -38s6.66699 -42.666 -1 -69.999s-25.834 -50.666 -54.501 -69.999c-18 -13.333 -45.667 -23 -83 -29s-71.333 -8.16699 -102 -6.5s-49.667 5.16699 -57 10.5c-18.667 13.333 -29.5 30.166 -32.5 50.499z" />
    <glyph glyph-name="at" unicode="@" horiz-adv-x="1361" 
d="M117.5 818c5.66699 120 21.668 231.835 48.001 335.502s66.833 195.5 121.5 275.5s120 134 196 162c259.333 17.333 441.666 15.333 546.999 -6c72.667 -37.333 129.667 -105.333 171 -204s64.666 -205.334 69.999 -320.001s-2 -229.167 -22 -343.5
s-50.667 -207.5 -92 -279.5c-37.333 -66 -79.833 -110 -127.5 -132s-122.5 -34.667 -224.5 -38l-2 94c-104.667 -49.333 -193.334 -73 -266.001 -71c-37.333 40 -63.166 104.667 -77.499 194s-18.166 182.5 -11.499 279.5s20.167 191.833 40.5 284.5s44.5 165 72.5 217
c23.333 7.33301 65.5 10 126.5 8s108.167 -12.333 141.5 -31c59.333 12.667 100.333 19 123 19c0 -74 2.16699 -198.333 6.5 -373s6.5 -323 6.5 -445c22.667 26 41.667 51.333 57 76c68.667 98.667 102 206 100 322c-2.66699 84.667 -5.5 151.667 -8.5 201
s-10.167 107.333 -21.5 174s-26.333 117 -45 151c-26.667 21.333 -79.167 36.833 -157.5 46.5s-155 13.167 -230 10.5s-128.167 -8.66699 -159.5 -18c-69.333 -62.667 -122.5 -150.5 -159.5 -263.5s-56 -229.167 -57 -348.5s12.5 -237 40.5 -353s68.667 -210.667 122 -284
c47.333 -14.667 115.833 -24 205.5 -28s167.5 -1.66699 233.5 7l4 -12l-53 -29l38 -53l-57 -39l17 -22c-71.333 -10.667 -150.833 -15.5 -238.5 -14.5s-169.5 5.83301 -245.5 14.5c-52.667 42 -97.834 107.667 -135.501 197s-64.667 188.166 -81 296.499
s-21.666 222.5 -15.999 342.5zM606.001 739.002c0 -56 13.668 -131.003 41.001 -225.003c56 -13.333 110.667 -10.666 164 8.00098c-0.666992 54 -3.33398 143 -8.00098 267s-6.66699 223.333 -6 298c-84 17.333 -132.667 6 -146 -34
c-20 -59.333 -32.5 -109.666 -37.5 -150.999s-7.5 -95.666 -7.5 -162.999z" />
    <glyph glyph-name="A" unicode="A" horiz-adv-x="1191" 
d="M20 -25l324 1604l41 23l80 -91l133 115l135 -166l86 148h12l349 -1598l-37 -16l-105 139l-37 -119l-75 47l-41 -41l-78 240l-477 -4l-60 -272l-53 30l-35 -32l-39 116l-98 -139zM389 502l395 26l-155 656l-82 14z" />
    <glyph glyph-name="B" unicode="B" horiz-adv-x="1185" 
d="M63 1567c102 32.667 207.333 54.665 316 65.998c47.333 4.66699 94 7.33398 140 8.00098c60 0 119 -4.33301 177 -13c119.333 -17.333 212.666 -55.166 279.999 -113.499s101 -139.166 101 -242.499c0 -19.333 -4.16699 -42 -12.5 -68s-21.5 -56 -39.5 -90
s-44.833 -71.167 -80.5 -111.5s-77.5 -79.5 -125.5 -117.5c217.333 -111.333 326 -241.333 326 -390c0 -22.667 -2.66699 -45.667 -8 -69c-13.333 -53.333 -45.666 -107.333 -96.999 -162s-112.5 -103.667 -183.5 -147s-144.333 -81.833 -220 -115.5
s-149.167 -60.834 -220.5 -81.501c-21.333 60.667 -32.333 92.667 -33 96l-121 -41l-37 76l-94 -26v1204l-39 53l96 59l-114 82l45 60zM393 1319c-2.66699 -44.667 -4 -89.666 -4 -134.999c0 -90 5.66699 -181 17 -273c88 24 161.833 56.5 221.5 97.5
s101.834 80.167 126.501 117.5c20 29.333 30 56.666 30 81.999c0 4 -0.333008 7.66699 -1 11c-3.33301 28 -13.333 51.5 -30 70.5s-39.667 35.5 -69 49.5c-36.667 16.667 -75.334 25 -116.001 25c-54.667 0 -113 -15 -175 -45zM400 463.999
c0 -2.66699 -0.333008 -5.00195 -1 -7.00195c0 -71.333 5 -157.333 15 -258h1l1 1h1l1 1h1l1 1h1h1l1 1h1l1 1h1l2 1c120.667 51.333 204 92.333 250 123c84 56.667 126 122.334 126 197.001c0 6 -0.333008 12 -1 18c-4 40 -20.833 71.833 -50.5 95.5
s-65.167 37.834 -106.5 42.501c-18.667 2 -37 3 -55 3c-22 0 -45 -1.33301 -69 -4c-42.667 -5.33301 -80 -15.666 -112 -30.999c-6.66699 -50.667 -10 -112.334 -10 -185.001z" />
    <glyph glyph-name="C" unicode="C" horiz-adv-x="989" 
d="M70 913c6 68 19.1689 135.504 39.502 202.504s47.166 131 80.499 192s75.166 115.333 125.499 163s105.5 82.5 165.5 104.5c52.667 18.667 107.334 28 164.001 28c80.667 0 164.667 -19 252 -57l8 -39l-127 -69l111 -107l-70 -35l39 -67
c-59.333 16.667 -113.333 25 -162 25c-76.667 0 -140 -20.667 -190 -62c-39.333 -31.333 -72.833 -90.333 -100.5 -177s-44.834 -177.334 -51.501 -272.001c-1.33301 -20.667 -2 -41.334 -2 -62.001c0 -72.667 8.66699 -142.667 26 -210
c22.667 -86.667 59.667 -144.667 111 -174c30.667 -18.667 75 -28 133 -28c56 0 124.333 8.66699 205 26c-2 -4.66699 -3.66699 -12.334 -5 -23.001s-3 -18.667 -5 -24l-6 -29l98 -47l-155 -102l133 -35l-17 -37c-60 -21.333 -125.333 -34 -196 -38
c-18.667 -1.33301 -37 -2 -55 -2c-51.333 0 -101 4.66699 -149 14c-65.333 12 -126 35.167 -182 69.5s-98 77.166 -126 128.499c-70 125.333 -105 294 -105 506c0 74 4.33301 153 13 237z" />
    <glyph glyph-name="D" unicode="D" horiz-adv-x="1187" 
d="M68 1411l70.9971 64.002l-12 24c-7.33301 12 -15.666 29 -24.999 51c144.667 35.333 281 53 409 53c38 0 75 -1.66699 111 -5c158.667 -13.333 273 -56 343 -128c70.667 -74.667 122 -165.334 154 -272.001c28 -93.333 42 -189.333 42 -288
c0 -14.667 -0.333008 -29.334 -1 -44.001c-4.66699 -114.667 -24 -233.334 -58 -356.001c-15.333 -57.333 -37 -110.666 -65 -159.999s-59 -92 -93 -128s-72.167 -69 -114.5 -99s-83.666 -54.833 -123.999 -74.5s-83.166 -37.167 -128.499 -52.5s-85.833 -27 -121.5 -35
s-71.5 -14.667 -107.5 -20l8 104l-137 -16l21 112l-125 -4l10 1098l-47 20l106 88zM383.997 950.002c-0.666992 -50.667 -1.00098 -97.0029 -1.00098 -139.003c0 -63.333 0.666992 -117 2 -161c2 -74.667 5.33301 -193 10 -355c14 -3.33301 28.333 -5 43 -5
c19.333 0 39.666 2.66699 60.999 8c37.333 10.667 71.333 26.334 102 47.001s57.167 41.167 79.5 61.5s38.5 37.833 48.5 52.5c42.667 61.333 75.334 126.333 98.001 195c22.667 69.333 34.334 134 35.001 194v10c0 56.667 -5.33301 108.667 -16 156
c-11.333 50.667 -28.333 93.667 -51 129c-21.333 34.667 -47.833 62.834 -79.5 84.501s-65.5 35.834 -101.5 42.501c-28 5.33301 -55.667 8.33301 -83 9l-23 -1c-36 -2 -72.333 -8 -109 -18c-8.66699 -80.667 -13.667 -184 -15 -310z" />
    <glyph glyph-name="E" unicode="E" horiz-adv-x="915" 
d="M53 1489l47 33l-28 47l704 41l-31 -43l54 -35l-99 -49l101 -82l-19 -41l-360 -39l-10 -387l385 14l10 -37l-82 -90l70 -41l-11 -43l-368 -51l10 -450l371 16l8 -29l-125 -51l139 -49l-53 -76l27 -43l-465 -39l16 70l-137 -6l6 123l-96 -17l4 1153h-53l-13 41l144 94z" />
    <glyph glyph-name="F" unicode="F" horiz-adv-x="903" 
d="M20 1509l13 31l794 55l-22 -51l51 -69l-145 -64l129 -41l-4 -22l-408 -48v-450l289 14l-25 -55l58 -51l-41 -84l22 -31l-305 -47l20 -625l-45 -16l-73 166l-49 -164l-62 45l-53 -25l-21 1299h-55l21 76l-31 18l117 72z" />
    <glyph glyph-name="G" unicode="G" horiz-adv-x="1161" 
d="M58 720v27c0 113.333 13.667 225.666 41 336.999c29.333 120.667 72 218 128 292c40.667 53.333 96.5 97.5 167.5 132.5s144.167 57.833 219.5 68.5c50.667 7.33301 100.334 11 149.001 11c24.667 0 49 -1 73 -3c72 -5.33301 132.667 -18.333 182 -39l6 -30l-178 -43
l137 -76l-57 -56c2 -6 3.66699 -14.667 5 -26s3 -19.666 5 -24.999c-8 0 -18.667 0.333008 -32 1s-24 1 -32 1c-186.667 0 -321.667 -43.667 -405 -131c-46 -50 -76.333 -125.667 -91 -227c-6.66699 -45.333 -10 -91 -10 -137c0 -54.667 4.66699 -109.667 14 -165
c18 -100 47.667 -177 89 -231c30.667 -42 85 -63 163 -63c12.667 0 26 0.666992 40 2c40 4 86.333 12.333 139 25l-14 413l24 10l72 -118l74 161l51 -28l39 16l16 -885l-39 25l-41 -47l-65 129l-64 -109l-28 7l-9 129c-54.667 -14 -105.334 -24.333 -152.001 -31
s-95 -10.334 -145 -11.001c-3.33301 -0.666992 -6.66602 -1 -9.99902 -1c-46 0 -89.333 6.33301 -130 19c-42.667 14 -79.667 34.667 -111 62c-69.333 59.333 -122.833 145.833 -160.5 259.5s-57.834 231.834 -60.501 354.501z" />
    <glyph glyph-name="H" unicode="H" horiz-adv-x="1230" 
d="M90 -35l25 1606l39 -12l36 28l74 -157l90 161l47 -8l-6 -604l461 14l12 604l47 13l60 -150l86 146l59 -47l37 16l-35 -1600l-47 -32l-47 196l-59 -172l-70 45l-35 -16l2 612l-485 -24l-21 -580l-55 14l-53 -63l-66 143l-69 -141z" />
    <glyph glyph-name="I" unicode="I" horiz-adv-x="532" 
d="M98 -25l4 1573l56 -6l63 47l80 -211l90 236l45 -6l-22 -1610l-70 39l-59 -76l-62 162l-67 -164z" />
    <glyph glyph-name="J" unicode="J" horiz-adv-x="923" 
d="M61 12l6.99707 28.998l135 31l-123 96l39 37l-4 26l-9 54c40.667 -12 89.334 -21.667 146.001 -29c17.333 -1.33301 34 -2 50 -2c102 0 161.667 34 179 102c30 120.667 45 272.667 45 456c0 56 -1.33301 115 -4 177c-4 77.333 -12.167 186.333 -24.5 327
s-19.833 227.667 -22.5 261l47 -4c5.33301 -1.33301 13 -2 23 -2l82 69l71 -192l54 174c2.66699 -0.666992 10 -2.33398 22 -5.00098s22.333 -4.33398 31 -5.00098c13.333 -286 20 -545.667 20 -779c0 -65.333 -0.666992 -128.666 -2 -189.999
c0 -56 -1.66699 -110.5 -5 -163.5s-9.66602 -112.667 -18.999 -179s-25 -124.666 -47 -174.999s-48.667 -85.5 -80 -105.5c-45.333 -28.667 -96 -48.667 -152 -60c-40.667 -8.66699 -81.334 -13 -122.001 -13c-15.333 0 -30.666 0.333008 -45.999 1
c-55.333 4.66699 -106.666 12.334 -153.999 23.001s-93 24.334 -137 41.001z" />
    <glyph glyph-name="K" unicode="K" horiz-adv-x="1062" 
d="M70 -25l20 1596l53 -12l23 20l78 -141l78 166l45 -2l-5 -801l418 784l49 -37l84 21l-24 -152l131 111l24 -15l-315 -643l301 -782l-26 -37l-140 99v-132l-53 27l-49 -33l-273 701l-145 -207l2 -490l-61 23l-45 -33l-76 94l-66 -133z" />
    <glyph glyph-name="L" unicode="L" horiz-adv-x="804" 
d="M61 133l11 1419l73 -34l62 86l90 -142l63 115l21 -8l-23 -1323l379 10l13 -45l-181 -74l168 -61l-63 -82l51 -37l-514 -20l14 88l-90 4l12 104h-86z" />
    <glyph glyph-name="M" unicode="M" horiz-adv-x="1531" 
d="M8 -18l217 1589l56 -10l49 26l63 -192l74 170l61 16l220 -807l47 -6l241 799l51 -25l101 70l72 -51l55 8l186 -1577l-71 53l-46 -80l-94 123l-47 -139l-29 2l-96 858l-47 -10l-252 -819l-10 -5l-74 170l-35 -159l-20 2l-221 796l-43 2l-117 -819l-23 10l-49 -22l-69 131
l-121 -119z" />
    <glyph glyph-name="N" unicode="N" horiz-adv-x="1157" 
d="M92 10l33 1579l63 13l129 -148l60 158l24 -13l381 -790l56 18l4 736l41 -29l43 55l69 -102l80 102l-18 -1579l-17 -6l-79 156l-52 -162l-49 31l-39 -23l-399 840l-45 -4l-27 -846l-28 -12l-74 125l-74 -107l-31 21z" />
    <glyph glyph-name="O" unicode="O" horiz-adv-x="1169" 
d="M62 590c-2.66699 50.667 -4.00195 99.667 -4.00195 147c0 51.333 1.33301 100.333 4 147c5.33301 90.667 14.666 162.667 27.999 216c19.333 86 44.833 159.833 76.5 221.5s69.334 111.167 113.001 148.5s90.5 65.666 140.5 84.999s106.667 32.666 170 39.999
c6 0.666992 13.667 1 23 1c18 0 41.667 -1 71 -3l23 -145l122 49l31 -141l129 33c62 -81.333 97 -160.666 105 -237.999c12.667 -110.667 19.667 -216.667 21 -318v-33c-0.666992 -90.667 -5.66699 -178.667 -15 -264c-10.667 -96 -31.5 -182.5 -62.5 -259.5
s-70.833 -137.833 -119.5 -182.5c-49.333 -45.333 -109.333 -78.666 -180 -99.999c-61.333 -18.667 -121 -28 -179 -28h-24c-65.333 2.66699 -126 13 -182 31s-97.333 41 -124 69c-49.333 49.333 -88.166 123 -116.499 221s-45.166 199 -50.499 303zM351.998 600
c11.333 -120 38.667 -213.667 82 -281c15.333 -23.333 42.333 -41 81 -53c19.333 -6 39.333 -9 60 -9s41.667 3 63 9c44 12 77 38 99 78c33.333 62.667 57.333 134.667 72 216c12 66 18 130 18 192c0 14 -0.333008 27.667 -1 41c-3.33301 74 -10.833 142.167 -22.5 204.5
s-26.167 112.833 -43.5 151.5c-15.333 35.333 -35.833 62.5 -61.5 81.5s-52.167 29.5 -79.5 31.5c-5.33301 0.666992 -10.666 1 -15.999 1l-66 -10c-27.333 -8 -51.833 -20.833 -73.5 -38.5s-38.167 -37.5 -49.5 -59.5c-24.667 -44 -44 -117.333 -58 -220
c-8 -56.667 -11.667 -116 -11 -178c-0.666992 -50.667 1.66602 -103 6.99902 -157z" />
    <glyph glyph-name="P" unicode="P" horiz-adv-x="1101" 
d="M41 1466l11.999 60c137.333 54 286 80.667 446 80h15c166 -1.33301 284.667 -29.333 356 -84c64 -52 110.667 -121.667 140 -209c22.667 -68 34 -135.667 34 -203c0 -20 -0.666992 -39.333 -2 -58c-8 -86.667 -31.667 -161 -71 -223
c-108 -173.333 -301.333 -296 -580 -368c-9.33301 -137.333 -14 -295 -14 -473l-45 -23l-105 215l-84 -174l-32 27c-5.33301 132 -9.66602 325.333 -12.999 580c-1.33301 127.333 -2 242.333 -2 345s0.666992 193 2 271l52 78l-56 30l121 111zM378.999 758
c58 7.33301 112.004 23.8311 162.004 49.498s88.667 50.834 116 75.501c29.333 27.333 54 60 74 98c19.333 38 31 79.333 35 124c0.666992 5.33301 1 10.333 1 15c0 38.667 -12.667 75 -38 109c-18.667 24.667 -40.334 43.667 -65.001 57
c-24.667 12 -48.334 19.333 -71.001 22c-6.66699 0.666992 -13.334 1 -20.001 1c-17.333 0 -36 -2 -56 -6c-28 -6 -51.333 -12.5 -70 -19.5s-39.334 -15.833 -62.001 -26.5c-0.666992 -11.333 -2.66699 -177.666 -6 -498.999z" />
    <glyph glyph-name="Q" unicode="Q" horiz-adv-x="1165" 
d="M47 588c-1.33301 24.667 -1.99805 50.332 -1.99805 76.999c0 39.333 1.33301 80.333 4 123c4 71.333 12.333 149 25 233s34.167 165.167 64.5 243.5s67.5 142.833 111.5 193.5s104.667 88.667 182 114c68.667 22 136.667 33 204 33c8 0 16 -0.333008 24 -1
c76 -2.66699 140 -17 192 -43c45.333 -22.667 83.666 -52.667 114.999 -90s58.833 -89 82.5 -155s42.5 -148.333 56.5 -247c11.333 -80 17 -157.333 17 -232c0 -82.667 -7 -162.334 -21 -239.001c-25.333 -147.333 -84 -291.333 -176 -432
c45.333 -45.333 94.333 -97.333 147 -156l-12 -16l-141 31l8 -107l-27 -4l-25 35l-36.5 50l-36.5 48c-76.667 -32 -149 -53 -217 -63c-37.333 -6 -72 -9 -104 -9c-26.667 0 -51.334 2 -74.001 6c-50.667 8.66699 -93.667 25.334 -129 50.001
c-73.333 50.667 -128.5 121.834 -165.5 213.501s-59.167 206.167 -66.5 343.5zM315.002 865.998c-6.66699 -64 -9.99805 -122.999 -9.99805 -176.999c0 -124.667 17 -224.667 51 -300c24 -56 60 -91 108 -105c20 -6.66699 42.667 -10 68 -10c34.667 0 73.667 5.66699 117 17
l-51.5 87c-19 33.333 -29.833 52.666 -32.5 57.999l51 10l25 70l94 -104c31.333 76 52.833 150.167 64.5 222.5s17.5 151.5 17.5 237.5c0 86.667 -5.83301 156.5 -17.5 209.5s-33.834 106.167 -66.501 159.5c-18.667 30 -42.334 52.333 -71.001 67
c-25.333 12.667 -50.333 19 -75 19c-2.66699 0 -5.66699 -0.333008 -9 -1c-27.333 -1.33301 -53.333 -7.83301 -78 -19.5s-44 -26.5 -58 -44.5c-36 -47.333 -63.833 -102.833 -83.5 -166.5s-34.167 -140.167 -43.5 -229.5z" />
    <glyph glyph-name="R" unicode="R" horiz-adv-x="1187" 
d="M61 1401l47.998 65l-15 15c-12 14.667 -20 27.667 -24 39c60.667 18 127.667 33.333 201 46c74 13.333 151.667 22.666 233 27.999c28 2 56 3 84 3c53.333 0 105.333 -3.66699 156 -11c78.667 -10.667 144 -30 196 -58c65.333 -35.333 113.333 -90.666 144 -165.999
c24.667 -60.667 37 -124 37 -190c0 -16 -0.666992 -32 -2 -48c-7.33301 -84 -34.166 -168.5 -80.499 -253.5s-107.833 -153.833 -184.5 -206.5l171 -358c68 -138.667 109.333 -221 124 -247l-29 -26l-170 121l31 -150l-57 16l-33 -36l-332 544l-172 -43
c-5.33301 -98 -8.66602 -163.333 -9.99902 -196c-6.66699 -115.333 -10 -202 -10 -260l-19 -15l-80 119l-49 -129l-72 86l-24 -22c0 74 -0.666992 251.5 -2 532.5s-2 480.833 -2 599.5l-37 35l137 121zM390.998 754c42 11.333 79.165 22.668 111.498 34.001
s68.5 26.5 108.5 45.5s73.167 39 99.5 60s49.166 47.167 68.499 78.5s30 65 32 101v16c0 46 -10.667 83.667 -32 113c-23.333 33.333 -55.666 55 -96.999 65c-32.667 8.66699 -67.667 13 -105 13c-9.33301 0 -18.666 -0.333008 -27.999 -1
c-47.333 -2.66699 -96.666 -11.334 -147.999 -26.001c-0.666992 -42.667 -2.5 -120.5 -5.5 -233.5s-4.5 -201.5 -4.5 -265.5z" />
    <glyph glyph-name="S" unicode="S" horiz-adv-x="1021" 
d="M119 1247c31.333 65.333 89.002 127.164 173.002 185.497s176.5 105.5 277.5 141.5s199.833 59.667 296.5 71l-28 -68l84 -27l-129 -104l172 -43l-15 -68c-56 -9.33301 -109.833 -21 -161.5 -35s-105 -31.833 -160 -53.5s-100.5 -48.5 -136.5 -80.5s-57.333 -67 -64 -105
c-1.33301 -6.66699 -2 -13.667 -2 -21c0 -20 4.66699 -39 14 -57c12 -24.667 28 -45.667 48 -63s45.167 -34.166 75.5 -50.499s58.666 -29.5 84.999 -39.5l85.5 -33c30.667 -12 53 -21.667 67 -29c22.667 -12 43 -24.667 61 -38s35.333 -28.5 52 -45.5
s30.334 -36.167 41.001 -57.5s19.334 -44.666 26.001 -69.999c6 -23.333 9 -49.333 9 -78v-9c-0.666992 -32 -5 -66.333 -13 -103c-16 -69.333 -49.833 -131.5 -101.5 -186.5s-116.834 -100.833 -195.501 -137.5c-122 -56.667 -283 -88.667 -483 -96l-19 20l111 96l-121 33
l41 35c-2 8.66699 -5.33301 16.334 -10 23.001l-23 47c138.667 15.333 249.334 39 332.001 71c20 8 38.667 17.167 56 27.5s34.666 24.166 51.999 41.499c17.333 16.667 28.666 34.334 33.999 53.001c2 6 3 12.667 3 20c0.666992 14 -3 29.333 -11 46
c-10.667 25.333 -32 51 -64 77c-39.333 34 -94 68 -164 102c-88.667 43.333 -145.334 72 -170.001 86c-126 69.333 -189 164.333 -189 285c0 70.667 21.333 149.667 64 237z" />
    <glyph glyph-name="T" unicode="T" horiz-adv-x="991" 
d="M59 1270l111 71l-109 80l62 92l-27 39l817 37l-32 -73l63 -58l-141 -80l141 -35l-6 -57l-309 -18l-8 -1241l-56 -25l-108 160l-82 -156l-21 17l-4 1239l-278 -25z" />
    <glyph glyph-name="U" unicode="U" horiz-adv-x="1169" 
d="M63 803c0 172.667 16.002 428.671 48.002 768.004l28 14l45 -59l54 55l55 -172l104 137c-15.333 -118.667 -27 -252.334 -35 -401.001c-4 -68.667 -6 -137.667 -6 -207c0 -80.667 2.66699 -161.334 8 -242.001c9.33301 -150.667 30.666 -250.334 63.999 -299.001
c18.667 -27.333 40.167 -47.833 64.5 -61.5s46.833 -21.834 67.5 -24.501c5.33301 -0.666992 11.333 -1 18 -1c17.333 0 37 2.66699 59 8c30.667 7.33301 55.167 14.666 73.5 21.999s43.5 18.333 75.5 33c0 125.333 -0.666992 348.5 -2 669.5s-2 499.833 -2 536.5l35 20
l90 -190l78 174c6 -0.666992 21.667 -2.66699 47 -6s43.666 -5.33301 54.999 -6c0 -801.333 -4 -1325 -12 -1571l-24 -14l-76 153l-76 -137l-65 16l-9 84c-82 -42.667 -166.333 -74.667 -253 -96c-73.333 -18 -139 -27.333 -197 -28c-10.667 0 -21 0.333008 -31 1
c-65.333 4 -110.333 20 -135 48c-46 53.333 -81.833 147.333 -107.5 282s-38.5 299.334 -38.5 494.001z" />
    <glyph glyph-name="V" unicode="V" horiz-adv-x="1101" 
d="M16 1559l17 12l151 -162l23 139l63 -41l49 49l220 -1118l24 -4l252 1141l59 6l27 -182l121 160l61 -19l-356 -1546l-68 33l-67 -56l-98 121l-64 -112l-41 14z" />
    <glyph glyph-name="W" unicode="W" horiz-adv-x="1519" 
d="M31 1544l18 10l80 -165l74 161l57 -34l23 14l116 -789h50l186 764l45 15l59 -179l66 207l88 -45l137 -749l53 -11l177 809l57 27l26 -178l142 176l31 -21l-265 -1570l-47 -9l-43 201l-90 -153l-78 90l-47 -111l-53 21l-133 778l-35 4l-225 -797l-66 47l-65 -67l-50 153
l-90 -127l-20 9z" />
    <glyph glyph-name="X" unicode="X" horiz-adv-x="1013" 
d="M55 1516l49 4l29 82l92 -35l56 45l237 -543l248 559l22 4l62 -116l98 73l25 -14l-277 -729l291 -817l-6 -4l-115 59l-20 -100l-51 22l-56 -29l-233 566l-232 -574l-59 23l-78 -12l-37 63l-39 -4l275 737z" />
    <glyph glyph-name="Y" unicode="Y" horiz-adv-x="1079" 
d="M35 1511l65 11l17 32l114 -98v158l50 2l280 -629l262 651l47 9l-10 -168l146 127l22 -27h49l-375 -879l5 -688l-56 13l-41 -37l-84 121l-73 -144l-35 4l-19 688z" />
    <glyph glyph-name="Z" unicode="Z" horiz-adv-x="974" 
d="M53 125l484 1241l-424 -14l-9 22l99 66l-86 53l39 45l-21 61l748 29l20 -47l-80 -106l95 -23l-506 -1198l465 6l-31 -65l35 -33l-117 -53l137 -62l-16 -29l-670 -45l10 88l-100 -18l10 94z" />
    <glyph glyph-name="bracketleft" unicode="[" horiz-adv-x="729" 
d="M135 -55l2 1611l516 33l15 -47l-68 -29l59 -92l-75 -49l12 -53l-219 -27l-31 -1030l279 2l12 -55l-74 -37l68 -80l-53 -51l14 -72z" />
    <glyph glyph-name="backslash" unicode="\" horiz-adv-x="753" 
d="M31 1581l35 18l67 -98l90 84l68 -72l53 37l387 -1560l-43 -47l-47 43l-78 -76l-55 33l-59 -27z" />
    <glyph glyph-name="bracketright" unicode="]" horiz-adv-x="718" 
d="M72 1341l71 39l-57 107l51 31l-14 49l479 41l-22 -1616l-482 -27l-10 19l57 24l-51 115l84 35l-24 92l202 14l15 1049l-291 -27z" />
    <glyph glyph-name="asciicircum" unicode="^" horiz-adv-x="1017" 
d="M66 803l292 686l103 -27l53 90l86 -43l70 27l303 -707l-17 -26l-47 37l-51 -70l-61 49l-66 -33l-229 445l-187 -445l-49 -32l-53 100l-121 -72z" />
    <glyph glyph-name="underscore" unicode="_" horiz-adv-x="1015" 
d="M86 78l100 94l-36 121l761 45l21 -90l-80 -94l31 -84l-768 -80z" />
    <glyph glyph-name="grave" unicode="`" horiz-adv-x="577" 
d="M66 1477l55 39l135 -56l35 135l37 -4l223 -311l-27 -14l-73 30l-64 -69z" />
    <glyph glyph-name="a" unicode="a" horiz-adv-x="1017" 
d="M25 12l264 1264l82 -25l75 66l113 -139l64 125l71 -43l66 38l239 -1294l-45 31l-75 -43l-58 74l-55 -56l-76 277l-381 -31l-73 -279l-21 -8l-65 82l-82 -65zM360 489l293 27l-102 459l-86 -6z" />
    <glyph glyph-name="b" unicode="b" horiz-adv-x="1003" 
d="M66 1143l57 76.0059l-25 79c89.333 24 180.666 39.333 273.999 46c30.667 2.66699 61 4 91 4c59.333 0 115.666 -4.66699 168.999 -14c80 -14 140.333 -38 181 -72c37.333 -32 65.333 -71.333 84 -118c17.333 -42.667 26 -87.667 26 -135
c-0.666992 -4 -1 -8.33301 -1 -13c-1.33301 -52.667 -15.666 -107.834 -42.999 -165.501s-66.333 -111.834 -117 -162.501c50.667 -22.667 95.334 -49.834 134.001 -81.501s63.667 -66.834 75 -105.501c7.33301 -26 11.333 -52 12 -78c0 -108 -67 -210.333 -201 -307
c-62.667 -44 -144.667 -78 -246 -102c-88.667 -20.667 -175.334 -31.334 -260.001 -32.001c-12 0 -24 0.333008 -36 1v111l-99 -4c0 44 -0.666992 193.333 -2 448c-0.666992 63.333 -1 121.666 -1 174.999c0 157.333 1.66699 265 5 323
c-23.333 0 -39.666 0.666992 -48.999 2l39 69zM354 856.006c0 -12 0.666992 -52.333 2 -121c86 8 163.833 35.167 233.5 81.5s104.5 94.5 104.5 144.5c0 41.333 -18.667 74 -56 98c-36 23.333 -77.667 35 -125 35h-5c-49.333 -1.33301 -99.333 -11 -150 -29
c0 -7.33301 -0.666992 -41 -2 -101c-1.33301 -50 -2.33301 -83.333 -3 -100c0.666992 -3.33301 1 -6 1 -8zM358 213.006c15.333 -4.66699 32.665 -7 51.998 -7c6.66699 0 13.334 0.333008 20.001 1c26.667 2 54.167 5.66699 82.5 11s56 14.666 83 27.999
s50.833 28.333 71.5 45s37 37 49 61c9.33301 20 14 41 14 63c0 4.66699 -0.333008 9.66699 -1 15c-2.66699 32.667 -17 58.667 -43 78c-25.333 20 -57 32 -95 36c-21.333 2.66699 -43 3.66699 -65 3c-17.333 0 -34.666 -0.666992 -51.999 -2
c-40 -3.33301 -77.333 -10.333 -112 -21c-8.66699 -54 -13 -109.333 -13 -166c0 -47.333 3 -95.666 9 -144.999z" />
    <glyph glyph-name="c" unicode="c" horiz-adv-x="843" 
d="M51 606c0 34.667 3.5 75.1719 10.5 121.505s18.833 98 35.5 155s37 110.333 61 160s55.167 94.667 93.5 135s80.166 67.833 125.499 82.5c48 14.667 91.167 25.667 129.5 33s79.5 11 123.5 11c1.33301 0 3 0.333008 5 1c42.667 0 85.667 -5 129 -15
c2 -2.66699 4 -7.66699 6 -15s4 -12.333 6 -15l-141 -50l98 -55l-43 -37l17 -51c-115.333 -9.33301 -195.333 -26.333 -240 -51c-33.333 -16.667 -62.166 -54.334 -86.499 -113.001s-41 -115.834 -50 -171.501s-13.5 -104.167 -13.5 -145.5
c0 -36.667 2.66699 -75.334 8 -116.001s17.166 -84.834 35.499 -132.501s41.5 -83.167 69.5 -106.5c34 -31.333 140 -47 318 -47c-4.66699 -4.66699 -11 -14 -19 -28l43 -47l-102 -58l112 -41c-0.666992 -2.66699 -1.5 -5.5 -2.5 -8.5l-3 -9
c-1 -3 -1.83301 -5.16699 -2.5 -6.5c-104 -22 -195.167 -33 -273.5 -33s-144.166 11 -197.499 33c-33.333 13.333 -63.5 33 -90.5 59s-49.333 56.167 -67 90.5s-33 70.833 -46 109.5s-22.833 79.5 -29.5 122.5s-11.5 83.667 -14.5 122s-4.5 77.166 -4.5 116.499z" />
    <glyph glyph-name="d" unicode="d" horiz-adv-x="1069" 
d="M68 1153l48.999 52.998c-11.333 34.667 -18.333 54.667 -21 60c44 12.667 91 23 141 31s106 13.667 168 17c14 0.666992 27.667 1 41 1c48 0.666992 96.667 -3.66602 146 -12.999c62.667 -12 118.667 -31.667 168 -59c55.333 -30 102 -72.833 140 -128.5
s65.167 -116.334 81.5 -182.001s24.5 -135.667 24.5 -210s-8.5 -145.5 -25.5 -213.5s-42.167 -131.833 -75.5 -191.5s-73 -107.5 -119 -143.5c-77.333 -63.333 -162.666 -113.666 -255.999 -150.999s-188 -60.666 -284 -69.999l-15 119l-127 -17l9 949l-25 16l62 63z
M343.999 1012c0 -150.667 0.666992 -260.667 2 -330c0 -200.667 6.33301 -351.667 19 -453c209.333 62 332.666 181 369.999 357c10.667 52 16.667 99.333 18 142v16c0 37.333 -4 73.333 -12 108c-9.33301 40 -27.5 74.333 -54.5 103s-62.5 51 -106.5 67
c-17.333 6 -40.666 9 -69.999 9c-22 0 -47.333 -1.66699 -76 -5c-40.667 -5.33301 -70.667 -10 -90 -14z" />
    <glyph glyph-name="e" unicode="e" horiz-adv-x="761" 
d="M68 1171l28 66l-14 27l586 39l18 -80l-127 -88l121 -37l-16 -45l-299 -27l-7 -315l299 10l-34 -107l59 -24l-10 -55l-310 -31l13 -334l309 12l-20 -106l55 -25l-23 -78l-483 -28l8 104l-125 -8l13 958l-25 41l88 76z" />
    <glyph glyph-name="f" unicode="f" horiz-adv-x="790" 
d="M61 1124l41 58l-18 61l653 31l-37 -127l48 -29l-21 -51l-338 -23l-6 -301l303 7l-27 -107l62 -25l-12 -57l-328 -39l12 -522l-41 -16l-71 147l-64 -135l-24 33l-56 -17l-12 994l-43 12l90 55z" />
    <glyph glyph-name="g" unicode="g" horiz-adv-x="972" 
d="M78 666c8.66699 88.667 20.1699 163.833 34.5029 225.5s34.666 118.167 60.999 169.5s60.333 93.333 102 126s92.5 58.334 152.5 77.001c71.333 23.333 143.666 35 216.999 35c44.667 0 89.667 -4.33301 135 -13l13 -24l-109 -41l84 -78l-55 -37l28 -53
c-148.667 -10.667 -243.334 -32.667 -284.001 -66c-45.333 -36 -79 -97.667 -101 -185c-15.333 -60 -23 -122.333 -23 -187c0 -28.667 1.66699 -57.667 5 -87c9.33301 -96 34 -173 74 -231c20.667 -28 48.667 -48.333 84 -61c29.333 -10 59 -15 89 -15
c6.66699 0 13 0.333008 19 1c36.667 2.66699 71 10.667 103 24c6.66699 158 10 272.333 10 343v32l39 26l67 -123l80 119l27 8c-2 -64.667 -3 -138.667 -3 -222c0 -131.333 2.33301 -285.333 7 -462l-72 -24l-55 108l-90 -74c0 19.333 -2.66699 39.333 -8 60
c-86 -26.667 -163 -40 -231 -40c-12 0 -24 0.333008 -36 1c-76.667 6 -138 27.667 -184 65c-61.333 49.333 -110 129.666 -146 240.999c-26 81.333 -39 168.333 -39 261c0 33.333 1.66699 67 5 101z" />
    <glyph glyph-name="h" unicode="h" horiz-adv-x="1081" 
d="M96 -20l17 1267l84 -61l108 94l45 -29l31 11l-14 -555l376 26l2 551l54 -65l102 98l72 -39l28 10l-16 -1317l-20 -4l-70 103l-61 -101l-43 37l-60 -14l8 485l-374 -28l2 -459l-58 -15l-63 78l-74 -84l-39 23z" />
    <glyph glyph-name="i" unicode="i" horiz-adv-x="507" 
d="M100 -4v1274l45 16l68 -160l86 154l61 -33l58 21l-35 -1295l-25 -8l-86 123l-59 -108l-53 20z" />
    <glyph glyph-name="j" unicode="j" horiz-adv-x="768" 
d="M23 18l2 40.998l96 25l-76 106l33 41c82.667 -35.333 142 -53 178 -53c37.333 0 74.333 13 111 39s56.334 59.333 59.001 100c3.33301 60 5.33301 123 6 189c0.666992 39.333 1 80.333 1 123v87c-0.666992 74.667 -1.5 136.334 -2.5 185.001s-2.5 115.334 -4.5 200.001
l-4 167l35 -15l47 27l76 -86l73 106l31 -2c8 -184.667 12 -359.167 12 -523.5s-4 -318.833 -12 -463.5c-1.33301 -37.333 -3.5 -69.5 -6.5 -96.5s-7.66699 -54.667 -14 -83s-14.5 -52.333 -24.5 -72s-23 -38.667 -39 -57s-35 -32.833 -57 -43.5s-48.333 -19.167 -79 -25.5
s-65.334 -9.5 -104.001 -9.5c-71.333 0 -130 6.66699 -176 20s-99.667 38 -161 74z" />
    <glyph glyph-name="k" unicode="k" horiz-adv-x="921" 
d="M66 1253l32 -16l68 59l61 -122l58 135l24 -9l-14 -577l358 584l35 -9l6 -106l150 98l28 -49l48 4l-285 -463l246 -706l-60 -4l-10 -37l-98 86l-23 -129l-33 -6l-223 583l-129 -153l-6 -436l-43 -17l-82 154l-74 -140l-32 19z" />
    <glyph glyph-name="l" unicode="l" horiz-adv-x="815" 
d="M127 1227l39 -6l57 41l60 -101l106 142l33 -11l-35 -1102h338l-84 -71l115 -45l-58 -70l21 -29l-461 -34l-18 112l-109 -16z" />
    <glyph glyph-name="m" unicode="m" horiz-adv-x="1257" 
d="M76 -39l63 1335l64 27l78 -178l86 143l43 -43l36 31l185 -576h33l182 582l59 -45l80 63l70 -100l90 82l61 -1278l-39 -10l-65 110l-41 -102l-37 33l-51 -21l-45 625l-37 10l-215 -577l-37 32l-39 -16l-211 541l-33 4l-43 -635l-63 -18l-78 124l-61 -153z" />
    <glyph glyph-name="n" unicode="n" horiz-adv-x="1148" 
d="M94 1253l90 47l72 -75l90 30l418 -759h41l-12 753l53 31l92 -127l86 129l37 -6l-2 -1315l-23 -14l-73 76l-103 -72l-41 8l-413 651l-52 6l-16 -661l-59 8l-80 109l-60 -121l-35 18z" />
    <glyph glyph-name="o" unicode="o" horiz-adv-x="1052" 
d="M74 690c14 142 33.834 252.168 59.501 330.501s62.5 138.166 110.5 179.499c42.667 36 100 66 172 90c50 16.667 100.667 25.334 152 26.001c22.667 0 45 -1.66699 67 -5l-4 -119l100 61l43 -63l68 27c104.667 -108.667 157 -302 157 -580
c0 -50.667 -2.83301 -102 -8.5 -154s-14.834 -105.167 -27.501 -159.5s-31 -104 -55 -149s-52.333 -79.167 -85 -102.5c-60 -42.667 -124 -73.334 -192 -92.001c-57.333 -15.333 -110 -23.333 -158 -24c-8.66699 0 -17 0.333008 -25 1
c-54.667 3.33301 -105.667 13.666 -153 30.999c-54.667 18.667 -100.667 64.667 -138 138c-38 74 -63.667 160.333 -77 259c-8 58.667 -12 118.334 -12 179.001c0 41.333 2 83.333 6 126zM316.001 646.001c-2 -24 -2.99805 -48.3311 -2.99805 -72.998
c-0.666992 -49.333 3 -98.333 11 -147c10.667 -72 29.667 -128.667 57 -170c18 -28 46.333 -47.333 85 -58c20 -6 40 -9 60 -9c18.667 -0.666992 37.667 1.66602 57 6.99902c39.333 10.667 67.666 30 84.999 58s33.333 68 48 120c14.667 53.333 24.667 112 30 176
c3.33301 36.667 4.66602 72.667 3.99902 108c0 27.333 -0.666992 54.333 -2 81c-4 62 -17.5 119.333 -40.5 172s-54.167 91 -93.5 115c-20.667 13.333 -44.667 20 -72 20h-10c-32 -1.33301 -59 -12 -81 -32c-37.333 -33.333 -67.833 -84.333 -91.5 -153
s-38.167 -140.334 -43.5 -215.001z" />
    <glyph glyph-name="p" unicode="p" horiz-adv-x="1007" 
d="M49 1214l11.998 49.998c80 29.333 167.667 52 263 68c62.667 11.333 125.334 17 188.001 17c32 0 64 -1.66699 96 -5c94.667 -8 163.667 -32.667 207 -74c52 -51.333 88.333 -112 109 -182c14.667 -47.333 22 -94.666 22 -141.999c0 -22 -1.33301 -44 -4 -66
c-10 -69.333 -31.167 -136.833 -63.5 -202.5s-73.833 -122.167 -124.5 -169.5c-35.333 -32 -87.166 -64.167 -155.499 -96.5s-139.5 -56.166 -213.5 -71.499l-2 -356l-37 -13l-41 115l-82 -111l-53 62l-41 -25l-10 1024l-45 35l123 127zM359.998 1063l11 -481
c30.667 10.667 62 23.667 94 39c66.667 31.333 107.667 53 123 65c39.333 36 70 78 92 126c16.667 36 25 72.333 25 109c0 12 -1 24 -3 36c-7.33301 48.667 -33 86.667 -77 114c-14.667 10 -41.667 15 -81 15c-22 0 -47.667 -1.66699 -77 -5z" />
    <glyph glyph-name="q" unicode="q" horiz-adv-x="989" 
d="M55 578c0 68 2.00098 127.667 6.00098 179s12 105.5 24 162.5s30.5 109.333 55.5 157s56.833 90.834 95.5 129.501c38 38 91 64.667 159 80c47.333 11.333 93 17 137 17c20 0 39.667 -1 59 -3c62.667 -7.33301 110.667 -22.333 144 -45c70 -46 123 -117.5 159 -214.5
s54 -197.5 54 -301.5v-159c-2 -60.667 -7.33301 -112.667 -16 -156c-10 -54 -27.333 -105.333 -52 -154s-63.334 -102.334 -116.001 -161.001c38 -43.333 78.333 -86.333 121 -129l-27 -29l-86 37l-10 -74l-45 -4c-1.33301 1.33301 -31.333 37.333 -90 108
c-46 -14 -91.667 -23.333 -137 -28c-12.667 -0.666992 -25 -1 -37 -1c-34.667 0 -70.667 4.33301 -108 13c-50.667 12 -94.667 33.333 -132 64c-48 38 -86.333 109 -115 213s-43 203.667 -43 299zM297.001 635c-0.666992 -12.667 -1 -25.6689 -1 -39.002
c0 -64 7 -126.667 21 -188c16.667 -73.333 44 -126.666 82 -159.999c8 -8 30 -12 66 -12c20.667 0 37 0.666992 49 2l-51 116l53 -26l37 61c41.333 -41.333 68.666 -68 81.999 -80c40.667 62 65.334 123 74.001 183c5.33301 36.667 8 80.334 8 131.001
c0 166 -20.667 277.667 -62 335c-20 24 -48.333 42 -85 54c-19.333 6 -39 9 -59 9c-17.333 0 -35 -2.33301 -53 -7c-38 -10 -67 -32 -87 -66c-44 -78.667 -68.667 -183 -74 -313z" />
    <glyph glyph-name="r" unicode="r" horiz-adv-x="1054" 
d="M63 1217l6.99707 38.001c100.667 32.667 200.667 55.334 300 68.001c52.667 6.66699 103.667 10 153 10c44.667 0 88 -2.66699 130 -8c89.333 -11.333 162.333 -35.333 219 -72c82.667 -52 129.334 -129 140.001 -231c1.33301 -13.333 2.33301 -27 3 -41
c0 -90.667 -31 -187.667 -93 -291c-15.333 -26.667 -41.666 -62.334 -78.999 -107.001s-72.666 -80.667 -105.999 -108c64 -154 131 -300.667 201 -440l-14 -15l-119 66l-6 -102l-41 18l-37 -25l-248 383l-129 -51l-10 -307l-33 4l-68 107l-53 -138l-37 15
c0 3.33301 -2.33301 59 -7 167s-8 195.833 -10 263.5s-3 153.167 -3 256.5s2.66699 189.666 8 258.999l6 80l-65 47l108 98zM357.997 573.001c51.333 20 101.999 45.833 151.999 77.5s95 67.5 135 107.5c40.667 39.333 68.334 79.666 83.001 120.999
c6.66699 18.667 10 37.334 10 56.001c0 22 -5 44 -15 66c-19.333 33.333 -78 50 -176 50h-23c-44 -2 -98 -8.33301 -162 -19z" />
    <glyph glyph-name="s" unicode="s" horiz-adv-x="931" 
d="M61 799c5.33301 67.333 26.3271 130.502 62.9941 189.502s83.334 109 140.001 150s119.5 74.667 188.5 101s140.167 43.833 213.5 52.5c10.667 1.33301 27.334 2 50.001 2s51.667 -0.666992 87 -2l8 -26l-133 -74l106 -51l-45 -43l31 -58
c-52 -4 -100.667 -10.833 -146 -20.5s-87.666 -22.5 -126.999 -38.5s-71.666 -36.167 -96.999 -60.5s-40.666 -51.833 -45.999 -82.5c-1.33301 -6.66699 -2 -13.334 -2 -20.001c0 -49.333 37 -91.333 111 -126c35.333 -14.667 70 -27 104 -37l86 -24
c70 -22 122.333 -51.667 157 -89s52 -89 52 -155c0 -74 -20.333 -139.167 -61 -195.5s-103.667 -106.5 -189 -150.5c-108 -52 -234.333 -85.333 -379 -100l35 65l-94 27l41 61l-35 37c63.333 13.333 117.333 26.333 162 39c28 9.33301 54.333 19.666 79 30.999
s48.667 24.833 72 40.5s41.833 33.667 55.5 54s20.5 41.833 20.5 64.5c0 46 -45 84.333 -135 115c-25.333 8.66699 -59.666 18.667 -102.999 30s-70.333 19 -81 23c-65.333 26 -114.333 60.333 -147 103c-28.667 37.333 -43 85 -43 143c0 8 0.333008 16.333 1 25z" />
    <glyph glyph-name="t" unicode="t" horiz-adv-x="927" 
d="M41 1176l10 36l809 58l-33 -51l58 -60l-99 -63l99 -43l-8 -35l-267 -19l-14 -1019l-31 -9l-67 146l-47 -125l-50 51l-59 -37l-10 981l-248 -16l10 37l-35 28l115 86z" />
    <glyph glyph-name="u" unicode="u" horiz-adv-x="1054" 
d="M68 494c0 167.333 2.66406 302.668 7.99707 406.001s17 223.333 35 360l67 -27l80 61l76 -47l28 10c-10.667 -108.667 -20.667 -240 -30 -394c-6 -101.333 -8.66699 -186.666 -8 -255.999c0 -36 0.666992 -67.667 2 -95
c6.66699 -129.333 41.334 -210.666 104.001 -243.999c20.667 -11.333 44.334 -17 71.001 -17c52.667 0 117 22.667 193 68c26 60 39 230 39 510c3.33301 278 6 438.667 8 482l56 14l69 -139l90 131l48 2c-8 -290 -12 -563.333 -12 -820
c0 -166.667 1.66699 -326.334 5 -479.001l-51 17l-69 -60l-76 50l-60 -29c-2 12 -10.667 39.333 -26 82c-55.333 -24 -116 -43.333 -182 -58c-59.333 -12.667 -116.333 -19 -171 -19c-6.66699 0.666992 -12.667 1 -18 1c-60 1.33301 -104.333 12.333 -133 33
c-32 22.667 -58.5 55.667 -79.5 99s-35.667 90.666 -44 141.999s-13.666 92.666 -15.999 123.999s-3.5 62 -3.5 92z" />
    <glyph glyph-name="v" unicode="v" horiz-adv-x="1054" 
d="M33 1286l33 14l92 -167l37 147l59 -41l45 57l190 -1001l37 10l248 985l35 -16l61 35l54 -148l114 125l13 -10l-369 -1307l-45 4l-57 80l-95 -88l-34 6l-86 117l-48 -100l-30 12z" />
    <glyph glyph-name="w" unicode="w" horiz-adv-x="1320" 
d="M23 1270l38 6l80 -90l62 82l55 -6l100 -644h37l178 668l23 4l86 -141l92 131l10 -8l142 -651l47 2l129 647l28 4l31 -133l127 159l37 -4l-235 -1288l-31 17l-84 -50l-70 60l-71 -33l-170 660h-37l-197 -685l-68 -22l-79 133l-66 -125l-27 8z" />
    <glyph glyph-name="x" unicode="x" horiz-adv-x="872" 
d="M49 1264l29 18l106 -80l4 90l23 -10l53 23l189 -431l196 451l51 -12l15 -142l102 101l29 -10l-238 -607l254 -626l-69 12l-9 -47l-112 59l-37 -49l-189 410l-184 -451h-59l-19 94l-104 -59l-19 10l234 590z" />
    <glyph glyph-name="y" unicode="y" horiz-adv-x="940" 
d="M33 1253l37 37l110 -84l6 121l78 10l223 -516l33 -4l125 504l31 6l41 -117l84 99l26 -35l76 26l-336 -1275l-37 -21l-43 92l-94 -92l-45 31l-24 -8l125 561l-109 4z" />
    <glyph glyph-name="z" unicode="z" horiz-adv-x="839" 
d="M74 1135l82 75l-80 54l10 28l686 33l19 -49l-58 -57l62 -58l-383 -928l364 -10l2 -41l-100 -88l88 -28l-37 -33l10 -29l-557 -24l2 77l-100 21l385 1007l-381 -8z" />
    <glyph glyph-name="braceleft" unicode="{" horiz-adv-x="780" 
d="M84 756c48.667 43.333 95.1699 90.6689 139.503 142.002s70.166 95.333 77.499 132c6.66699 32.667 4.66699 75.667 -6 129c-3.33301 14.667 -8.83301 35 -16.5 61s-12.5 43.333 -14.5 52c-7.33301 28.667 -11.833 52 -13.5 70s1 39.333 8 64s20.5 49 40.5 73
c28 34 73 66.667 135 98s121.333 54.666 178 69.999l6 -2l-36 -72h84l-9 -33l19 -18c-82.667 -46 -129.667 -102.667 -141 -170c0 -1.33301 -0.166992 -3.33301 -0.5 -6s-0.5 -5.83398 -0.5 -9.50098s0.333008 -7.5 1 -11.5l6 -43
c0.666992 -9.33301 3.33398 -29.833 8.00098 -61.5s8.5 -59 11.5 -82s5.33301 -49.833 7 -80.5s0.166992 -49.667 -4.5 -57c-19.333 -53.333 -51.333 -106.333 -96 -159l-43 -43c-12.667 -10.667 -30.334 -32.667 -53.001 -66c34 -21.333 61.833 -43 83.5 -65
s37.167 -44.667 46.5 -68s15.333 -45 18 -65s3 -43.333 1 -70c-0.666992 -13.333 -2.33398 -32.166 -5.00098 -56.499s-4.33398 -43.166 -5.00098 -56.499c-2 -42.667 1.33301 -81.334 10 -116.001c24 -76.667 92.333 -130 205 -160l-2 -23l-53 2v-78l-66 -6l-2 -55
c-102.667 5.33301 -184 42.333 -244 111c-38.667 44.667 -65.5 100.5 -80.5 167.5s-18.833 138.833 -11.5 215.5c4 36.667 0 74.167 -12 112.5s-29 72.666 -51 102.999s-42.667 55.833 -62 76.5s-38.333 38.667 -57 54z" />
    <glyph glyph-name="bar" unicode="|" horiz-adv-x="534" 
d="M122 1357.5c-3.33301 27 0.999023 52.5 12.999 76.5c92.667 146 180.667 188.333 264 127c14 -10.667 23 -32.5 27 -65.5s1.5 -67 -7.5 -102s-23.5 -59.833 -43.5 -74.5c-23.333 -16 -52.833 -27.833 -88.5 -35.5s-66.667 -11 -93 -10s-41.833 4.5 -46.5 10.5
c-13.333 22 -21.666 46.5 -24.999 73.5zM122.999 1001l65 -30l91 84l55 -56l72 39l6 -985l-50 21l-65 -31l-39 86l-106 -111l-23 15z" />
    <glyph glyph-name="braceright" unicode="}" horiz-adv-x="780" 
d="M70 1507l1.99902 23.001l53 -2v78l65 6l3 55c102 -5.33301 183 -42.333 243 -111c38.667 -44.667 65.5 -100.334 80.5 -167.001s18.833 -138.334 11.5 -215.001c-4 -36.667 0.166992 -74.167 12.5 -112.5s29.333 -72.833 51 -103.5s42.334 -56.334 62.001 -77.001
s38.834 -38.667 57.501 -54c-48.667 -43.333 -95.167 -90.666 -139.5 -141.999s-70.166 -95.333 -77.499 -132c-10 -32.667 -8 -75.667 6 -129c2.66699 -15.333 8 -36.833 16 -64.5l14 -48.5c7.33301 -29.333 12 -52.833 14 -70.5s-0.5 -38.834 -7.5 -63.501
s-20.5 -49 -40.5 -73c-26.667 -34.667 -70.834 -67.167 -132.501 -97.5s-122.167 -53.5 -181.5 -69.5l-6 2l37 71h-84l8 33l-18 18c82.667 46 129.667 102.667 141 170v27l-6 43c-28.667 156.667 -36.334 250.334 -23.001 281.001c16.667 49.333 49 102.333 97 159
c20 22.667 34.333 37 43 43c23.333 26.667 41 48.667 53 66c-64.667 40 -106.667 81 -126 123s-27.333 90.333 -24 145c0.666992 13.333 2.5 32.333 5.5 57s4.83301 43.334 5.5 56.001c2 41.333 -1.66699 80.333 -11 117c-23.333 76 -91.333 129 -204 159z" />
    <glyph glyph-name="asciitilde" unicode="~" horiz-adv-x="1310" 
d="M115 1225l45 81.999c32 55.333 63.833 98.166 95.5 128.499s73.5 50.833 125.5 61.5c36 8.66699 69.667 11.167 101 7.5s56.833 -9.5 76.5 -17.5s40.5 -19.667 62.5 -35c12 -8 28.667 -20.167 50 -36.5s37.333 -28.166 48 -35.499
c55.333 -35.333 97.666 -57.666 126.999 -66.999c17.333 -4 32.666 -6.5 45.999 -7.5s27.333 2 42 9s27.334 14.167 38.001 21.5s22 17.333 34 30s22.167 24.167 30.5 34.5s17.166 22.166 26.499 35.499c4.66699 6.66699 11.5 17.5 20.5 32.5s15.833 25.833 20.5 32.5
c3.33301 0 8.5 -0.333008 15.5 -1s12.167 -1 15.5 -1l-7 -72h64l-4 -67l37 -21c-55.333 -113.333 -104.666 -191.666 -147.999 -234.999c-42.667 -42.667 -93 -69.667 -151 -81s-112.667 -7.66602 -164 11.001c-7.33301 2.66699 -31.333 15.667 -72 39
c-9.33301 5.33301 -19 11.666 -29 18.999l-34 26l-29 23c-80.667 60.667 -147 94 -199 100c-21.333 0 -58.666 -33.333 -111.999 -100c-6.66699 -8 -15.5 -19.667 -26.5 -35l-22.5 -31l-13 -16l-22 4l26 72h-84l17 51c-5.33301 5.33301 -13.5 12.333 -24.5 21z" />
    <glyph glyph-name="uni00A0" unicode="&#xa0;" horiz-adv-x="690" 
 />
    <glyph glyph-name="exclamdown" unicode="&#xa1;" horiz-adv-x="688" 
d="M14 39l324 1057l39 20l31 -98l90 51l-70 -1053l-35 -14l-49 178l-154 -213l-53 137zM324 1436c-5.33301 28.667 -4.49902 56.8311 2.50098 84.498s18.833 49.167 35.5 64.5c18.667 17.333 49.667 26.333 93 27s84.666 -6.16602 123.999 -20.499
s63.333 -32.166 72 -53.499c8 -25.333 9.16699 -51.5 3.5 -78.5s-15.5 -47.167 -29.5 -60.5c-24 -20.667 -59.833 -32 -107.5 -34s-91 4.16699 -130 18.5s-60.167 31.833 -63.5 52.5z" />
    <glyph glyph-name="cent" unicode="&#xa2;" horiz-adv-x="868" 
d="M47 786c0 30 2.33398 62.6689 7.00098 98.002s14.334 77.166 29.001 125.499s33.5 92.833 56.5 133.5s55.333 79.167 97 115.5s89.167 62.5 142.5 78.5l12 201l94 -49l97 90l-31 -213c59.333 0 129.666 -7.66699 210.999 -23c2.66699 -8 6.66699 -14.667 12 -20l-143 -41
l100 -47l-41 -37l17 -41c-3.33301 0 -14 -0.833008 -32 -2.5l-37.5 -3.5l-35.5 -3.5c-16.667 -1.66699 -29.834 -3.33398 -39.501 -5.00098l-34 -6c-13 -2.33301 -24.5 -5 -34.5 -8s-19 -6.5 -27 -10.5c-32.667 -14.667 -60.334 -45.5 -83.001 -92.5s-38 -92.333 -46 -136
s-12 -82.834 -12 -117.501c0 -54.667 8.16699 -110.167 24.5 -166.5s45.5 -98.5 87.5 -126.5c40.667 -27.333 142.334 -41 305.001 -41l-14 -18l41 -39l-106 -47l116 -35l-8 -18c-78 -15.333 -154.333 -25.666 -229 -30.999l-23 -207l-47 37l-98 -39l-15 217
c-42.667 8 -65.667 12.667 -69 14c-40 14 -75.167 35.5 -105.5 64.5s-54 60.667 -71 95s-30.833 73.333 -41.5 117s-17.667 84 -21 121s-5 75.833 -5 116.5z" />
    <glyph glyph-name="sterling" unicode="&#xa3;" horiz-adv-x="974" 
d="M55 125l223.997 445.997l-136 -14l29 82l-53 35l106 98l-98 31l25 80l110 -2c-59.333 101.333 -86.333 197.833 -81 289.5s32.333 172 81 241s109.334 116.5 182.001 142.5c42.667 14.667 86.5 25.334 131.5 32.001s97 7.33398 156 2.00098s114.833 -19.333 167.5 -42
l6 -39l-127 -69l111 -107l-70 -35l39 -67c-158.667 46.667 -276 34.334 -352 -36.999c-31.333 -26.667 -41.166 -71.667 -29.499 -135s41.834 -124.333 90.501 -183l221 -2l15 -65l-86 -66l110 -51l-41 -57l-172 -21l-184 -358l449 6l-33 -65l35 -33l-117 -53l137 -62
l-14 -29l-672 -45l10 88l-100 -18l10 94z" />
    <glyph glyph-name="yen" unicode="&#xa5;" horiz-adv-x="1079" 
d="M35 1511l65 11l17 32l114 -98v158l50 2l280 -629l262 651l47 9l-10 -168l146 127l22 -27h49l-272 -641l121 4l4 -37l-92 -86l90 -78l-19 -30l-207 -17l3 -239l229 10l43 -62l-119 -57l41 -104l-192 -17v-213l-56 13l-41 -37l-84 121l-73 -144l-35 4l-6 230l-250 -25
l12 57l-41 41l129 58l-82 102l226 10l-7 215l-4 15l-198 -15l39 58l-95 61l49 51l-10 97l105 2z" />
    <glyph glyph-name="section" unicode="&#xa7;" horiz-adv-x="1073" 
d="M63 735c8 84.667 50.3311 165.336 126.998 242.003c-46 25.333 -79.667 53.333 -101 84s-30 67.334 -26 110.001c5.33301 62 29.5 120.167 72.5 174.5s97.833 100.333 164.5 138s139.667 68.667 219 93s160.333 40.833 243 49.5c24 4 76 4 156 0l10 -22l-152 -70l119 -47
l-49 -39l33 -53c-120 -8.66699 -219.833 -28.334 -299.5 -59.001s-126.167 -73.334 -139.5 -128.001c-12.667 -61.333 23 -108.333 107 -141c26.667 -10.667 94.334 -30.334 203.001 -59.001c84.667 -22.667 148.834 -49.5 192.501 -80.5s65.5 -75.167 65.5 -132.5
c0 -92 -56.667 -176 -170 -252c57.333 -22.667 100 -48.5 128 -77.5s42 -65.5 42 -109.5c0 -129.333 -101 -235 -303 -317c-124 -50.667 -265.333 -82 -424 -94l38 59l-104 25l45 57l-39 33c66 9.33301 126 21 180 35c63.333 14.667 117.5 38 162.5 70s67.5 68 67.5 108
c0 24.667 -12.167 45.334 -36.5 62.001s-58.5 32.667 -102.5 48c-26.667 9.33301 -62.834 19.833 -108.501 31.5s-73.834 19.167 -84.501 22.5c-38.667 13.333 -71.5 26.666 -98.5 39.999s-52.167 29.333 -75.5 48s-40.166 40.667 -50.499 66s-14.166 53.666 -11.499 84.999
zM439.998 770.002c-12.667 -53.333 15.332 -97.001 83.999 -131.001c71.333 39.333 107 83 107 131c0 21.333 -9.66699 39.5 -29 54.5s-46.666 30.167 -81.999 45.5c-46 -31.333 -72.667 -64.666 -80 -99.999z" />
    <glyph glyph-name="dieresis" unicode="&#xa8;" horiz-adv-x="909" 
d="M104.5 1284c-2.33301 28 -0.167969 62.001 6.49902 102.001c5.33301 36.667 22 68.5 50 95.5s59.5 42.667 94.5 47s69.833 -3.5 104.5 -23.5c10.667 -6.66699 17.834 -27 21.501 -61s1.16699 -70.833 -7.5 -110.5s-23.334 -67.834 -44.001 -84.501
c-29.333 -24.667 -65 -41.167 -107 -49.5s-70.667 -4.83301 -86 10.5c-19.333 21.333 -30.166 46 -32.499 74zM513.998 1295c-3.33301 27.333 -0.665039 60.666 8.00195 99.999c5.33301 36.667 22 68.667 50 96s59.5 43.333 94.5 48s70.167 -3 105.5 -23
c10.667 -6.66699 17.667 -27.167 21 -61.5s0.666016 -71.166 -8.00098 -110.499s-23.334 -67.333 -44.001 -84c-29.333 -24.667 -64.833 -41.167 -106.5 -49.5s-70.167 -4.83301 -85.5 10.5c-20 22 -31.667 46.667 -35 74z" />
    <glyph glyph-name="copyright" unicode="&#xa9;" horiz-adv-x="1105" 
d="M77 921.5c9.33301 147.667 32.0039 267.828 68.0039 360.495c20.667 54 52.667 99.833 96 137.5s90.5 64.5 141.5 80.5s105 24.667 162 26s110.333 -4.5 160 -17.5s94 -32.667 133 -59s66.5 -56.833 82.5 -91.5c25.333 -59.333 49 -148 71 -266s33 -248 33 -390
c0 -59.333 -7.33301 -133.666 -22 -222.999s-38.834 -179.666 -72.501 -270.999s-71.834 -149.666 -114.501 -174.999c-57.333 -33.333 -145.833 -53.666 -265.5 -60.999s-207.167 3.33398 -262.5 32.001c-43.333 23.333 -77 52.166 -101 86.499s-45 82.833 -63 145.5
c-18.667 68 -33.334 162.333 -44.001 283s-11.334 254.834 -2.00098 402.501zM215.004 616.494c10.667 -163 32.667 -296.832 66 -401.499c33.333 -38.667 85.166 -65.334 155.499 -80.001s141.166 -12.334 212.499 6.99902s122 54.666 152 105.999
c30.667 55.333 53.334 135.666 68.001 240.999s20.167 213.333 16.5 324s-20 216.167 -49 316.5s-68.833 170.833 -119.5 211.5c-26 20.667 -60.333 33.334 -103 38.001s-82.667 3.33398 -120 -3.99902s-66.666 -18 -87.999 -32c-44 -27.333 -81 -65.166 -111 -113.499
s-49.667 -98.5 -59 -150.5c-24.667 -145.333 -31.667 -299.5 -21 -462.5zM354.504 541.995c-13 126.667 -9.16602 253.495 11.501 380.495s51.667 205.833 93 236.5c63.333 48 146 46 248 -6l2 -33l-43 -41c2 -3.33301 4.33301 -8.66602 7 -15.999s5 -12.666 7 -15.999
c-29.333 5.33301 -57.833 2.83301 -85.5 -7.5s-46.834 -27.833 -57.501 -52.5c-26 -55.333 -42 -134.5 -48 -237.5s-0.333008 -182.167 17 -237.5c18 -72 55.333 -100.667 112 -86c10.667 2.66699 25 8.66699 43 18s31.667 15.666 41 18.999l5 -6l-78 -95
c8.66699 -4 19.667 -9.66699 33 -17s21.333 -11.666 24 -12.999c-37.333 -25.333 -79.5 -40.666 -126.5 -45.999s-86.833 2.33398 -119.5 23.001c-44 28.667 -72.5 106.334 -85.5 233.001z" />
    <glyph glyph-name="ordfeminine" unicode="&#xaa;" horiz-adv-x="1017" 
d="M86 23l107 79l-39 103l804 39l23 -76l-84 -80l33 -72l-813 -67zM92 395l238 1186l73 -22l68 61l102 -131l58 117l63 -41l60 37l217 -1213l-41 29l-68 -41l-53 69l-49 -53l-68 260l-344 -28l-67 -263l-19 -6l-57 76l-76 -61zM393 844l264 24l-92 430l-78 -6z" />
    <glyph glyph-name="guillemotleft" unicode="&#xab;" horiz-adv-x="1282" 
d="M53 739l355 613l53 18l78 -45l96 45l45 -31l14 2l-344 -559l387 -594l-10 -6l-100 33l-90 -70l-54 2zM565 739l355 613l53 18l78 -45l96 45l45 -31l14 2l-344 -559l387 -594l-10 -6l-100 33l-90 -70l-54 2z" />
    <glyph glyph-name="logicalnot" unicode="&#xac;" horiz-adv-x="1484" 
d="M55 676l142 106l-101 60l41 57l-6 39l1190 -4l-16 -109l112 -18l-35 -461l-28 21l-70 -58l-45 115l-72 -84v338l-1101 -35z" />
    <glyph glyph-name="uni00AD" unicode="&#xad;" horiz-adv-x="620" 
d="M92 756l49 39l-35 79l422 33l-67 -41l82 -116l-115 -74l45 -68l-362 -69l-15 30l97 78z" />
    <glyph glyph-name="registered" unicode="&#xae;" horiz-adv-x="1105" 
d="M77 921.5c9.33301 147.667 32.002 267.831 68.002 360.498c20.667 54 52.667 99.833 96 137.5s90.5 64.5 141.5 80.5s105 24.667 162 26s110.333 -4.5 160 -17.5s94 -32.667 133 -59s66.5 -56.833 82.5 -91.5c25.333 -59.333 49 -148 71 -266s33 -248 33 -390
c0 -57.333 -7.16699 -130.833 -21.5 -220.5s-38.333 -181 -72 -274s-72.167 -151.167 -115.5 -174.5c-57.333 -33.333 -145.833 -53.666 -265.5 -60.999s-207.167 3.33398 -262.5 32.001c-43.333 23.333 -77 52.166 -101 86.499s-45 82.833 -63 145.5
c-18.667 68 -33.334 162.333 -44.001 283s-11.334 254.834 -2.00098 402.501zM215.002 616.497c10.667 -163 32.666 -296.836 65.999 -401.503c32 -38.667 82 -64.334 150 -77.001s138 -9.5 210 9.5s128 51.167 168 96.5c28 70 48.667 158.833 62 266.5
s18 215.334 14 323.001s-20.5 209 -49.5 304s-68.5 162.833 -118.5 203.5c-26 20.667 -60.333 33.334 -103 38.001s-82.667 3.33398 -120 -3.99902s-66.666 -18 -87.999 -32c-44 -27.333 -81 -65.166 -111 -113.499s-49.667 -98.5 -59 -150.5
c-24.667 -145.333 -31.667 -299.5 -21 -462.5zM369.001 1134.99c28.667 13.333 68 23.168 118 29.501s98.333 5.16602 145 -3.50098s75 -25.667 85 -51c41.333 -95.333 53.666 -171.666 36.999 -228.999c-12 -42.667 -29.333 -85 -52 -127c-6.66699 -12 -13 -24.667 -19 -38
l-14 -31.5c-3.33301 -7.66699 -5.66602 -12.5 -6.99902 -14.5l38 -101l35 -90.5l37 -95.5l-22 -33l-62 23l-29 -35l-92 266l-84 -22v-289l-45 55l-51 -18c-4.66699 107.333 -9.5 267.666 -14.5 480.999s-6.16699 321.333 -3.5 324zM479.001 812.996
c0 -60.667 26.668 -85.332 80.001 -73.999c25.333 7.33301 45.666 41.666 60.999 102.999s21 108.333 17 141c-1.33301 12.667 -6.5 25.834 -15.5 39.501s-19.833 24.667 -32.5 33s-27.167 9.16602 -43.5 2.49902s-31.5 -22 -45.5 -46c-10 -16 -16.333 -49.667 -19 -101
c-1.33301 -26 -2 -58.667 -2 -98z" />
    <glyph glyph-name="degree" unicode="&#xb0;" horiz-adv-x="722" 
d="M74 1004c-21.333 237.333 21 411.332 127 521.999c30.667 32.667 75 52.834 133 60.501s114.167 2 168.5 -17s90.833 -47.833 109.5 -86.5c8.66699 -18 17.167 -38.5 25.5 -61.5s16.333 -56 24 -99s11 -86.167 10 -129.5s-9.33301 -93.333 -25 -150
s-39.5 -111.334 -71.5 -164.001c-25.333 -42.667 -58.5 -75.5 -99.5 -98.5s-83.333 -34.167 -127 -33.5s-85.5 9.83398 -125.5 27.501s-73.667 46.667 -101 87s-43.333 87.833 -48 142.5zM252 1141c-2.66699 -68.667 2.66699 -121.998 16 -159.998
c12.667 -42.667 31.167 -68.167 55.5 -76.5s50.833 3.5 79.5 35.5c22 24.667 38.167 64 48.5 118s14.833 107 13.5 159s-6.66602 93.333 -15.999 124c-7.33301 26 -21.5 44.833 -42.5 56.5s-44.5 11.5 -70.5 -0.5c-26.667 -12.667 -47.334 -44.334 -62.001 -95.001
s-22 -104.334 -22 -161.001z" />
    <glyph glyph-name="plusminus" unicode="&#xb1;" horiz-adv-x="1015" 
d="M86 78l100 94l-36 121l761 45l21 -90l-80 -94l31 -84l-768 -80zM125 877l82 69l-37 137l231 21l2 291l111 6l66 72l63 -5v-354l252 19l4 -35l-72 -99l70 -71l-6 -39l-252 -58l-18 -327h-111l-88 8l-14 291l-271 -17z" />
    <glyph glyph-name="acute" unicode="&#xb4;" horiz-adv-x="555" 
d="M63 1266l230 352l47 4l-14 -82l123 10l-13 -49l43 -18l-272 -242l-49 49l-72 -45z" />
    <glyph glyph-name="uni00B5" unicode="&#xb5;" horiz-adv-x="1054" 
d="M68 803c0 166 2.66797 300.831 8.00098 404.498s17 223.5 35 359.5l67 -27l80 62l76 -48l28 11c-10.667 -111.333 -20.5 -243 -29.5 -395s-11.167 -268.333 -6.5 -349c7.33301 -128.667 42.166 -209.667 104.499 -243s150.166 -15.666 263.499 53.001
c26 60 39 229.333 39 508c3.33301 276 6 435.667 8 479l56 14l69 -139l90 131l48 2c-13.333 -479.333 -15.666 -910.666 -6.99902 -1294l-51 16l-69 -59l-76 49l-60 -29c-2 12 -10.667 39.333 -26 82c-64 -26 -132.833 -46 -206.5 -60s-141.5 -18.667 -203.5 -14l-8 -346
l-16 -6l-74 125l-47 -108l-43 18l-47 -4c2.66699 53.333 3 191.333 1 414s-3 353.667 -3 393z" />
    <glyph glyph-name="paragraph" unicode="&#xb6;" horiz-adv-x="1306" 
d="M55 1183c6 64 23.333 126.665 52 187.998s67.334 111.666 116.001 150.999c45.333 35.333 131.833 59.833 259.5 73.5s264 14.334 409 2.00098s263.5 -36.166 355.5 -71.499l13 -60l-175 -18l121 -111l-55 -30l51 -78c3.33301 -138 2.16602 -366.833 -3.50098 -686.5
s-8.5 -489.5 -8.5 -509.5l-33 -27l-84 174l-104 -215l-45 23c0 168.667 -5 326.334 -15 473.001c-22.667 5.33301 -60 15.666 -112 30.999v-517l-54 -16l-65 164l-60 -162l-55 76l-67 -39l-9 569c-80.667 31.333 -153.167 70.333 -217.5 117s-112.5 95 -144.5 145
c-28.667 46.667 -49 101.334 -61 164.001s-15 126 -9 190zM328 1139c-4 -32.667 -0.833008 -64 9.5 -94s24 -57.833 41 -83.5s36.167 -48.5 57.5 -68.5c2 -2 17.667 -9.66699 47 -23l-6 424c-54 -16 -91.333 -37.667 -112 -65s-33 -57.333 -37 -90zM795 779.998
c38.667 -7.33301 80.999 -14.667 126.999 -22v226.5c0 121 -1.33301 211.833 -4 272.5c-23.333 8.66699 -40.666 13.667 -51.999 15l-71 12v-504z" />
    <glyph glyph-name="periodcentered" unicode="&#xb7;" horiz-adv-x="471" 
d="M86 706.5c-3.33301 31 -0.667969 68.501 7.99902 112.501c5.33301 40.667 23.833 76 55.5 106s67.167 47.5 106.5 52.5s78.333 -3.5 117 -25.5c12 -8 19.833 -30.833 23.5 -68.5s0.5 -78.334 -9.5 -122.001s-26.333 -74.834 -49 -93.501
c-34 -27.333 -73.667 -45.666 -119 -54.999s-76.666 -5.33301 -93.999 12c-22.667 23.333 -35.667 50.5 -39 81.5z" />
    <glyph glyph-name="cedilla" unicode="&#xb8;" horiz-adv-x="768" 
d="M145 -68l23.001 50.001c84.667 -18 144 -23 178 -15c34.667 8 61.167 27 79.5 57s25.166 65.667 20.499 107l226 59c20.667 -116 19.5 -207.667 -3.5 -275s-69.833 -115.333 -140.5 -144c-66.667 -28.667 -128 -43.834 -184 -45.501s-116 8.5 -180 30.5l-8 41l90 45z" />
    <glyph glyph-name="ordmasculine" unicode="&#xba;" horiz-adv-x="1052" 
d="M84 1032c12.667 133.333 31.6689 237 57.002 311s62.333 130.667 111 170c44.667 34 102 62.667 172 86s141.667 29.666 215 18.999l-4 -113l98 60l43 -62l68 27c103.333 -103.333 155 -285.666 155 -546.999c0 -48 -2.83301 -96.5 -8.5 -145.5
s-14.834 -99.167 -27.501 -150.5s-30.834 -98 -54.501 -140s-51.5 -74 -83.5 -96c-60 -41.333 -123.667 -70.5 -191 -87.5s-127.333 -24 -180 -21s-103 12.5 -151 28.5c-54.667 17.333 -100.5 60.833 -137.5 130.5s-62.167 151 -75.5 244s-15.333 188.5 -6 286.5zM86.002 23
l107 79l-39 103l804 39l23 -76l-84 -80l33 -72l-813 -67zM323.502 847c7.66699 -95.333 28.833 -169.997 63.5 -223.997c17.333 -26 45.333 -44.167 84 -54.5s77.5 -10.5 116.5 -0.5s67.167 28.333 84.5 55c22 32.667 40.5 83.167 55.5 151.5s23.833 140.166 26.5 215.499
s-7.33301 147.5 -30 216.5s-58 116.833 -106 143.5c-22.667 13.333 -49.5 19.166 -80.5 17.499s-57.833 -11.834 -80.5 -30.501c-49.333 -44 -85.833 -112.833 -109.5 -206.5s-31.667 -188.167 -24 -283.5z" />
    <glyph glyph-name="guillemotright" unicode="&#xbb;" horiz-adv-x="1275" 
d="M59 1360l9 6l100 -33l92 70l51 -4l430 -592l-354 -610l-53 -21l-78 47l-94 -45l-47 29l-15 -2l344 561zM571 1360l9 6l100 -33l92 70l51 -4l430 -592l-354 -610l-53 -21l-78 47l-94 -45l-47 29l-15 -2l344 561z" />
    <glyph glyph-name="questiondown" unicode="&#xbf;" horiz-adv-x="1024" 
d="M81 361c-4 46.667 -1.67188 93.666 6.99512 140.999c7.33301 34 22 66.333 44 97s46.833 57.5 74.5 80.5s63.167 46.333 106.5 70s83.833 43.667 121.5 60s83.834 35.166 138.501 56.499c14.667 43.333 26.334 87 35.001 131c2.66699 12.667 5.33398 29.667 8.00098 51
s5 36 7 44l30 26l86 -78l33 105l27 -4c0.666992 -4.66699 3.16699 -21.167 7.5 -49.5s7.83301 -52.333 10.5 -72l9.5 -73.5c3.66699 -29.333 6.5 -57.333 8.5 -84s3 -51.334 3 -74.001c-15.333 -8.66699 -45 -23.834 -89 -45.501l-104 -52.5
c-114.667 -66 -180 -126.667 -196 -182c-12 -39.333 -14.167 -75.833 -6.5 -109.5s22 -63.167 43 -88.5s46.667 -45.5 77 -60.5s61.833 -23.833 94.5 -26.5c94 -9.33301 187.667 -6 281 10l-80 -83l96 -50l-49 -43l10 -14l23 -29c-161.333 -48 -321 -61 -479 -39
c-52 6.66699 -100.667 21.834 -146 45.501s-83.666 52.834 -114.999 87.501s-57.666 73.834 -78.999 117.501s-34 88.834 -38 135.501zM567.995 1492c-1.33301 16.667 3.00293 35 13.0029 55s26 37.333 48 52c18.667 12 46.167 21.167 82.5 27.5s69.833 9 100.5 8
s50 -4.5 58 -10.5c18.667 -13.333 29.667 -30 33 -50s-3.83398 -42.667 -21.501 -68s-45.834 -49.333 -84.501 -72c-18.667 -10 -53.334 -16.667 -104.001 -20s-81.667 -1 -93 7c-8 4 -15 12.667 -21 26s-9.66699 28.333 -11 45z" />
    <glyph glyph-name="Agrave" unicode="&#xc0;" horiz-adv-x="1191" 
d="M20 -23l324 1444l41 21l80 -82l133 104l135 -149l86 131h12l349 -1436l-37 -16l-105 125l-37 -107l-75 43l-41 -37l-78 215l-477 -4l-60 -243l-53 26l-35 -28l-39 104l-98 -125zM211 1757l55 39l135 -55l35 135l37 -4l223 -311l-26 -15l-74 31l-64 -70zM389 451l395 24
l-155 590l-82 12z" />
    <glyph glyph-name="Aacute" unicode="&#xc1;" horiz-adv-x="1191" 
d="M20 -23l324 1444l41 21l80 -82l133 104l135 -149l86 131h12l349 -1436l-37 -16l-105 125l-37 -107l-75 43l-41 -37l-78 215l-477 -4l-60 -243l-53 26l-35 -28l-39 104l-98 -125zM389 451l395 24l-155 590l-82 12zM506 1559l229 352l47 4l-14 -82l123 10l-12 -49l43 -18
l-273 -242l-49 49l-72 -45z" />
    <glyph glyph-name="Acircumflex" unicode="&#xc2;" horiz-adv-x="1191" 
d="M20 -23l324 1444l41 21l80 -82l133 104l135 -149l86 131h12l349 -1436l-37 -16l-105 125l-37 -107l-75 43l-41 -37l-78 215l-477 -4l-60 -243l-53 26l-35 -28l-39 104l-98 -125zM166 1550l252 332l102 -18l51 53l88 -25l70 17l275 -332l-13 -12l-51 24l-31 -73l-57 26
l-66 -18l-225 213l-182 -213l-51 -19l-54 58l-86 -23zM389 451l395 24l-155 590l-82 12z" />
    <glyph glyph-name="Atilde" unicode="&#xc3;" horiz-adv-x="1191" 
d="M20 -23l324 1444l41 21l80 -82l133 104l135 -149l86 131h12l349 -1436l-37 -16l-105 125l-37 -107l-75 43l-41 -37l-78 215l-477 -4l-60 -243l-53 26l-35 -28l-39 104l-98 -125zM139 1675l15.9971 28.0029c8.66699 15.333 15.667 26.666 21 33.999
c27.333 43.333 53.5 76.333 78.5 99s58.167 38 99.5 46c51.333 6 89.666 6.16699 114.999 0.5s51.333 -17.5 78 -35.5c8.66699 -5.33301 21.5 -14.333 38.5 -27s30.833 -22 41.5 -28c45.333 -26 79.333 -43 102 -51c58 -20.667 116 10.666 174 93.999
c9.33301 10.667 20.333 27 33 49c2.66699 0 7 -0.333008 13 -1s10.667 -1 14 -1l-7 -53h52l-4 -51l30 -17c-41.333 -84.667 -81 -144 -119 -178c-35.333 -32 -75.5 -52.5 -120.5 -61.5s-89.167 -6.16699 -132.5 8.5c-13.333 4 -32.666 13.667 -57.999 29
c-9.33301 5.33301 -22.833 14.166 -40.5 26.499l-35.5 24.5l-53.5 36c-12.333 8 -28.666 16.5 -48.999 25.5s-39.166 14.5 -56.499 16.5c-18.667 0 -48.667 -26 -90 -78l-19 -23.5c-9.33301 -11.667 -16.666 -20.167 -21.999 -25.5l-9 -13l-18 2l20 56h-67l14 39
c-20.667 15.333 -33.667 25.333 -39 30zM388.997 451.003l395 24l-155 590l-82 12z" />
    <glyph glyph-name="Adieresis" unicode="&#xc4;" horiz-adv-x="1191" 
d="M20 -25l324 1604l41 23l80 -91l133 115l135 -166l86 148h12l349 -1598l-37 -16l-105 139l-37 -119l-75 47l-41 -41l-78 240l-477 -4l-60 -272l-53 30l-35 -32l-39 116l-98 -139zM389 502l395 26l-155 656l-82 14z" />
    <glyph glyph-name="Aring" unicode="&#xc5;" 
d="M4 1571l-0.000976562 30.998l825 57l-30 -57l57 -62l-145 -57l145 -58l-27 -30l-413 -31v-412c76.667 0 139 -0.833008 187 -2.5s103 -6.83398 165 -15.501s112 -21.667 150 -39c51.333 -27.333 95.5 -57.166 132.5 -89.499s65.333 -64.666 85 -96.999
s34 -63.166 43 -92.499s13.5 -58.666 13.5 -87.999c0 -51.333 -16.167 -103.333 -48.5 -156s-74.666 -100.834 -126.999 -144.501s-112.833 -85.5 -181.5 -125.5s-138.167 -74.667 -208.5 -104s-140.5 -54 -210.5 -74v58l-29 -27l-31 57l-88 -30v-27l-57 57l-61 -30v61h-27
v1294h-62l31 58l-31 30l119 88zM415.999 218.998c53.333 20 98.332 37.835 134.999 53.502s73.834 34.5 111.501 56.5s67.667 44.167 90 66.5s40.666 48.333 54.999 78s21.5 61.5 21.5 95.5c-7.33301 36.667 -23.666 67 -48.999 91s-54 40.833 -86 50.5
s-67.333 14.5 -106 14.5c-18.667 0 -37.5 -1 -56.5 -3s-38.167 -5.33301 -57.5 -10s-34.5 -11.834 -45.5 -21.501s-15.167 -20.834 -12.5 -33.501v-438z" />
    <glyph glyph-name="AE" unicode="&#xc6;" horiz-adv-x="1605" 
d="M-25 -27l664 1606l45 23l61 -91l156 115l29 -49l565 33l-29 -43l52 -35l-95 -49l97 -82l-17 -41l-356 -39l-10 -387l379 14l12 -37l-82 -90l67 -41l-8 -43l-364 -51l10 -450l365 16l8 -29l-123 -51l137 -49l-51 -76l26 -43l-466 -41l-29 72l-68 -43l-20 69l-84 -45
l-27 244l-487 -4l-117 -274l-37 32l-41 -32l-14 116l-127 -139zM442 502l406 26l-10 656l-88 22z" />
    <glyph glyph-name="Ccedilla" unicode="&#xc7;" 
d="M12 1567c102 32.667 207.333 54.667 316 66s214.334 9.66602 317.001 -5.00098c119.333 -17.333 212.666 -55.166 279.999 -113.499s101 -139.166 101 -242.499c0 -19.333 -4.16699 -42 -12.5 -68s-21.5 -56 -39.5 -90s-44.833 -71.167 -80.5 -111.5
s-77.5 -79.5 -125.5 -117.5c249.333 -127.333 355 -280.333 317 -459c-13.333 -53.333 -45.5 -107.333 -96.5 -162s-112 -103.667 -183 -147s-144.333 -81.833 -220 -115.5s-149.167 -60.834 -220.5 -81.501c-21.333 60.667 -32.333 92.667 -33 96l-121 -41l-37 76l-94 -26
v1204l-39 53l96 59l-114 82l45 60zM342 1319c-9.33301 -137.333 -5.33398 -273.333 11.999 -408c88 24 161.833 56.5 221.5 97.5s101.834 80.167 126.501 117.5c22.667 34 32.5 65 29.5 93s-12.833 51.5 -29.5 70.5s-39.667 35.5 -69 49.5c-86 38.667 -183 32 -291 -20z
M347.499 464c-0.333008 -72.667 4.49902 -160.997 14.499 -264.997c121.333 51.333 204 90.666 248 117.999c94.667 59.333 142.334 127.666 143.001 204.999c0 6.66699 -0.333008 13.667 -1 21c-4 40 -21 71.833 -51 95.5s-65.5 37.834 -106.5 42.501
s-82.667 4.16699 -125 -1.5s-79.5 -15.834 -111.5 -30.501c-6.66699 -50.667 -10.167 -112.334 -10.5 -185.001z" />
    <glyph glyph-name="Egrave" unicode="&#xc8;" horiz-adv-x="915" 
d="M53 1339l47 31l-28 41l704 37l-31 -39l54 -31l-99 -43l101 -73l-19 -37l-360 -37l-10 -348l385 14l10 -35l-82 -80l70 -37l-11 -38l-368 -48l10 -405l371 16l8 -26l-125 -45l139 -45l-53 -68l27 -39l-465 -35l16 62l-137 -4l6 110l-96 -16l4 1038h-53l-13 37l144 84z
M127 1757l55 39l135 -55l35 135l37 -4l223 -311l-26 -15l-74 31l-63 -70z" />
    <glyph glyph-name="Eacute" unicode="&#xc9;" 
d="M2 1593v27l819 59l-30 -59l57 -86l-146 -59l146 -29l-27 -29l-411 -59v-467v-262l30 -615l-57 -28l-59 176l-60 -176l-57 59l-60 -31l-26 1315h-60l27 88l-27 29l117 57z" />
    <glyph glyph-name="Ecircumflex" unicode="&#xca;" horiz-adv-x="915" 
d="M53 1339l47 31l-28 41l704 37l-31 -39l54 -31l-99 -43l101 -73l-19 -37l-360 -37l-10 -348l385 14l10 -35l-82 -80l70 -37l-11 -38l-368 -48l10 -405l371 16l8 -26l-125 -45l139 -45l-53 -68l27 -39l-465 -35l16 62l-137 -4l6 110l-96 -16l4 1038h-53l-13 37l144 84z
M117 1556l217 304l88 -17l43 49l76 -22l59 14l236 -303l-11 -12l-43 22l-26 -67l-49 24l-58 -16l-192 194l-156 -194l-45 -16l-45 53l-74 -23z" />
    <glyph glyph-name="Edieresis" unicode="&#xcb;" horiz-adv-x="915" 
d="M53 1339l47 31l-28 41l704 37l-31 -39l54 -31l-99 -43l101 -73l-19 -37l-360 -37l-10 -348l385 14l10 -35l-82 -80l70 -37l-11 -38l-368 -48l10 -405l371 16l8 -26l-125 -45l139 -45l-53 -68l27 -39l-465 -35l16 62l-137 -4l6 110l-96 -16l4 1038h-53l-13 37l144 84z
M124 1610.5c-2.66699 29 -0.332031 62.832 7.00098 101.499c5.33301 36.667 22.166 68.667 50.499 96s60.333 43.333 96 48s70.834 -3 105.501 -23c10.667 -6.66699 17.667 -27.167 21 -61.5s0.666016 -71.166 -8.00098 -110.499s-23.334 -67.333 -44.001 -84
c-29.333 -24 -65.166 -40.5 -107.499 -49.5s-70.5 -5.5 -84.5 10.5c-21.333 19.333 -33.333 43.5 -36 72.5zM535.502 1620.5c-2.33301 28.333 0.164062 62.167 7.49707 101.5c5.33301 36.667 22.333 68.5 51 95.5s60.667 42.667 96 47s70.333 -3.5 105 -23.5
c11.333 -6.66699 18.5 -27 21.5 -61s-0.166992 -70.667 -9.5 -110s-24.333 -67.666 -45 -84.999c-29.333 -24 -64.666 -40.5 -105.999 -49.5s-69.666 -5.5 -84.999 10.5c-21.333 21.333 -33.166 46.166 -35.499 74.499z" />
    <glyph glyph-name="Igrave" unicode="&#xcc;" horiz-adv-x="591" 
d="M-39 1763l55 39l136 -55l34 135l37 -4l223 -311l-26 -15l-74 31l-63 -70zM98 -23l4 1416l56 -4l63 41l80 -189l90 211l45 -6l-22 -1448l-70 35l-59 -68l-62 146l-67 -148z" />
    <glyph glyph-name="Iacute" unicode="&#xcd;" horiz-adv-x="591" 
d="M98 -23l4 1416l56 -4l63 41l80 -189l90 211l45 -6l-22 -1448l-70 35l-59 -68l-62 146l-67 -148zM190 1559l230 352l47 4l-14 -82l122 10l-12 -49l43 -18l-272 -242l-49 49l-72 -45z" />
    <glyph glyph-name="Icircumflex" unicode="&#xce;" horiz-adv-x="591" 
d="M-4 1552l192 310l78 -19l41 51l66 -24l53 16l211 -309l-10 -12l-39 24l-23 -69l-45 24l-49 -16l-172 198l-139 -198l-39 -19l-41 56l-66 -23zM98 -23l4 1416l56 -4l63 41l80 -189l90 211l45 -6l-22 -1448l-70 35l-59 -68l-62 146l-67 -148z" />
    <glyph glyph-name="Idieresis" unicode="&#xcf;" horiz-adv-x="591" 
d="M25.5 1613c-1.66699 27.333 0.832031 61.001 7.49902 101.001c5.33301 56 30.833 97.667 76.5 125s88.5 25.333 128.5 -6c8 -8 13.333 -28.833 16 -62.5s0.333984 -70.167 -6.99902 -109.5s-19.333 -67.333 -36 -84c-24 -24 -53 -40.167 -87 -48.5s-57 -4.5 -69 11.5
c-18 21.333 -27.833 45.666 -29.5 72.999zM97.999 -22.999l4 1416l56 -4l63 41l80 -189l90 211l45 -6l-22 -1448l-70 35l-59 -68l-62 146l-67 -148zM361.499 1622c-1.66699 28 0.833984 61.332 7.50098 99.999c5.33301 57.333 30.666 99.333 75.999 126
s88 24.334 128 -6.99902c8 -8 13.333 -28.667 16 -62s0.5 -69.5 -6.5 -108.5s-18.833 -66.833 -35.5 -83.5c-23.333 -23.333 -52 -39.833 -86 -49.5s-57.333 -6.16699 -70 10.5c-18 21.333 -27.833 46 -29.5 74z" />
    <glyph glyph-name="Ntilde" unicode="&#xd1;" 
d="M33 -80c-27.333 80 -27.332 172.331 0.000976562 276.998c13.333 5.33301 23.333 10 30 14c24.667 9.33301 42.667 14 54 14c22 0 43 4.33301 63 13c9.33301 4.66699 16.333 9.33398 21 14.001h55l303 1358l55 -29l82 55l86 -137l56 111h53l305 -1358h137h58v-303
c-26.667 -10 -61.167 -19.333 -103.5 -28s-72.833 -17.667 -91.5 -27v108h-940c0 -18.667 -4.83301 -46 -14.5 -82s-14.5 -63.333 -14.5 -82c-16.667 5.33301 -38.334 10.833 -65.001 16.5l-65 14c-16.667 3.66699 -31.5 9.83398 -44.5 18.501s-19.5 19.667 -19.5 33z
M506.001 251.998h414l-195 913z" />
    <glyph glyph-name="Ograve" unicode="&#xd2;" horiz-adv-x="1169" 
d="M61.5 532c-5 93.333 -4.82812 180.67 0.504883 262.003s14.666 146.333 27.999 195c37.333 148.667 97.666 257.334 180.999 326.001s189.666 109 318.999 121c18.667 1.33301 50 0.666016 94 -2.00098l23 -131l122 45l31 -127l129 28
c61.333 -70.667 96.333 -141.667 105 -213c12.667 -100 19.834 -195.5 21.501 -286.5s-3.16602 -179.667 -14.499 -266s-32.5 -164.333 -63.5 -234s-70.833 -124.834 -119.5 -165.501c-48.667 -41.333 -108.334 -71.5 -179.001 -90.5s-138.834 -27.167 -204.501 -24.5
s-126.334 12.167 -182.001 28.5s-96.834 36.833 -123.501 61.5c-49.333 45.333 -88.333 112.166 -117 200.499s-45.5 179.166 -50.5 272.499zM211.005 1757l55 39l135 -55l35 135l37 -4l223 -311l-26 -15l-74 31l-64 -70zM345.005 696.004
c-2.66699 -74 3.49805 -149.17 18.498 -225.503s38.5 -137.5 70.5 -183.5c11.333 -15.333 30.333 -28 57 -38s55 -15.667 85 -17s60.167 4.5 90.5 17.5s53.833 32.833 70.5 59.5c34 57.333 58.333 122.333 73 195s20.334 142.334 17.001 209.001s-11 127.834 -23 183.501
s-26.667 101.5 -44 137.5c-18.667 39.333 -45.167 67.333 -79.5 84s-68.666 22.334 -102.999 17.001s-66.666 -16.5 -96.999 -33.5s-52.5 -37.5 -66.5 -61.5c-18 -28 -33.333 -73.833 -46 -137.5s-20.334 -132.5 -23.001 -206.5z" />
    <glyph glyph-name="Oacute" unicode="&#xd3;" horiz-adv-x="1169" 
d="M61.5 532c-5 93.333 -4.82812 180.67 0.504883 262.003s14.666 146.333 27.999 195c37.333 148.667 97.666 257.334 180.999 326.001s189.666 109 318.999 121c18.667 1.33301 50 0.666016 94 -2.00098l23 -131l122 45l31 -127l129 28
c61.333 -70.667 96.333 -141.667 105 -213c12.667 -100 19.834 -195.5 21.501 -286.5s-3.16602 -179.667 -14.499 -266s-32.5 -164.333 -63.5 -234s-70.833 -124.834 -119.5 -165.501c-48.667 -41.333 -108.334 -71.5 -179.001 -90.5s-138.834 -27.167 -204.501 -24.5
s-126.334 12.167 -182.001 28.5s-96.834 36.833 -123.501 61.5c-49.333 45.333 -88.333 112.166 -117 200.499s-45.5 179.166 -50.5 272.499zM345.005 696.004c-2.66699 -74 3.49805 -149.17 18.498 -225.503s38.5 -137.5 70.5 -183.5c11.333 -15.333 30.333 -28 57 -38
s55 -15.667 85 -17s60.167 4.5 90.5 17.5s53.833 32.833 70.5 59.5c34 57.333 58.333 122.333 73 195s20.334 142.334 17.001 209.001s-11 127.834 -23 183.501s-26.667 101.5 -44 137.5c-18.667 39.333 -45.167 67.333 -79.5 84s-68.666 22.334 -102.999 17.001
s-66.666 -16.5 -96.999 -33.5s-52.5 -37.5 -66.5 -61.5c-18 -28 -33.333 -73.833 -46 -137.5s-20.334 -132.5 -23.001 -206.5zM500.003 1534l229 352l47 4l-14 -82l123 11l-13 -50l43 -18l-272 -242l-49 50l-72 -46z" />
    <glyph glyph-name="Ocircumflex" unicode="&#xd4;" horiz-adv-x="1169" 
d="M61.5 532c-5 93.333 -4.82812 180.67 0.504883 262.003s14.666 146.333 27.999 195c37.333 148.667 97.666 257.334 180.999 326.001s189.666 109 318.999 121c18.667 1.33301 50 0.666016 94 -2.00098l23 -131l122 45l31 -127l129 28
c61.333 -70.667 96.333 -141.667 105 -213c12.667 -100 19.834 -195.5 21.501 -286.5s-3.16602 -179.667 -14.499 -266s-32.5 -164.333 -63.5 -234s-70.833 -124.834 -119.5 -165.501c-48.667 -41.333 -108.334 -71.5 -179.001 -90.5s-138.834 -27.167 -204.501 -24.5
s-126.334 12.167 -182.001 28.5s-96.834 36.833 -123.501 61.5c-49.333 45.333 -88.333 112.166 -117 200.499s-45.5 179.166 -50.5 272.499zM166.005 1526l252 332l102 -19l51 53l88 -24l70 16l275 -332l-13 -12l-51 25l-31 -74l-57 27l-66 -19l-225 213l-182 -213l-51 -18
l-54 57l-86 -22zM345.005 696.004c-2.66699 -74 3.49805 -149.17 18.498 -225.503s38.5 -137.5 70.5 -183.5c11.333 -15.333 30.333 -28 57 -38s55 -15.667 85 -17s60.167 4.5 90.5 17.5s53.833 32.833 70.5 59.5c34 57.333 58.333 122.333 73 195
s20.334 142.334 17.001 209.001s-11 127.834 -23 183.501s-26.667 101.5 -44 137.5c-18.667 39.333 -45.167 67.333 -79.5 84s-68.666 22.334 -102.999 17.001s-66.666 -16.5 -96.999 -33.5s-52.5 -37.5 -66.5 -61.5c-18 -28 -33.333 -73.833 -46 -137.5
s-20.334 -132.5 -23.001 -206.5z" />
    <glyph glyph-name="Otilde" unicode="&#xd5;" horiz-adv-x="1169" 
d="M61.5 532c-5 93.333 -4.82812 180.67 0.504883 262.003s14.666 146.333 27.999 195c37.333 148.667 97.666 257.334 180.999 326.001s189.666 109 318.999 121c18.667 1.33301 50 0.666016 94 -2.00098l23 -131l122 45l31 -127l129 28
c61.333 -70.667 96.333 -141.667 105 -213c12.667 -100 19.834 -195.5 21.501 -286.5s-3.16602 -179.667 -14.499 -266s-32.5 -164.333 -63.5 -234s-70.833 -124.834 -119.5 -165.501c-48.667 -41.333 -108.334 -71.5 -179.001 -90.5s-138.834 -27.167 -204.501 -24.5
s-126.334 12.167 -182.001 28.5s-96.834 36.833 -123.501 61.5c-49.333 45.333 -88.333 112.166 -117 200.499s-45.5 179.166 -50.5 272.499zM139.005 1675l15.9971 28.0029c8.66699 15.333 15.667 26.666 21 33.999c27.333 43.333 53.5 76.333 78.5 99s58.167 38 99.5 46
c51.333 6 89.666 6.16699 114.999 0.5s51.333 -17.5 78 -35.5c8.66699 -5.33301 21.5 -14.333 38.5 -27s30.833 -22 41.5 -28c45.333 -26 79.333 -43 102 -51c58 -20.667 116 10.666 174 93.999c9.33301 10.667 20.333 27 33 49c2.66699 0 7 -0.333008 13 -1
s10.667 -1 14 -1l-7 -53h52l-4 -51l30 -17c-41.333 -84.667 -81 -144 -119 -178c-35.333 -32 -75.5 -52.5 -120.5 -61.5s-89.167 -6.16699 -132.5 8.5c-13.333 4 -32.666 13.667 -57.999 29c-9.33301 5.33301 -22.833 14.166 -40.5 26.499l-35.5 24.5l-53.5 36
c-12.333 8 -28.666 16.5 -48.999 25.5s-39.166 14.5 -56.499 16.5c-18.667 0 -48.667 -26 -90 -78l-19 -23.5c-9.33301 -11.667 -16.666 -20.167 -21.999 -25.5l-9 -13l-18 2l20 56h-67l14 39c-20.667 15.333 -33.667 25.333 -39 30zM345.002 696.007
c-2.66699 -74 3.49805 -149.17 18.498 -225.503s38.5 -137.5 70.5 -183.5c11.333 -15.333 30.333 -28 57 -38s55 -15.667 85 -17s60.167 4.5 90.5 17.5s53.833 32.833 70.5 59.5c34 57.333 58.333 122.333 73 195s20.334 142.334 17.001 209.001s-11 127.834 -23 183.501
s-26.667 101.5 -44 137.5c-18.667 39.333 -45.167 67.333 -79.5 84s-68.666 22.334 -102.999 17.001s-66.666 -16.5 -96.999 -33.5s-52.5 -37.5 -66.5 -61.5c-18 -28 -33.333 -73.833 -46 -137.5s-20.334 -132.5 -23.001 -206.5z" />
    <glyph glyph-name="Odieresis" unicode="&#xd6;" 
d="M-2 1518l57 26l-26 58l716 30l-30 -30l57 -58l-115 -26l115 -86l-27 -58l-374 -28v-404l401 31v-31l-84 -115l84 -28l-27 -29l-374 -55l28 -461h373v-29l-115 -28l115 -58l-27 -86v-28l-460 -58l28 86h-143v115l-86 -29v1178h-55v29l141 114z" />
    <glyph glyph-name="Oslash" unicode="&#xd8;" horiz-adv-x="1169" 
d="M62 635.5c-5.33301 93 -5.33301 180.332 0 261.999s14.666 146.5 27.999 194.5c19.333 76.667 44.833 142.834 76.5 198.501s69.334 100.167 113.001 133.5s90.5 58.833 140.5 76.5s106.667 29.5 170 35.5c4 0 11.167 0.333008 21.5 1s20.166 1 29.499 1l12 55l64 17
l31 -142l114 211l74 -32l-80 -308l4 -18l129 31c62 -74 97 -145.667 105 -215c12.667 -100 19.834 -195.333 21.501 -286s-3.16602 -178.834 -14.499 -264.501s-32.5 -163 -63.5 -232s-70.833 -123.833 -119.5 -164.5c-94 -80 -223.333 -118.667 -388 -116l-32 -129l-78 59
l-101 -90l-57 18l45 185c-30.667 12.667 -56.667 28.334 -78 47.001c-48.667 45.333 -87.334 112 -116.001 200s-45.667 178.5 -51 271.5zM349 734.999c2.66699 -96 16.001 -183.334 40.001 -262.001l180 764c-74 -15.333 -125.667 -46.666 -155 -93.999
c-20.667 -32 -37.334 -84 -50.001 -156s-17.667 -156 -15 -252zM598.001 333.998c64 8 110.333 34 139 78c98 162 114.333 381 49 657z" />
    <glyph glyph-name="Ugrave" unicode="&#xd9;" horiz-adv-x="1169" 
d="M63 723c0 152.667 16.002 382.661 48.002 689.994l28 14l45 -55l54 51l55 -155l104 123c-15.333 -103.333 -26.833 -222.666 -34.5 -357.999s-6.83398 -270.833 2.49902 -406.5s30.333 -225.167 63 -268.5c10.667 -14 22.334 -26.167 35.001 -36.5
s24.5 -18.666 35.5 -24.999s24.333 -10.666 40 -12.999s28.667 -4 39 -5s24.5 0.333008 42.5 4s31.5 6.33398 40.5 8.00098s23.5 6.16699 43.5 13.5l40.5 15c7 2.66699 20.833 8.33398 41.5 17.001c0 112.667 -0.666992 313.167 -2 601.5s-2 449.5 -2 483.5l35 19l90 -172
l78 157c6 -0.666992 21.667 -2.66699 47 -6s43.666 -5.33301 54.999 -6c0 -721.333 -4 -1192.33 -12 -1413l-24 -12l-76 137l-76 -123l-65 14l-9 76c-80 -38.667 -163.833 -67.667 -251.5 -87s-164.334 -27.166 -230.001 -23.499s-110.5 18.167 -134.5 43.5
c-46 48 -81.833 132.5 -107.5 253.5s-38.5 269.167 -38.5 444.5zM236.002 1744.99l55 39l135 -55l35 135l37 -4l223 -312l-27 -14l-73 31l-64 -70z" />
    <glyph glyph-name="Uacute" unicode="&#xda;" horiz-adv-x="1169" 
d="M63 723c0 152.667 16.002 382.661 48.002 689.994l28 14l45 -55l54 51l55 -155l104 123c-15.333 -103.333 -26.833 -222.666 -34.5 -357.999s-6.83398 -270.833 2.49902 -406.5s30.333 -225.167 63 -268.5c10.667 -14 22.334 -26.167 35.001 -36.5
s24.5 -18.666 35.5 -24.999s24.333 -10.666 40 -12.999s28.667 -4 39 -5s24.5 0.333008 42.5 4s31.5 6.33398 40.5 8.00098s23.5 6.16699 43.5 13.5l40.5 15c7 2.66699 20.833 8.33398 41.5 17.001c0 112.667 -0.666992 313.167 -2 601.5s-2 449.5 -2 483.5l35 19l90 -172
l78 157c6 -0.666992 21.667 -2.66699 47 -6s43.666 -5.33301 54.999 -6c0 -721.333 -4 -1192.33 -12 -1413l-24 -12l-76 137l-76 -123l-65 14l-9 76c-80 -38.667 -163.833 -67.667 -251.5 -87s-164.334 -27.166 -230.001 -23.499s-110.5 18.167 -134.5 43.5
c-46 48 -81.833 132.5 -107.5 253.5s-38.5 269.167 -38.5 444.5zM496.002 1545.99l229 352l47 5l-14 -82l123 10l-13 -49l43 -19l-272 -241l-49 49l-72 -45z" />
    <glyph glyph-name="Ucircumflex" unicode="&#xdb;" horiz-adv-x="1169" 
d="M63 723c0 152.667 16.002 382.661 48.002 689.994l28 14l45 -55l54 51l55 -155l104 123c-15.333 -103.333 -26.833 -222.666 -34.5 -357.999s-6.83398 -270.833 2.49902 -406.5s30.333 -225.167 63 -268.5c10.667 -14 22.334 -26.167 35.001 -36.5
s24.5 -18.666 35.5 -24.999s24.333 -10.666 40 -12.999s28.667 -4 39 -5s24.5 0.333008 42.5 4s31.5 6.33398 40.5 8.00098s23.5 6.16699 43.5 13.5l40.5 15c7 2.66699 20.833 8.33398 41.5 17.001c0 112.667 -0.666992 313.167 -2 601.5s-2 449.5 -2 483.5l35 19l90 -172
l78 157c6 -0.666992 21.667 -2.66699 47 -6s43.666 -5.33301 54.999 -6c0 -721.333 -4 -1192.33 -12 -1413l-24 -12l-76 137l-76 -123l-65 14l-9 76c-80 -38.667 -163.833 -67.667 -251.5 -87s-164.334 -27.166 -230.001 -23.499s-110.5 18.167 -134.5 43.5
c-46 48 -81.833 132.5 -107.5 253.5s-38.5 269.167 -38.5 444.5zM184.002 1553.99l252 332l103 -18l51 53l88 -25l70 17l274 -332l-12 -12l-52 24l-30 -73l-58 26l-65 -18l-225 213l-183 -213l-51 -19l-53 58l-86 -23z" />
    <glyph glyph-name="Udieresis" unicode="&#xdc;" 
d="M2 1366l141 84l-141 55l57 58l-30 26l710 60l-28 -60l55 -26l-113 -58l113 -84l-27 -28l-370 -27v-397h370l27 -29l-84 -86l57 -29v-57l-370 -55v-455l370 31l27 -31l-139 -53l139 -58l-55 -59l28 -57l-454 -27l28 57h-141v113h-86v1135h-57zM105 1829
c2 23.333 7.50195 44.667 16.502 64s25.333 35.333 49 48s52.167 19 85.5 19c0 -17.333 1.66699 -38.5 5 -63.5s5.33301 -45 6 -60s-0.833008 -31.333 -4.5 -49s-12.834 -33 -27.501 -46s-35.667 -24.833 -63 -35.5c-2.66699 1.33301 -7.33398 3.83301 -14.001 7.5
s-11.667 6.5 -15 8.5c-18.667 13.333 -28 27 -28 41c-8.66699 20.667 -12 42.667 -10 66zM426.002 1817c0 46.667 16.167 80.8311 48.5 102.498s83.166 26.167 152.499 13.5c-10 -19.333 -24.333 -52.666 -43 -99.999s-33 -80.666 -43 -99.999
c-11.333 11.333 -31.166 26.333 -59.499 45s-46.833 31.667 -55.5 39z" />
    <glyph glyph-name="Yacute" unicode="&#xdd;" horiz-adv-x="1079" 
d="M35 1360l65 10l17 29l114 -88v141l50 2l280 -565l262 586l47 8l-10 -152l146 115l22 -25h49l-375 -790l5 -621l-56 13l-41 -33l-84 108l-73 -129l-35 4l-19 619zM471 1516l229 352l48 4l-15 -82l123 10l-12 -49l43 -18l-273 -242l-49 49l-71 -45z" />
    <glyph glyph-name="germandbls" unicode="&#xdf;" horiz-adv-x="1185" 
d="M63 1567c102 32.667 207.333 54.667 316 66s214.334 9.66602 317.001 -5.00098c119.333 -17.333 212.666 -55.166 279.999 -113.499s101 -139.166 101 -242.499c0 -19.333 -4.16699 -42 -12.5 -68s-21.5 -56 -39.5 -90s-44.833 -71.167 -80.5 -111.5
s-77.5 -79.5 -125.5 -117.5c250 -128 356 -281 318 -459c-13.333 -55.333 -48 -110.5 -104 -165.5s-119 -103.167 -189 -144.5s-148 -80 -234 -116l2 78l-49 12l99 117h-136l13 59c41.333 19.333 76 37.166 104 53.499s55.833 36.333 83.5 60s48 50 61 79
s18.167 60.5 15.5 94.5c-4 40 -20.833 71.833 -50.5 95.5s-65 37.834 -106 42.501s-82.667 4.16699 -125 -1.5s-79.5 -15.834 -111.5 -30.501c-4 -34 -8.83301 -150.5 -14.5 -349.5s-8.5 -334.833 -8.5 -407.5l-51 61l-86 -67l-35 73l-84 -35v1295l-39 53l96 59l-114 82
l45 60zM393 1298c-8.66699 -134 -4.33496 -269.667 12.998 -407c88 24 161.833 56.5 221.5 97.5s101.834 80.167 126.501 117.5c22.667 34 32.334 65 29.001 93s-13.333 51.5 -30 70.5s-39.667 35.5 -69 49.5c-85.333 38 -182.333 31 -291 -21z" />
    <glyph glyph-name="agrave" unicode="&#xe0;" 
d="M8 240c0 13.333 1.00781 21.001 3.00781 23.001s10.667 3 26 3c19.333 19.333 57.666 29 114.999 29h81c81.333 0 166.666 28 255.999 84c46.667 32.667 82 62.667 106 90s36 54.666 36 81.999c0 53.333 -16.833 94.666 -50.5 123.999s-73.5 44 -119.5 44h28
c-28 0 -113.333 -28 -256 -84c-14 8 -33.333 16.667 -58 26s-42.667 19.666 -54 30.999l57 27l-16 14c-16.667 10 -30.334 15 -41.001 15l31 143c12 12 21.833 21.167 29.5 27.5s21 14.5 40 24.5s42.167 20 69.5 30c61.333 28.667 107.333 52.5 138 71.5
s60.334 42.833 89.001 71.5c29.333 30 51 60.333 65 91s21 66 21 106c0 13.333 -0.333008 23.166 -1 29.499s-3.33398 12.5 -8.00098 18.5s-12 9 -22 9c-96 0 -171 -28 -225 -84c-70 -38 -117.667 -57 -143 -57h-53l26 84l-57 -27l-55 57l55 56h-84l-29 26h29v31
c0 2.66699 0.666992 5.66699 2 9s3.33301 6.66602 6 9.99902s5.5 6.5 8.5 9.5s7.5 6.66699 13.5 11l16 11.5l19.5 13.5l22 14.5l25.5 16l28 18c27.333 13.333 47 22.666 59 27.999s31.5 11.5 58.5 18.5s54.167 10.5 81.5 10.5c25.333 12.667 46.833 20.334 64.5 23.001
s43.167 4 76.5 4s64.166 -2.66699 92.499 -8s57.166 -15.166 86.499 -29.499s50.5 -25.333 63.5 -33l68.5 -42.5c56 -85.333 84 -170 84 -254c0 -25.333 -0.666992 -45.166 -2 -59.499s-6.33301 -34.333 -15 -60s-22 -52.167 -40 -79.5l-21.5 -33.5l-21 -32l-18 -25.5
c-7.66699 -10.667 -13.834 -18.167 -18.501 -22.5s-10.5 -9.33301 -17.5 -15s-13.833 -9.5 -20.5 -11.5s-14 -3 -22 -3c-15.333 -13.333 -25.333 -21 -30 -23s-14.667 -3 -30 -3c15.333 0 25.166 -1 29.499 -3s14.5 -10 30.5 -24c8.66699 0 22.167 -5.16699 40.5 -15.5
s32.833 -15.5 43.5 -15.5c54.667 -54.667 91.834 -106.667 111.501 -156s29.5 -110.666 29.5 -183.999c0 -82.667 -28.667 -167.334 -86 -254.001l-59.5 -59c-11.667 -11.333 -31 -28.166 -58 -50.499s-54.167 -41.833 -81.5 -58.5l-35 -22
c-16.667 -10.667 -29.334 -18.5 -38.001 -23.5s-21.667 -11.333 -39 -19s-36 -14.167 -56 -19.5c-28 -7.33301 -59 -16.666 -93 -27.999s-60.333 -19.333 -79 -24s-36.334 -7 -53.001 -7c-13.333 0 -23.333 0.333008 -30 1s-13.167 3.33398 -19.5 8.00098s-9.5 12 -9.5 22
v28l-53 -28h-9.5h-10.5c-1.33301 0 -4.5 0.166992 -9.5 0.5s-8.5 0.666016 -10.5 0.999023s-5 1 -9 2s-7.16699 2.16699 -9.5 3.5l-9 5c-3.66699 2 -7 4.33301 -10 7s-5.83301 5.66699 -8.5 9l86 84l-115 -30l29 59z" />
    <glyph glyph-name="aacute" unicode="&#xe1;" 
d="M-16 156c8.66699 8.66699 17.333 26.501 26 53.501s18.334 45.167 29.001 54.5c46.667 56.667 120.334 140.334 221.001 251.001s174.334 194.334 221.001 251.001l-442 524c-19.333 22 -29 78 -29 168c26.667 -6 47.667 -5 63 3s25.166 19 29.499 33s10.5 29 18.5 45
s17.667 26.667 29 32c42 -26.667 81.5 -59.5 118.5 -98.5s70 -80.167 99 -123.5l84.5 -130c27.333 -43.333 58.166 -88.5 92.499 -135.5s69.166 -87.833 104.499 -122.5v471c-7.33301 22.667 -12 43.834 -14 63.501s0.166992 37.334 6.5 53.001s19 23 38 22
s45.833 -10.5 80.5 -28.5c57.333 0 103 9.66699 137 29c8.66699 0 18.5 2.33301 29.5 7s26.5 11.667 46.5 21s41 17.666 63 24.999v-610c0 -4.66699 1.33301 -9.66699 4 -15c6 -8 14.333 -12 25 -12c190 302.667 328.667 515 416 637l36.5 -19l34 -18
c7.66699 -4 17.834 -7.66699 30.501 -11s25.334 -5 38.001 -5c26.667 -13.333 46.167 -47 58.5 -101s11.166 -94.667 -3.50098 -122c-176.667 -202.667 -324.667 -387.667 -444 -555l124.5 -130.5l139.5 -145.5c42 -42 83.667 -80 125 -114
c6 -9.33301 17.167 -24.666 33.5 -45.999s27.666 -37.833 33.999 -49.5s12.5 -27.334 18.5 -47.001s6.33301 -40.334 1 -62.001s-16 -45.5 -32 -71.5c-4 4 -8.33301 7.5 -13 10.5s-9.83398 6 -15.501 9l-10.5 5.5c-8 2.66699 -13.333 4 -16 4
c-9.33301 -18.667 -18.333 -49.167 -27 -91.5s-18 -76.833 -28 -103.5c-74 82 -166 196.833 -276 344.5s-184.667 245.167 -224 292.5l-29 -27v-583c-101.333 107.333 -211.666 116.666 -330.999 27.999c0 65.333 -4.83301 157.833 -14.5 277.5s-14.5 212.167 -14.5 277.5
h-55c-67.333 -82 -215 -276.333 -443 -583c-22.667 63.333 -50 128 -82 194c0 -8.66699 -4.83301 -15.334 -14.5 -20.001s-22 -9.66699 -37 -15s-26.5 -12 -34.5 -20c0 1.33301 -1.33301 6 -4 14c-0.666992 0.666992 -2.16699 2.66699 -4.5 6s-4.83301 5.66602 -7.5 6.99902
s-6 2 -10 2z" />
    <glyph glyph-name="acircumflex" unicode="&#xe2;" 
d="M2 1632l88 -116l57 116l60 -57l29 31v-762h59l407 788v31l60 -174l145 143h60l28 -1605h-28l-29 -31l-88 117l-88 -117h-31l-29 878h-26l-410 -878l-59 31l-31 -31l-57 174l-86 -174v31z" />
    <glyph glyph-name="atilde" unicode="&#xe3;" horiz-adv-x="1017" 
d="M25 12l264 1264l82 -25l75 66l113 -139l64 125l71 -43l66 38l239 -1294l-45 31l-75 -43l-58 74l-55 -56l-76 277l-381 -31l-73 -279l-21 -8l-65 82l-82 -65zM82 1534l34.999 57.0029c23.333 39.333 47.166 69.666 71.499 90.999s55.833 35.333 94.5 42
c46 6.66699 81 7.5 105 2.5s49 -15.833 75 -32.5c7.33301 -4.66699 19 -13 35 -25s29 -21 39 -27c38 -22 70 -37.667 96 -47c32 -10 60.833 -6.33301 86.5 11s50.834 42.333 75.501 75c10 14 20 30 30 48c2.66699 0 6.83398 -0.5 12.501 -1.5s9.83398 -1.5 12.501 -1.5
l-6 -51h49l-4 -47l29 -14c-16 -32 -34.5 -63.833 -55.5 -95.5s-39.5 -55.167 -55.5 -70.5c-33.333 -28.667 -71.5 -47.334 -114.5 -56.001s-84.167 -6.33398 -123.5 6.99902c-16 6.66699 -33.667 16 -53 28l-70 48c-61.333 41.333 -111 64.333 -149 69
c-16.667 0 -45.334 -23 -86.001 -69c-4 -4.66699 -9.83301 -12.5 -17.5 -23.5s-14.167 -19.167 -19.5 -24.5l-8 -10l-16 2l18 51h-62l13 35zM359.999 489.003l293 27l-102 459l-86 -6z" />
    <glyph glyph-name="adieresis" unicode="&#xe4;" 
d="M10 25v1603l58 -115l88 115l30 -57l58 28v-757h57l381 786l27 33l61 -178l145 145h58l31 -1603h-58l-31 -31l-57 117l-88 -117h-31l-30 874h-27l-408 -874l-57 31l-61 -31l-29 176l-88 -176zM289 1854c0 24.667 1.99902 54 5.99902 88s6 57 6 69
c0 10 4.66699 17.667 14 23c8 2.66699 13.667 4 17 4c56.667 20 154.334 30 293.001 30v-178c0 -7.33301 2.16699 -16.5 6.5 -27.5s6.5 -21.167 6.5 -30.5s-4.33301 -19.333 -13 -30c0 -13.333 -10.667 -25.833 -32 -37.5s-40 -17.5 -56 -17.5
c-118 0 -196.667 18.333 -236 55c-8 10 -12 27.333 -12 52z" />
    <glyph glyph-name="aring" unicode="&#xe5;" horiz-adv-x="1017" 
d="M25 12l255.999 1221l-17 6c-36 14 -66.333 33.667 -91 59s-42.167 52.833 -52.5 82.5s-13.833 60.667 -10.5 93s12.833 62.666 28.5 90.999s39.167 53.666 70.5 75.999s68 38.166 110 47.499c160.667 38 296.667 39.333 408 4l6 -101l121 25
c23.333 -30 38.333 -67 45 -111s3.83398 -86.333 -8.49902 -127s-32.833 -70.667 -61.5 -90c-2.66699 -1.33301 -7.16699 -4.16602 -13.5 -8.49902s-13.333 -8.66602 -21 -12.999s-16.5 -8.83301 -26.5 -13.5l231 -1249l-45 31l-75 -43l-58 74l-55 -56l-76 275l-381 -31
l-73 -277l-21 -8l-65 80l-82 -63zM299.999 1452c-4 -20.667 7.99902 -41 35.999 -61c22 -15.333 54.167 -24 96.5 -26s83.333 1 123 9s71.5 17.667 95.5 29c18.667 8.66699 31.667 21.5 39 38.5s5.33301 36.167 -6 57.5c-13.333 20.667 -41.166 34 -83.499 40
s-83.5 5.66699 -123.5 -1c-57.333 -8 -98.333 -18.333 -123 -31c-32 -16 -50 -34.333 -54 -55zM359.998 487.001l293 27l-102 457l-86 -6z" />
    <glyph glyph-name="ae" unicode="&#xe6;" horiz-adv-x="1378" 
d="M-4 10l536 1266l74 -25l90 66l33 -55l537 38l18 -77l-121 -84l115 -35l-14 -41l-281 -25l-6 -333l278 10l-30 -101l55 -22l-10 -53l-289 -29l10 -360l291 22l-18 -100l51 -25l-21 -72l-454 -28l4 47l-58 -8l-4 61l-49 -20l-18 260l-385 -31l-131 -279l-25 -8l-47 82
l-96 -65zM432 489l295 27v459l-88 -6z" />
    <glyph glyph-name="ccedilla" unicode="&#xe7;" horiz-adv-x="868" 
d="M72 647c0 35.333 3.16602 76.333 9.49902 123s17.333 99 33 157s34.834 112.167 57.501 162.5s52.834 96 90.501 137s79.167 68.5 124.5 82.5c136 42 268.333 48.667 397 20c2 -2.66699 4.16699 -7.83398 6.5 -15.501s4.5 -12.834 6.5 -15.501l-142 -47l101 -57l-45 -47
l18 -51c-119.333 -10 -199.333 -26.333 -240 -49c-32.667 -16 -60.334 -52.667 -83.001 -110s-38 -113 -46 -167s-12 -101.667 -12 -143c0 -36.667 2.66699 -75.167 8 -115.5s17.166 -84.166 35.499 -131.499s41.5 -82.666 69.5 -105.999c36 -32.667 138.333 -49 307 -49
c-4.66699 -4.66699 -10.667 -13.334 -18 -26.001l43 -47l-103 -58l113 -41l-8 -24c-73.333 -15.333 -123.333 -25 -150 -29c8.66699 -86 2 -153.5 -20 -202.5s-62.333 -85.167 -121 -108.5c-64.667 -25.333 -122.667 -38.833 -174 -40.5s-107.333 7.5 -168 27.5l-6 35l84 41
l-93 78l21 43c84 -14 138.667 -18 164 -12c28.667 7.33301 52.167 22.333 70.5 45s27.5 51.334 27.5 86.001c-49.333 6 -88.333 14.667 -117 26c-33.333 13.333 -63.166 33.166 -89.499 59.499s-48 57.333 -65 93s-31.5 73 -43.5 112s-21 80.833 -27 125.5
s-10.167 85.834 -12.5 123.501s-3.5 76.167 -3.5 115.5z" />
    <glyph glyph-name="egrave" unicode="&#xe8;" horiz-adv-x="724" 
d="M45 1640l55 39l136 -55l34 135l37 -4l223 -311l-26 -14l-74 30l-63 -69zM68 1171l28 66l-14 27l586 39l18 -80l-127 -88l121 -37l-16 -45l-299 -27l-7 -315l299 10l-34 -107l59 -24l-10 -55l-310 -31l13 -334l309 12l-20 -106l55 -25l-23 -78l-483 -28l8 104l-125 -8
l13 958l-25 41l88 76z" />
    <glyph glyph-name="eacute" unicode="&#xe9;" horiz-adv-x="724" 
d="M68 1171l28 66l-14 27l586 39l18 -80l-127 -88l121 -37l-16 -45l-299 -27l-7 -315l299 10l-34 -107l59 -24l-10 -55l-310 -31l13 -334l309 12l-20 -106l55 -25l-23 -78l-483 -28l8 104l-125 -8l13 958l-25 41l88 76zM254 1442l229 352l47 4l-14 -82l123 10l-12 -49
l43 -18l-273 -242l-49 49l-72 -45z" />
    <glyph glyph-name="ecircumflex" unicode="&#xea;" horiz-adv-x="724" 
d="M51 1407l189 260l75 -14l37 41l66 -19l53 13l203 -261l-8 -10l-39 21l-23 -58l-43 21l-47 -15l-168 166l-137 -166l-37 -14l-39 45l-65 -18zM68 1171l28 66l-14 27l586 39l18 -80l-127 -88l121 -37l-16 -45l-299 -27l-7 -315l299 10l-34 -107l59 -24l-10 -55l-310 -31
l13 -334l309 12l-20 -106l55 -25l-23 -78l-483 -28l8 104l-125 -8l13 958l-25 41l88 76z" />
    <glyph glyph-name="edieresis" unicode="&#xeb;" horiz-adv-x="724" 
d="M68 1171l28 66l-14 27l586 39l18 -80l-127 -88l121 -37l-16 -45l-299 -27l-7 -315l299 10l-34 -107l59 -24l-10 -55l-310 -31l13 -334l309 12l-20 -106l55 -25l-23 -78l-483 -28l8 104l-125 -8l13 958l-25 41l88 76zM69 1469.5c-2 27 0.332031 59.499 6.99902 97.499
c2.66699 26.667 11.834 50.667 27.501 72s34.5 37.5 56.5 48.5s46 16.167 72 15.5s49.667 -8 71 -22c10 -5.33301 16.5 -24.666 19.5 -57.999s0.333008 -69 -8 -107s-21.833 -64.667 -40.5 -80c-26.667 -24 -59.167 -40 -97.5 -48s-63.833 -5 -76.5 9
c-18.667 21.333 -29 45.5 -31 72.5zM443.999 1477c-2 27.333 0.331055 59.998 6.99805 97.998c2.66699 26.667 11.834 50.834 27.501 72.501s34.334 38.167 56.001 49.5s45.5 16.833 71.5 16.5s50 -8.16602 72 -23.499c9.33301 -5.33301 15.333 -24.666 18 -57.999
s0 -69.166 -8 -107.499s-21 -65.166 -39 -80.499c-26.667 -24.667 -59 -40.834 -97 -48.501s-63.667 -3.83398 -77 11.499c-18.667 19.333 -29 42.666 -31 69.999z" />
    <glyph glyph-name="igrave" unicode="&#xec;" horiz-adv-x="507" 
d="M-68 1618l56 39l135 -55l35 135l37 -4l223 -312l-27 -14l-74 31l-63 -70zM100 -4v1274l45 16l68 -160l86 154l61 -33l58 21l-35 -1295l-25 -8l-86 123l-59 -108l-53 20z" />
    <glyph glyph-name="iacute" unicode="&#xed;" horiz-adv-x="507" 
d="M100 -4v1274l45 16l68 -160l86 154l61 -33l58 21l-35 -1295l-25 -8l-86 123l-59 -108l-53 20zM156 1438l229 352l47 4l-14 -82l123 10l-13 -49l43 -18l-272 -242l-49 49l-72 -45z" />
    <glyph glyph-name="icircumflex" unicode="&#xee;" horiz-adv-x="507" 
d="M-29 1421l172 310l72 -17l35 49l61 -22l47 14l191 -307l-10 -12l-35 22l-21 -67l-39 24l-45 -18l-155 198l-127 -198l-35 -17l-37 54l-59 -21zM100 -4v1274l45 16l68 -160l86 154l61 -33l58 21l-35 -1295l-25 -8l-86 123l-59 -108l-53 20z" />
    <glyph glyph-name="idieresis" unicode="&#xef;" horiz-adv-x="507" 
d="M-15 1484c-2 26.667 -0.333008 59.001 5 97.001c5.33301 53.333 29.5 93.166 72.5 119.499s83.5 24.833 121.5 -4.5c8 -8 13.333 -28.167 16 -60.5s0.666992 -67 -6 -104s-18 -63.5 -34 -79.5c-21.333 -24 -48.833 -40.167 -82.5 -48.5s-55.5 -4.5 -65.5 11.5
c-16 19.333 -25 42.333 -27 69zM100 -3.99902v1274l45 16l68 -160l86 154l61 -33l58 21l-35 -1295l-25 -8l-86 123l-59 -108l-53 20zM304 1492.5c-2 26.333 -0.334961 58.501 4.99805 96.501c2.66699 26.667 10.834 50.834 24.501 72.501s30 38 49 49s39.5 16.167 61.5 15.5
s42 -8 60 -22c8 -8 13.167 -28.167 15.5 -60.5s0.166016 -67 -6.50098 -104s-18 -63.5 -34 -79.5c-25.333 -22.667 -53.166 -38.334 -83.499 -47.001s-52.166 -5.33398 -65.499 9.99902c-15.333 20 -24 43.167 -26 69.5z" />
    <glyph glyph-name="ntilde" unicode="&#xf1;" horiz-adv-x="1148" 
d="M94 1253l90 47l72 -75l90 30l418 -759h41l-12 753l53 31l92 -127l86 129l37 -6l-2 -1315l-23 -14l-73 76l-103 -72l-41 8l-413 651l-52 6l-16 -661l-59 8l-80 109l-60 -121l-35 18zM158 1520c5.33301 8.66699 11.6689 19.999 19.002 33.999l13 25
c23.333 38.667 47.166 68.667 71.499 90s55.833 35.666 94.5 42.999c46.667 6 81.834 6.33301 105.501 1s48.834 -16.666 75.501 -33.999c8.66699 -4.66699 20.834 -12.667 36.501 -24s27.834 -19.666 36.501 -24.999c45.333 -26.667 77.666 -42.334 96.999 -47.001
c22 -7.33301 44.167 -6.5 66.5 2.5s39.666 19.833 51.999 32.5s27.166 29.667 44.499 51c5.33301 6 11.5 14.5 18.5 25.5l12.5 19.5h23l-4 -51h47l-2 -47l26 -14c-16 -32.667 -34.333 -64.667 -55 -96s-39 -54.666 -55 -69.999c-32 -30.667 -70 -50 -114 -58
s-85.333 -5.33301 -124 8c-6.66699 2 -24.334 11.667 -53.001 29l-70 47c-64 42.667 -113.667 66 -149 70c-18 0 -46 -23.333 -84 -70c-12.667 -14 -25 -29.667 -37 -47l-10 -10l-17 2l21 51h-64l13 35c-20.667 16.667 -32.334 25.667 -35.001 27z" />
    <glyph glyph-name="ograve" unicode="&#xf2;" horiz-adv-x="1052" 
d="M74 690c14 142 33.834 252.166 59.501 330.499s62.5 138.166 110.5 179.499c42.667 36 100 66.167 172 90.5s145 31.166 219 20.499l-4 -119l100 61l43 -63l68 27c104.667 -108.667 157 -302 157 -580c0 -50.667 -2.83301 -102 -8.5 -154
s-14.834 -105.167 -27.501 -159.5s-31 -104 -55 -149s-52.333 -79.167 -85 -102.5c-60 -43.333 -124 -74.166 -192 -92.499s-129.167 -25.833 -183.5 -22.5s-105.166 13.666 -152.499 30.999c-54.667 18.667 -100.667 64.834 -138 138.501s-62.833 159.834 -76.5 258.501
s-15.834 200.334 -6.50098 305.001zM186.001 1640l56 39l135 -55l35 135l37 -4l223 -311l-27 -14l-74 30l-63 -69zM316.001 645.499c-5.33301 -74.333 -2.49707 -147.499 8.50293 -219.499s29.833 -128.667 56.5 -170c17.333 -28 45.5 -47.5 84.5 -58.5
s78.167 -11.333 117.5 -1s67.666 29.5 84.999 57.5s33.166 68.167 47.499 120.5s24.333 110.666 30 174.999s6.33398 127.5 2.00098 189.5s-17.833 119.333 -40.5 172s-53.667 91 -93 115c-22.667 14.667 -49.834 21.167 -81.501 19.5s-58.834 -12.167 -81.501 -31.5
c-37.333 -33.333 -67.833 -84.5 -91.5 -153.5s-38.167 -140.667 -43.5 -215z" />
    <glyph glyph-name="oacute" unicode="&#xf3;" horiz-adv-x="1052" 
d="M74 690c14 142 33.834 252.166 59.501 330.499s62.5 138.166 110.5 179.499c42.667 36 100 66.167 172 90.5s145 31.166 219 20.499l-4 -119l100 61l43 -63l68 27c104.667 -108.667 157 -302 157 -580c0 -50.667 -2.83301 -102 -8.5 -154
s-14.834 -105.167 -27.501 -159.5s-31 -104 -55 -149s-52.333 -79.167 -85 -102.5c-60 -43.333 -124 -74.166 -192 -92.499s-129.167 -25.833 -183.5 -22.5s-105.166 13.666 -152.499 30.999c-54.667 18.667 -100.667 64.834 -138 138.501s-62.833 159.834 -76.5 258.501
s-15.834 200.334 -6.50098 305.001zM316.001 645.499c-5.33301 -74.333 -2.49707 -147.499 8.50293 -219.499s29.833 -128.667 56.5 -170c17.333 -28 45.5 -47.5 84.5 -58.5s78.167 -11.333 117.5 -1s67.666 29.5 84.999 57.5s33.166 68.167 47.499 120.5
s24.333 110.666 30 174.999s6.33398 127.5 2.00098 189.5s-17.833 119.333 -40.5 172s-53.667 91 -93 115c-22.667 14.667 -49.834 21.167 -81.501 19.5s-58.834 -12.167 -81.501 -31.5c-37.333 -33.333 -67.833 -84.5 -91.5 -153.5s-38.167 -140.667 -43.5 -215z
M414.004 1456l229 352l47 4l-14 -81l123 10l-13 -49l43 -19l-272 -241l-49 49l-72 -45z" />
    <glyph glyph-name="ocircumflex" unicode="&#xf4;" horiz-adv-x="1052" 
d="M74 690c14 142 33.834 252.166 59.501 330.499s62.5 138.166 110.5 179.499c42.667 36 100 66.167 172 90.5s145 31.166 219 20.499l-4 -119l100 61l43 -63l68 27c104.667 -108.667 157 -302 157 -580c0 -50.667 -2.83301 -102 -8.5 -154
s-14.834 -105.167 -27.501 -159.5s-31 -104 -55 -149s-52.333 -79.167 -85 -102.5c-60 -43.333 -124 -74.166 -192 -92.499s-129.167 -25.833 -183.5 -22.5s-105.166 13.666 -152.499 30.999c-54.667 18.667 -100.667 64.834 -138 138.501s-62.833 159.834 -76.5 258.501
s-15.834 200.334 -6.50098 305.001zM172.001 1403l223 344l92 -18l45 55l78 -27l64 19l244 -346l-13 -13l-45 27l-26 -78l-52 29l-59 -19l-199 219l-162 -219l-47 -20l-47 59l-75 -22zM316.001 645.499c-5.33301 -74.333 -2.49707 -147.499 8.50293 -219.499
s29.833 -128.667 56.5 -170c17.333 -28 45.5 -47.5 84.5 -58.5s78.167 -11.333 117.5 -1s67.666 29.5 84.999 57.5s33.166 68.167 47.499 120.5s24.333 110.666 30 174.999s6.33398 127.5 2.00098 189.5s-17.833 119.333 -40.5 172s-53.667 91 -93 115
c-22.667 14.667 -49.834 21.167 -81.501 19.5s-58.834 -12.167 -81.501 -31.5c-37.333 -33.333 -67.833 -84.5 -91.5 -153.5s-38.167 -140.667 -43.5 -215z" />
    <glyph glyph-name="otilde" unicode="&#xf5;" horiz-adv-x="1052" 
d="M74 690c14 142 33.834 252.166 59.501 330.499s62.5 138.166 110.5 179.499c42.667 36 100 66.167 172 90.5s145 31.166 219 20.499l-4 -119l100 61l43 -63l68 27c104.667 -108.667 157 -302 157 -580c0 -50.667 -2.83301 -102 -8.5 -154
s-14.834 -105.167 -27.501 -159.5s-31 -104 -55 -149s-52.333 -79.167 -85 -102.5c-60 -43.333 -124 -74.166 -192 -92.499s-129.167 -25.833 -183.5 -22.5s-105.166 13.666 -152.499 30.999c-54.667 18.667 -100.667 64.834 -138 138.501s-62.833 159.834 -76.5 258.501
s-15.834 200.334 -6.50098 305.001zM115.001 1532c3.33301 5.33301 7.16309 12.166 11.4961 20.499s8.33301 15.333 12 21s7.5 10.834 11.5 15.501c24.667 40.667 48.334 71.334 71.001 92.001s54 34.334 94 41.001c46 6.66699 81.333 7.5 106 2.5s49.667 -15.833 75 -32.5
l73 -52c36.667 -22 68.334 -37.667 95.001 -47c22.667 -7.33301 45.167 -6.33301 67.5 3s39.666 20.166 51.999 32.499s26.833 29.166 43.5 50.499c14.667 20.667 25 36.334 31 47.001c2.66699 0 6.83398 -0.333008 12.501 -1s9.83398 -1 12.501 -1l-6 -51h49l-4 -47l28 -14
c-36 -72.667 -73.333 -127.334 -112 -164.001c-32 -30.667 -69.667 -49.834 -113 -57.501s-84.333 -4.83398 -123 8.49902c-28 12 -46.333 20.667 -55 26c-8 4.66699 -19.5 12.667 -34.5 24s-26.167 19.333 -33.5 24c-64 42.667 -113.667 66.334 -149 71.001
c-15.333 0 -44 -23.667 -86 -71c-15.333 -17.333 -27.666 -32.666 -36.999 -45.999l-8 -12l-19 4l21 49h-64l13 37zM315.998 645.499c-5.33301 -74.333 -2.49707 -147.499 8.50293 -219.499s29.833 -128.667 56.5 -170c17.333 -28 45.5 -47.5 84.5 -58.5
s78.167 -11.333 117.5 -1s67.666 29.5 84.999 57.5s33.166 68.167 47.499 120.5s24.333 110.666 30 174.999s6.33398 127.5 2.00098 189.5s-17.833 119.333 -40.5 172s-53.667 91 -93 115c-22.667 14.667 -49.834 21.167 -81.501 19.5s-58.834 -12.167 -81.501 -31.5
c-37.333 -33.333 -67.833 -84.5 -91.5 -153.5s-38.167 -140.667 -43.5 -215z" />
    <glyph glyph-name="odieresis" unicode="&#xf6;" horiz-adv-x="1052" 
d="M74 690c14 142 33.834 252.166 59.501 330.499s62.5 138.166 110.5 179.499c42.667 36 100 66.167 172 90.5s145 31.166 219 20.499l-4 -119l100 61l43 -63l68 27c104.667 -108.667 157 -302 157 -580c0 -50.667 -2.83301 -102 -8.5 -154
s-14.834 -105.167 -27.501 -159.5s-31 -104 -55 -149s-52.333 -79.167 -85 -102.5c-60 -43.333 -124 -74.166 -192 -92.499s-129.167 -25.833 -183.5 -22.5s-105.166 13.666 -152.499 30.999c-54.667 18.667 -100.667 64.834 -138 138.501s-62.833 159.834 -76.5 258.501
s-15.834 200.334 -6.50098 305.001zM222.501 1479.5c-2.33301 27 -0.166992 59.4971 6.5 97.4971c2.66699 26.667 12 50.667 28 72s35 37.5 57 48.5s46 16.333 72 16s49.667 -7.5 71 -21.5c10 -5.33301 16.5 -24.666 19.5 -57.999s0.333008 -69.166 -8 -107.499
s-21.833 -65.166 -40.5 -80.499c-26.667 -24 -59.167 -40 -97.5 -48s-63.833 -5 -76.5 9c-18.667 21.333 -29.167 45.5 -31.5 72.5zM316 645.496c-5.33301 -74.333 -2.49707 -147.499 8.50293 -219.499s29.833 -128.667 56.5 -170c17.333 -28 45.5 -47.5 84.5 -58.5
s78.167 -11.333 117.5 -1s67.666 29.5 84.999 57.5s33.166 68.167 47.499 120.5s24.333 110.666 30 174.999s6.33398 127.5 2.00098 189.5s-17.833 119.333 -40.5 172s-53.667 91 -93 115c-22.667 14.667 -49.834 21.167 -81.501 19.5s-58.834 -12.167 -81.501 -31.5
c-37.333 -33.333 -67.833 -84.5 -91.5 -153.5s-38.167 -140.667 -43.5 -215zM597.503 1487c-2.33301 27.333 -0.168945 59.998 6.49805 97.998c2.66699 26.667 11.834 50.834 27.501 72.501s34.334 38.167 56.001 49.5s45.5 16.833 71.5 16.5s50 -8.16602 72 -23.499
c9.33301 -5.33301 15.5 -24.666 18.5 -57.999s0.5 -69.166 -7.5 -107.499s-21 -65.166 -39 -80.499c-26.667 -24.667 -59 -40.834 -97 -48.501s-63.667 -3.83398 -77 11.499c-18.667 19.333 -29.167 42.666 -31.5 69.999z" />
    <glyph glyph-name="divide" unicode="&#xf7;" horiz-adv-x="935" 
d="M90 700l121 113l-113 35l29 86l690 -10l19 -72l-97 -74l125 -57l-47 -66l-698 -86l33 95zM325 209.5c-2.66699 31.667 -0.333008 69.167 7 112.5c5.33301 40 21.166 74.833 47.499 104.5s56 47 89 52s65.833 -3.5 98.5 -25.5c10 -8 16.5 -30.667 19.5 -68
s0.5 -77.833 -7.5 -121.5s-21.333 -74.834 -40 -93.501c-29.333 -27.333 -63.166 -45.666 -101.499 -54.999s-64.833 -5.33301 -79.5 12c-19.333 23.333 -30.333 50.833 -33 82.5zM326.001 1153c-2.66699 31.333 -0.665039 69.001 6.00195 113.001
c5.33301 40.667 21.166 76 47.499 106s56 47.5 89 52.5s65.833 -3.5 98.5 -25.5c10 -8 16.5 -30.833 19.5 -68.5s0.5 -78.5 -7.5 -122.5s-21.333 -75.333 -40 -94c-28 -28 -62 -46.5 -102 -55.5s-66.333 -4.83301 -79 12.5c-18.667 23.333 -29.334 50.666 -32.001 81.999z
" />
    <glyph glyph-name="oslash" unicode="&#xf8;" horiz-adv-x="1052" 
d="M74 690c14 141.333 33.6689 250.999 59.002 328.999s62.333 137.667 111 179c36 30 84.5 56.667 145.5 80s125.167 35 192.5 35l22 96l58 14l28 -135l109 203l67 -31l-65 -262l41 16c104.667 -108.667 157 -301 157 -577c0 -50.667 -2.83301 -102 -8.5 -154
s-14.834 -105 -27.501 -159s-31 -103.333 -55 -148s-52.333 -78.667 -85 -102c-98.667 -70 -211.334 -108.333 -338.001 -115l-30 -119l-72 56l-94 -86l-53 18l40 170c-76 42.667 -132.167 130.834 -168.5 264.501s-47.5 276.167 -33.5 427.5zM317.502 587.999
c1 -92.667 11.833 -182.998 32.5 -270.998l176 758c-35.333 -7.33301 -60.333 -18.333 -75 -33c-42 -38.667 -75 -100.834 -99 -186.501s-35.5 -174.834 -34.5 -267.501zM545.002 190.001c59.333 8 100.333 29.333 123 64c20.667 34 38.5 85.833 53.5 155.5
s23.833 148 26.5 235s-5 173.167 -23 258.5z" />
    <glyph glyph-name="ugrave" unicode="&#xf9;" horiz-adv-x="1054" 
d="M68 494c0 167.333 2.66699 302.667 8 406s17 223.333 35 360l67 -27l80 61l76 -47l28 10c-10.667 -108.667 -20.5 -240 -29.5 -394s-11.167 -271 -6.5 -351c7.33301 -129.333 42.166 -210.833 104.499 -244.5s150.166 -16.5 263.499 51.5c26 60 39 230 39 510
c3.33301 278 6 438.667 8 482l56 14l69 -139l90 131l48 2c-13.333 -478.667 -15.666 -911.667 -6.99902 -1299l-51 17l-69 -60l-76 50l-60 -29c-2 12 -10.667 39.333 -26 82c-55.333 -24 -116 -43.167 -182 -57.5s-129.167 -20.666 -189.5 -18.999
s-104.5 12.834 -132.5 33.501c-32 22.667 -58.5 55.667 -79.5 99s-35.667 90.666 -44 141.999s-13.666 92.666 -15.999 123.999s-3.5 62 -3.5 92zM186 1640l56 39l135 -55l35 135l37 -4l223 -311l-27 -14l-74 30l-63 -69z" />
    <glyph glyph-name="uacute" unicode="&#xfa;" horiz-adv-x="1054" 
d="M68 494c0 167.333 2.66699 302.667 8 406s17 223.333 35 360l67 -27l80 61l76 -47l28 10c-10.667 -108.667 -20.5 -240 -29.5 -394s-11.167 -271 -6.5 -351c7.33301 -129.333 42.166 -210.833 104.499 -244.5s150.166 -16.5 263.499 51.5c26 60 39 230 39 510
c3.33301 278 6 438.667 8 482l56 14l69 -139l90 131l48 2c-13.333 -478.667 -15.666 -911.667 -6.99902 -1299l-51 17l-69 -60l-76 50l-60 -29c-2 12 -10.667 39.333 -26 82c-55.333 -24 -116 -43.167 -182 -57.5s-129.167 -20.666 -189.5 -18.999
s-104.5 12.834 -132.5 33.501c-32 22.667 -58.5 55.667 -79.5 99s-35.667 90.666 -44 141.999s-13.666 92.666 -15.999 123.999s-3.5 62 -3.5 92zM438 1423l230 353l47 4l-15 -82l123 10l-12 -49l43 -19l-272 -241l-50 49l-71 -45z" />
    <glyph glyph-name="ucircumflex" unicode="&#xfb;" horiz-adv-x="1054" 
d="M68 494c0 167.333 2.66699 302.667 8 406s17 223.333 35 360l67 -27l80 61l76 -47l28 10c-10.667 -108.667 -20.5 -240 -29.5 -394s-11.167 -271 -6.5 -351c7.33301 -129.333 42.166 -210.833 104.499 -244.5s150.166 -16.5 263.499 51.5c26 60 39 230 39 510
c3.33301 278 6 438.667 8 482l56 14l69 -139l90 131l48 2c-13.333 -478.667 -15.666 -911.667 -6.99902 -1299l-51 17l-69 -60l-76 50l-60 -29c-2 12 -10.667 39.333 -26 82c-55.333 -24 -116 -43.167 -182 -57.5s-129.167 -20.666 -189.5 -18.999
s-104.5 12.834 -132.5 33.501c-32 22.667 -58.5 55.667 -79.5 99s-35.667 90.666 -44 141.999s-13.666 92.666 -15.999 123.999s-3.5 62 -3.5 92zM178 1452l223 344l93 -18l45 55l77 -27l62 17l244 -344l-11 -13l-45 27l-28 -78l-50 29l-59 -21l-201 222l-161 -222l-45 -18
l-48 59l-75 -22z" />
    <glyph glyph-name="udieresis" unicode="&#xfc;" horiz-adv-x="1054" 
d="M68 494c0 167.333 2.66699 302.667 8 406s17 223.333 35 360l67 -27l80 61l76 -47l28 10c-10.667 -108.667 -20.5 -240 -29.5 -394s-11.167 -271 -6.5 -351c7.33301 -129.333 42.166 -210.833 104.499 -244.5s150.166 -16.5 263.499 51.5c26 60 39 230 39 510
c3.33301 278 6 438.667 8 482l56 14l69 -139l90 131l48 2c-13.333 -478.667 -15.666 -911.667 -6.99902 -1299l-51 17l-69 -60l-76 50l-60 -29c-2 12 -10.667 39.333 -26 82c-55.333 -24 -116 -43.167 -182 -57.5s-129.167 -20.666 -189.5 -18.999
s-104.5 12.834 -132.5 33.501c-32 22.667 -58.5 55.667 -79.5 99s-35.667 90.666 -44 141.999s-13.666 92.666 -15.999 123.999s-3.5 62 -3.5 92zM243 1499.5c-2 27 0.333984 59.4971 7.00098 97.4971c2.66699 26.667 11.834 50.667 27.501 72s34.5 37.5 56.5 48.5
s46 16.333 72 16s49.667 -7.5 71 -21.5c10 -5.33301 16.667 -24.666 20 -57.999s0.833008 -69.166 -7.5 -107.499s-21.833 -65.166 -40.5 -80.499c-26.667 -24 -59.334 -40 -98.001 -48s-64.334 -5 -77.001 9c-18.667 21.333 -29 45.5 -31 72.5zM618.001 1508
c-2 27.333 0.334961 60.002 7.00195 98.002c5.33301 54.667 33.166 95.167 83.499 121.5s98.166 23.833 143.499 -7.5c9.33301 -5.33301 15.333 -24.666 18 -57.999s0 -69 -8 -107s-21 -64.667 -39 -80c-26.667 -24.667 -59 -40.834 -97 -48.501
s-63.667 -3.83398 -77 11.499c-18.667 19.333 -29 42.666 -31 69.999z" />
    <glyph glyph-name="yacute" unicode="&#xfd;" horiz-adv-x="940" 
d="M33 1253l37 37l110 -84l6 121l78 10l223 -516l33 -4l125 504l31 6l41 -117l84 99l26 -35l76 26l-336 -1275l-37 -21l-43 92l-94 -92l-45 31l-24 -8l125 561l-109 4zM414 1456l229 352l47 4l-14 -81l123 10l-13 -49l43 -19l-272 -241l-49 49l-72 -45z" />
    <glyph glyph-name="ydieresis" unicode="&#xff;" horiz-adv-x="940" 
d="M33 1253l37 37l110 -84l6 121l78 10l223 -516l33 -4l125 504l31 6l41 -117l84 99l26 -35l76 26l-336 -1275l-37 -21l-43 92l-94 -92l-45 31l-24 -8l125 561l-109 4zM192 1499.5c-2 27 0.332031 59.5 6.99902 97.5c2.66699 26.667 11.834 50.667 27.501 72
s34.5 37.5 56.5 48.5s46 16.333 72 16s49.667 -7.5 71 -21.5c9.33301 -8 15.5 -28.333 18.5 -61s0.5 -67.667 -7.5 -105s-21.333 -64 -40 -80c-26.667 -24 -59.167 -40 -97.5 -48s-63.833 -5 -76.5 9c-18.667 21.333 -29 45.5 -31 72.5zM566.499 1508
c-2.33301 27.333 -0.166992 60.002 6.5 98.002c5.33301 54.667 33.333 95.167 84 121.5s98.667 23.833 144 -7.5c9.33301 -5.33301 15.333 -24.666 18 -57.999s0 -69 -8 -107s-21 -64.667 -39 -80c-26.667 -24.667 -59 -40.834 -97 -48.501s-63.667 -3.83398 -77 11.499
c-18.667 19.333 -29.167 42.666 -31.5 69.999z" />
    <glyph glyph-name="OE" unicode="&#x152;" horiz-adv-x="1609" 
d="M60.5 711.5c-1 85 1.49902 160.169 7.49902 225.502s13.333 119.666 22 162.999c19.333 85.333 44.833 158.833 76.5 220.5s69.334 111.167 113.001 148.5s90.334 65.833 140.001 85.5s105.834 33.167 168.501 40.5c18 1.33301 48.667 0.666016 92 -2.00098l25 -147
l112 74l-12 49l680 41l-29 -43l51 -35l-96 -49l98 -82l-18 -41l-354 -39l-13 -387l381 14l11 -37l-80 -90l67 -41l-8 -43l-367 -51l13 -450l364 16l8 -29l-122 -51l137 -49l-51 -76l24 -43l-459 -39l17 70l-135 -6l4 82c-52.667 -48.667 -115.334 -85 -188.001 -109
s-141.834 -34.833 -207.501 -32.5s-126.167 12 -181.5 29s-96 39.5 -122 67.5c-40.667 40.667 -74 97.5 -100 170.5s-43.667 149.167 -53 228.5s-14.5 161.5 -15.5 246.5zM349.999 600.502c11.333 -120.333 38.665 -214.168 81.998 -281.501c15.333 -23.333 42 -41 80 -53
s78.833 -12.167 122.5 -0.5s76.5 37.834 98.5 78.501c33.333 63.333 57.333 135.5 72 216.5s20.334 158.5 17.001 232.5s-10.833 142.167 -22.5 204.5s-26.167 112.833 -43.5 151.5c-18 43.333 -44 74.333 -78 93s-68.167 25.167 -102.5 19.5s-66.666 -18.167 -96.999 -37.5
s-52.5 -42.333 -66.5 -69c-24.667 -44 -44 -117.333 -58 -220s-15.333 -214.167 -4 -334.5z" />
    <glyph glyph-name="oe" unicode="&#x153;" horiz-adv-x="1413" 
d="M74 690c14 142 33.832 252.169 59.499 330.502s62.5 138.166 110.5 179.499c42.667 36 99.334 66.167 170.001 90.5s143 31.166 217 20.499l-4 -121l106 78l561 32l17 -77l-119 -84l115 -35l-17 -41l-278 -25l-6 -333l278 10l-33 -101l56 -22l-9 -53l-288 -29l10 -360
l291 22l-21 -100l51 -25l-20 -72l-453 -28l9 100l-107 -8c-56 -32.667 -114.5 -55.334 -175.5 -68.001s-115.5 -16.834 -163.5 -12.501s-94 14.166 -138 29.499c-54.667 18.667 -100.5 64.834 -137.5 138.501s-62.167 159.834 -75.5 258.501s-15.333 200.334 -6 305.001z
M314.999 501.002c8 -106 29.3359 -187.667 64.0029 -245c17.333 -28 45.333 -47.333 84 -58s77.5 -11 116.5 -1s67.167 29 84.5 57c22 35.333 40.833 90.833 56.5 166.5s25 155.334 28 239.001s-6.83301 163.5 -29.5 239.5s-58.334 128.667 -107.001 158
c-22.667 14 -49.834 20.333 -81.501 19s-58.834 -12 -81.501 -32c-49.333 -46.667 -86 -122.334 -110 -227.001s-32 -210 -24 -316z" />
    <glyph glyph-name="Ydieresis" unicode="&#x178;" horiz-adv-x="1079" 
d="M35 1360l65 10l17 29l114 -88v141l50 2l280 -565l262 586l47 8l-10 -152l146 115l22 -25h49l-375 -790l5 -621l-56 13l-41 -33l-84 108l-73 -129l-35 4l-19 619zM236.5 1620.5c-2.33301 29 0.167969 62.832 7.50098 101.499c5.33301 36.667 22.166 68.667 50.499 96
s60.333 43.333 96 48s70.834 -3 105.501 -23c10.667 -6.66699 17.667 -27.167 21 -61.5s0.666016 -71.166 -8.00098 -110.499s-23.334 -67.333 -44.001 -84c-29.333 -24 -65.333 -40.5 -108 -49.5s-71 -5.5 -85 10.5c-21.333 19.333 -33.166 43.5 -35.499 72.5z
M648.001 1630.5c-2.66699 28.333 -0.333008 62.5 7 102.5c5.33301 36.667 22.333 68.5 51 95.5s60.667 42.5 96 46.5s70.333 -4 105 -24c11.333 -6.66699 18.5 -27 21.5 -61s-0.166992 -70.667 -9.5 -110s-24.333 -67.666 -45 -84.999c-29.333 -24 -64.5 -40.5 -105.5 -49.5
s-69.167 -5.5 -84.5 10.5c-21.333 21.333 -33.333 46.166 -36 74.499z" />
    <glyph glyph-name="circumflex" unicode="&#x2c6;" horiz-adv-x="1169" 
d="M154 1188l252 332l102 -19l51 53l88 -24l70 16l274 -332l-12 -12l-51 25l-31 -74l-57 27l-66 -19l-225 213l-182 -213l-52 -18l-53 57l-86 -22z" />
    <glyph glyph-name="ring" unicode="&#x2da;" horiz-adv-x="948" 
d="M82.5 1332c-5 38.667 -1.83203 76.834 9.50098 114.501s34.5 71.5 69.5 101.5s78.167 50.667 129.5 62c163.333 38.667 299.666 40 408.999 4l7 -103l120 25c36.667 -46.667 52.667 -107.334 48 -182.001s-28.667 -126.667 -72 -156
c-16 -10.667 -34.167 -21.167 -54.5 -31.5s-50 -22 -89 -35s-78.667 -22 -119 -27s-87.833 -4.33301 -142.5 2s-108.667 20.5 -162 42.5c-43.333 16.667 -78.5 41.667 -105.5 75s-43 69.333 -48 108zM271.501 1367c-4.33301 -20.667 7.50293 -41.332 35.5029 -61.999
c40 -22 93.167 -30.667 159.5 -26s119.166 16.667 158.499 36c20 8 33.333 21.167 40 39.5s4 38.5 -8 60.5c-12.667 20 -39.334 33.167 -80.001 39.5s-83.334 6.83301 -128.001 1.5c-54 -7.33301 -95 -18.333 -123 -33c-32 -16.667 -50.167 -35.334 -54.5 -56.001z" />
    <glyph glyph-name="afii10023" unicode="&#x401;" horiz-adv-x="839" 
d="M43 1366l141 84l-141 55l57 58l-30 26l710 60l-28 -60l55 -26l-113 -58l113 -84l-27 -28l-370 -27v-397h370l27 -29l-84 -86l57 -29v-57l-370 -55v-455l370 31l27 -31l-139 -53l139 -58l-55 -59l28 -57l-454 -27l28 57h-141v113h-86v1135h-57zM146 1829
c2 23.333 7.50098 44.667 16.501 64s25.333 35.333 49 48s52.167 19 85.5 19c0 -17.333 1.66699 -38.5 5 -63.5s5.33301 -45 6 -60s-0.833008 -31.333 -4.5 -49s-12.834 -33 -27.501 -46s-35.667 -24.833 -63 -35.5l-14.5 7.5c-7 3.66699 -11.833 6.5 -14.5 8.5
c-18.667 13.333 -28 27 -28 41c-8.66699 20.667 -12 42.667 -10 66zM467.001 1817c0 46.667 16.167 80.8311 48.5 102.498s83.166 26.167 152.499 13.5c-10.667 -19.333 -25 -52.666 -43 -99.999s-32.333 -80.666 -43 -99.999c-11.333 11.333 -31.166 26.333 -59.499 45
s-46.833 31.667 -55.5 39z" />
    <glyph glyph-name="afii10017" unicode="&#x410;" horiz-adv-x="1236" 
d="M39 -25l323 1604l41 23l80 -91l133 115l136 -166l86 148h12l348 -1598l-37 -16l-104 139l-37 -119l-76 47l-41 -41l-78 240h-477l-59 -276l-53 30l-35 -32l-39 116l-99 -139zM408 502l395 26l-156 656l-82 14z" />
    <glyph glyph-name="afii10018" unicode="&#x411;" horiz-adv-x="1263" 
d="M49 1571l-0.000976562 30.998l825 57l-30 -57l57 -62l-145 -57l145 -58l-27 -30l-413 -31v-412c76.667 0 139 -0.833008 187 -2.5s103 -6.83398 165 -15.501s112 -21.667 150 -39c51.333 -27.333 95.5 -57.166 132.5 -89.499s65.333 -64.666 85 -96.999
s34 -63.166 43 -92.499s13.5 -58.666 13.5 -87.999c0 -51.333 -16.167 -103.333 -48.5 -156s-74.666 -100.834 -126.999 -144.501s-112.833 -85.5 -181.5 -125.5s-138.167 -74.667 -208.5 -104s-140.5 -54 -210.5 -74v58l-29 -27l-31 57l-88 -30v-27l-57 57l-61 -30v61h-27
v1294h-62l31 58l-31 30l119 88zM460.999 218.998c53.333 20 98.332 37.835 134.999 53.502s73.834 34.5 111.501 56.5s67.667 44.167 90 66.5s40.666 48.333 54.999 78s21.5 61.5 21.5 95.5c-7.33301 36.667 -23.666 67 -48.999 91s-54 40.833 -86 50.5
s-67.333 14.5 -106 14.5c-18.667 0 -37.5 -1 -56.5 -3s-38.167 -5.33301 -57.5 -10s-34.5 -11.834 -45.5 -21.501s-15.167 -20.834 -12.5 -33.501v-438z" />
    <glyph glyph-name="afii10019" unicode="&#x412;" horiz-adv-x="1179" 
d="M57 1567c102 32.667 207.333 54.667 316 66s214.334 9.66602 317.001 -5.00098c119.333 -17.333 212.666 -55.166 279.999 -113.499s101 -139.166 101 -242.499c0 -19.333 -4.16699 -42 -12.5 -68s-21.5 -56 -39.5 -90s-44.833 -71.167 -80.5 -111.5
s-77.5 -79.5 -125.5 -117.5c249.333 -127.333 355 -280.333 317 -459c-13.333 -53.333 -45.5 -107.333 -96.5 -162s-112 -103.667 -183 -147s-144.333 -81.833 -220 -115.5s-149.167 -60.834 -220.5 -81.501c-21.333 60.667 -32.333 92.667 -33 96l-121 -41l-37 76l-94 -26
v1204l-39 53l96 59l-114 82l45 60zM387 1319c-9.33301 -137.333 -5.33398 -273.333 11.999 -408c88 24 162 56.667 222 98s102.333 80.333 127 117c22.667 34 32.334 65 29.001 93s-13.333 51.5 -30 70.5s-39.667 35.5 -69 49.5c-86 38.667 -183 32 -291 -20zM402.999 649
c-16.667 -136 -15.001 -286 4.99902 -450h1l1 1h1l1 1h1l1 1h1h1l1 1h1l1 1h1l2 1c120.667 51.333 204 92.333 250 123c90.667 61.333 132.334 133 125.001 215c-4 40 -21 71.833 -51 95.5s-65.5 37.834 -106.5 42.501s-82.667 4.16699 -125 -1.5
s-79.5 -15.834 -111.5 -30.501z" />
    <glyph glyph-name="afii10020" unicode="&#x413;" horiz-adv-x="927" 
d="M39 1559v26l827 57l-30 -57l57 -84l-148 -59l148 -29l-27 -27l-415 -59v-457v-256l30 -600l-57 -28l-59 172l-62 -172l-57 57l-60 -29l-26 1286h-62l27 86l-27 27l119 57z" />
    <glyph glyph-name="afii10021" unicode="&#x414;" horiz-adv-x="1454" 
d="M68 -80c-27.333 80 -27.332 172.331 0.000976562 276.998c13.333 5.33301 23.333 10 30 14c24.667 9.33301 42.667 14 54 14c22 0 43 4.33301 63 13c9.33301 4.66699 16.333 9.33398 21 14.001h55l303 1358l55 -29l82 55l86 -137l55 111h54l305 -1358h137h57v-303
c-26.667 -10 -61 -19.333 -103 -28s-72.333 -17.667 -91 -27v108h-940c0 -18.667 -4.83301 -46 -14.5 -82s-14.5 -63.333 -14.5 -82c-16.667 5.33301 -38.334 10.833 -65.001 16.5l-65 14c-16.667 3.66699 -31.5 9.83398 -44.5 18.501s-19.5 19.667 -19.5 33z
M541.001 251.998h413l-194 913z" />
    <glyph glyph-name="afii10022" unicode="&#x415;" horiz-adv-x="876" 
d="M45 1518l57 26l-26 58l717 30l-31 -30l57 -58l-114 -26l114 -86l-26 -58l-375 -28v-404l401 31v-31l-84 -115l84 -28l-26 -29l-375 -55l28 -461h373v-29l-114 -28l114 -58l-26 -86v-28l-461 -58l28 86h-143v115l-86 -29v1178h-55v29l141 114z" />
    <glyph glyph-name="afii10024" unicode="&#x416;" horiz-adv-x="1841" 
d="M49 156c8.66699 8.66699 17.3359 26.5049 26.0029 53.5049s18.334 45.167 29.001 54.5c46 56.667 119.833 140.334 221.5 251.001s175.5 194.334 221.5 251.001l-443 524c-8.66699 10 -15.334 26.167 -20.001 48.5s-7.16699 40.666 -7.5 54.999s-0.5 35.833 -0.5 64.5
c26.667 -6 47.5 -5 62.5 3s24.833 19 29.5 33s10.834 29 18.501 45s17.167 26.667 28.5 32c42 -26.667 81.5 -59.5 118.5 -98.5s70.167 -80.167 99.5 -123.5l84.5 -130c27 -43.333 57.833 -88.5 92.5 -135.5s69.667 -87.833 105 -122.5v471c-6 18 -10.333 35.167 -13 51.5
s-2.83398 31.666 -0.500977 45.999s7.66602 25.333 15.999 33s21.666 10 39.999 7s40.833 -12.167 67.5 -27.5c58 0 104 9.66699 138 29c8.66699 0 18.5 2.33301 29.5 7s26.5 11.667 46.5 21s41 17.666 63 24.999v-610c0 -4.66699 1.33301 -9.66699 4 -15
c6 -8 14 -12 24 -12c190.667 302.667 329.334 515 416.001 637l36 -19.5c15.333 -8.33301 27 -14.333 35 -18s18.333 -7.16699 31 -10.5s25.334 -5 38.001 -5c26.667 -13.333 46.167 -47 58.5 -101s11.166 -94.667 -3.50098 -122c-180.667 -207.333 -329 -392.333 -445 -555
l124.5 -130l140.5 -146c42 -42 83.667 -80 125 -114c6 -9.33301 17.167 -24.666 33.5 -45.999s27.666 -37.833 33.999 -49.5s12.5 -27.334 18.5 -47.001s6.33301 -40.334 1 -62.001s-16 -45.5 -32 -71.5c-4 4 -8.33301 7.5 -13 10.5s-9.83398 6 -15.501 9l-10.5 5.5
c-8 2.66699 -13.333 4 -16 4c-9.33301 -18.667 -18.5 -49.167 -27.5 -91.5s-18.5 -76.833 -28.5 -103.5c-74 82 -166 196.833 -276 344.5s-184.667 245.167 -224 292.5l-28 -27v-583c-102 107.333 -212.667 116.666 -332 27.999c0 65.333 -4.83301 157.833 -14.5 277.5
s-14.5 212.167 -14.5 277.5h-55l-108.5 -137.5l-98 -128.5l-120.5 -162l-115 -155c-22.667 63.333 -50 128 -82 194c0 -8.66699 -4.83301 -15.334 -14.5 -20.001s-22 -9.66699 -37 -15s-26.5 -12 -34.5 -20c0 1.33301 -1.33301 6 -4 14
c-0.666992 0.666992 -2 2.16699 -4 4.5s-3.5 4.16602 -4.5 5.49902s-2.83301 2.5 -5.5 3.5s-5.66699 1.5 -9 1.5z" />
    <glyph glyph-name="afii10025" unicode="&#x417;" horiz-adv-x="1032" 
d="M51 240c0 13.333 1.00781 21.001 3.00781 23.001s10.667 3 26 3c19.333 19.333 57.666 29 114.999 29h81c81.333 0 166.666 28 255.999 84c46.667 32.667 82 62.667 106 90s36 54.666 36 81.999c0 53.333 -16.833 94.666 -50.5 123.999s-73.5 44 -119.5 44h28
c-28 0 -113.333 -28 -256 -84c-14 8 -33.333 16.667 -58 26s-42.667 19.666 -54 30.999l57 27l-16 14c-16.667 10 -30.334 15 -41.001 15l31 143c12 12 21.833 21.167 29.5 27.5s21 14.5 40 24.5s42.167 20 69.5 30c61.333 28.667 107.333 52.5 138 71.5
s60.334 42.833 89.001 71.5c29.333 30 51 60.333 65 91s21 66 21 106c0 13.333 -0.333008 23.166 -1 29.499s-3.33398 12.5 -8.00098 18.5s-12 9 -22 9c-96 0 -171 -28 -225 -84c-70 -38 -117.667 -57 -143 -57h-53l26 84l-57 -27l-55 57l55 56h-84l-29 26h29v31
c0 2.66699 0.666992 5.66699 2 9s3.33301 6.66602 6 9.99902s5.5 6.5 8.5 9.5s7.5 6.66699 13.5 11l16 11.5l19.5 13.5l22 14.5l25.5 16l28 18c27.333 13.333 47 22.666 59 27.999s31.5 11.5 58.5 18.5s54.167 10.5 81.5 10.5c25.333 12.667 46.833 20.334 64.5 23.001
s43.167 4 76.5 4s64.166 -2.66699 92.499 -8s57.166 -15.166 86.499 -29.499s50.5 -25.333 63.5 -33l68.5 -42.5c56 -85.333 84 -170 84 -254c0 -25.333 -0.666992 -45.166 -2 -59.499s-6.33301 -34.333 -15 -60s-22 -52.167 -40 -79.5l-21.5 -33.5l-21 -32l-18 -25.5
c-7.66699 -10.667 -13.834 -18.167 -18.501 -22.5s-10.5 -9.33301 -17.5 -15s-13.833 -9.5 -20.5 -11.5s-14 -3 -22 -3c-15.333 -13.333 -25.333 -21 -30 -23s-14.667 -3 -30 -3c15.333 0 25.166 -1 29.499 -3s14.5 -10 30.5 -24c8.66699 0 22.167 -5.16699 40.5 -15.5
s32.833 -15.5 43.5 -15.5c54.667 -54.667 91.834 -106.667 111.501 -156s29.5 -110.666 29.5 -183.999c0 -82.667 -28.667 -167.334 -86 -254.001l-59.5 -59c-11.667 -11.333 -31 -28.166 -58 -50.499s-54.167 -41.833 -81.5 -58.5l-35 -22
c-16.667 -10.667 -29.334 -18.5 -38.001 -23.5s-21.667 -11.333 -39 -19s-36 -14.167 -56 -19.5c-28 -7.33301 -59 -16.666 -93 -27.999s-60.333 -19.333 -79 -24s-36.334 -7 -53.001 -7c-13.333 0 -23.333 0.333008 -30 1s-13.167 3.33398 -19.5 8.00098s-9.5 12 -9.5 22
v28l-53 -28h-9.5h-10.5c-1.33301 0 -4.5 0.166992 -9.5 0.5s-8.5 0.666016 -10.5 0.999023s-5 1 -9 2s-7.16699 2.16699 -9.5 3.5l-9 5c-3.66699 2 -7 4.33301 -10 7s-5.83301 5.66699 -8.5 9l86 84l-115 -30l29 59z" />
    <glyph glyph-name="afii10026" unicode="&#x418;" horiz-adv-x="1128" 
d="M68 1632l88 -116l57 116l59 -57l29 31v-762h59l408 788v31l59 -174l146 143h59l29 -1605h-29l-28 -31l-89 117l-88 -117h-30l-29 878h-27l-409 -878l-60 31l-30 -31l-58 174l-86 -174v31z" />
    <glyph glyph-name="afii10027" unicode="&#x419;" horiz-adv-x="1110" 
d="M59 39v1603l58 -114l88 114l31 -57l57 29v-758h57l381 786l27 33l61 -178l146 145h57l31 -1603h-58l-30 -31l-58 117l-88 -117h-31l-30 875h-27l-407 -875l-58 31l-61 -31l-29 176l-88 -176zM379 1777c0 18.667 2.00098 40.3301 6.00098 64.9971s6 41.334 6 50.001
c0 7.33301 5 13 15 17c8 2.66699 13.333 4 16 4c56 14.667 153.667 22 293 22v-131c0 -5.33301 2.33301 -12.166 7 -20.499s7 -16 7 -23s-4.66699 -14.167 -14 -21.5c0 -10.667 -10.667 -20.167 -32 -28.5s-40 -12.5 -56 -12.5c-114.667 0 -193.334 13.667 -236.001 41
c-8 6.66699 -12 19.334 -12 38.001z" />
    <glyph glyph-name="afii10028" unicode="&#x41a;" horiz-adv-x="1089" 
d="M70 -25l20 1596l53 -12l23 20l78 -141l78 166l45 -2l-5 -801l418 784l49 -37l84 21l-24 -152l131 111l24 -15l-315 -643l301 -782l-26 -37l-140 99v-132l-53 27l-49 -33l-273 701l-145 -207l2 -490l-61 23l-45 -33l-76 94l-66 -133z" />
    <glyph glyph-name="afii10029" unicode="&#x41b;" horiz-adv-x="1269" 
d="M35 6l418 1647l47 16l71 -119l109 127l76 -57l78 33l399 -1628l-70 -19l-135 168l-31 -192l-65 6l-283 1202l-28 -4l-246 -1178l-56 51l-71 -43l-25 146l-170 -170z" />
    <glyph glyph-name="afii10030" unicode="&#x41c;" horiz-adv-x="1603" 
d="M53 -18l217 1589l56 -10l49 26l63 -192l74 170l61 16l220 -807l47 -6l241 799l52 -25l100 70l72 -51l55 8l186 -1577l-71 53l-45 -80l-95 123l-47 -139l-28 2l-97 858l-47 -10l-252 -819l-10 -5l-74 170l-35 -159l-20 2l-221 796l-43 2l-117 -819l-22 10l-50 -22l-69 131
l-121 -119z" />
    <glyph glyph-name="afii10031" unicode="&#x41d;" horiz-adv-x="1232" 
d="M68 29l24 1577l39 -13l39 27l74 -154l90 158l47 -8l-4 -612l463 14l12 612l49 12l60 -147l88 143l57 -45l59 17l-37 -1573l-65 -31l-49 193l-60 -168l-69 43l-37 -17l2 623l-488 -25l-22 -589l-55 14l-54 -62l-65 142l-72 -140z" />
    <glyph glyph-name="afii10032" unicode="&#x41e;" horiz-adv-x="1245" 
d="M74 643c-14 208 -4.66699 383.999 28 527.999c68 314.667 240 486.334 516 515.001c6.66699 0.666992 39 -0.333008 97 -3l24 -151l127 51l31 -145l133 32c62.667 -83.333 99 -165 109 -245c62.667 -554.667 1.66699 -918.667 -183 -1092
c-98.667 -92.667 -229.667 -137 -393 -133c-147.333 4 -253 38 -317 102c-96.667 100.667 -154 281 -172 541zM367 833.999c-6 -210.667 24.001 -367 90.001 -469c28 -40.667 77 -62 147 -64c77.333 -2 132.666 28 165.999 90c67.333 124 98 278.333 92 463
c-4 152.667 -27 275.667 -69 369c-36.667 87.333 -99 126 -187 116c-78 -10 -134.667 -46.667 -170 -110c-42 -74 -65 -205.667 -69 -395z" />
    <glyph glyph-name="afii10033" unicode="&#x41f;" horiz-adv-x="1376" 
d="M55 1362l107 72v2l-105 80l62 94l-27 41l176 4l11 10l4 -10l153 6l10 29l46 -7v-20l702 23l2 4l31 -4l61 2l-31 -76l62 -58l-80 -47v-49l80 -22l-6 -58l-76 -2l-18 -1337l-68 41l-59 -78l-60 166l-67 -168l-58 16l4 1352l-295 -8l-129 -4l-18 -1317l-68 41l-59 -78
l-61 166l-66 -168l-57 16l4 1321l-94 -10z" />
    <glyph glyph-name="afii10034" unicode="&#x420;" horiz-adv-x="1122" 
d="M57 1466l13.001 60.002c141.333 55.333 295 82.166 461 80.499s284.667 -29.834 356 -84.501c48.667 -39.333 87.5 -89.666 116.5 -150.999s46.5 -124 52.5 -188s3.16699 -127.333 -8.5 -190s-31.834 -117.334 -60.501 -164.001
c-108.667 -173.333 -301.667 -296 -579 -368c-10 -146.667 -15 -304.334 -15 -473.001l-45 -23l-104 215l-84 -174l-33 27c-4.66699 128.667 -8.66699 320.834 -12 576.501s-3.33301 462.167 0 619.5l51 78l-55 30l120 111zM395.001 758.002
c58 7.33301 112.172 23.8311 162.505 49.498s89.166 50.834 116.499 75.501c29.333 27.333 54 60 74 98s31.667 79.333 35 124s-9.33398 86 -38.001 124c-18.667 24.667 -40.334 43.5 -65.001 56.5s-48.334 20.667 -71.001 23s-48 0.5 -76 -5.5s-51.333 -12.5 -70 -19.5
s-39.334 -15.833 -62.001 -26.5c-0.666992 -11.333 -2.66699 -177.666 -6 -498.999z" />
    <glyph glyph-name="afii10035" unicode="&#x421;" horiz-adv-x="954" 
d="M61 913c6 68 19.1689 135.505 39.502 202.505s47.166 131 80.499 192s75.333 115.333 126 163s106 82.5 166 104.5c128 45.333 266.667 35.666 416 -29.001l8 -39l-127 -69l111 -107l-70 -35l39 -67c-153.333 42.667 -270.666 30.334 -351.999 -36.999
c-39.333 -31.333 -72.833 -90.333 -100.5 -177s-44.667 -177.334 -51 -272.001s1.66699 -185.334 24 -272.001s59.166 -144.667 110.499 -174c60.667 -36.667 173.334 -37.334 338.001 -2.00098c-2 -4.66699 -3.66699 -12.334 -5 -23.001s-3 -18.667 -5 -24l-6 -29l98 -47
l-156 -102l134 -35l-17 -37c-60 -21.333 -125.333 -34.166 -196 -38.499s-138.834 -0.333008 -204.501 12s-126.334 35.666 -182.001 69.999s-97.5 77.166 -125.5 128.499c-94.667 170 -125.667 417.667 -93 743z" />
    <glyph glyph-name="afii10036" unicode="&#x422;" horiz-adv-x="1028" 
d="M29 1270l121 71l-119 80l67 92l-28 39l897 37l-37 -73l69 -58l-155 -80l155 -35l-6 -57l-340 -18l-8 -1241l-61 -25l-119 160l-90 -156l-23 17l-4 1239l-305 -25z" />
    <glyph glyph-name="afii10037" unicode="&#x423;" horiz-adv-x="1161" 
d="M27 1628l171.999 -94l22 147c78.667 -44 119 -68.333 121 -73c11.333 -21.333 84.333 -182.666 219 -483.999l64 -116l182 682c16 -26.667 31 -53.334 45 -80.001l29 -49c10.667 2.66699 49.334 14 116.001 34l133 39l-442 -1634l-98 113
c-51.333 -41.333 -80.666 -63.333 -87.999 -66c-4 -2 -42.333 0 -115 6l76.5 342.5l54.5 244l19 87.5l-41 -20c-100.667 118 -151.334 178 -152.001 180c-58.667 111.333 -153.667 309.333 -285 594c-1.33301 1.33301 -12 50.333 -32 147z" />
    <glyph glyph-name="afii10038" unicode="&#x424;" horiz-adv-x="1710" 
d="M55 807c-18 144 0 251.666 54 322.999c89.333 122.667 277.666 210.334 564.999 263.001v221l55 -6l64 49l79 -215l91 239l45 -6l-4 -245c23.333 1.33301 58 0.333008 104 -3c307.333 -20 495 -162 563 -426c4 -19.333 8 -51.333 12 -96l-141 -45l68 -115l-135 -53
l51 -125c-72.667 -74.667 -145.667 -121 -219 -139c-115.333 -32.667 -221.333 -56.667 -318 -72l-4 -317l-70 41l-59 -78l-61 164l-68 -166l-57 16v312c-193.333 2 -336.666 40.667 -429.999 116c-103.333 83.333 -165 204.333 -185 363zM350 812.999
c10 -76.667 46.333 -126.333 109 -149c64 -23.333 135 -37 213 -41v471c-126 -31.333 -220.333 -74.333 -283 -129c-36 -32 -49 -82.667 -39 -152zM993 659c106.667 26.667 194 61 262 103c79.333 50.667 107.333 117 84 199c-19.333 74 -62.333 123.667 -129 149
c-44.667 18.667 -115 27 -211 25z" />
    <glyph glyph-name="afii10039" unicode="&#x425;" horiz-adv-x="1042" 
d="M55 1516l49 4l29 82l92 -35l56 45l237 -543l248 559l22 4l62 -116l98 73l25 -14l-277 -729l291 -817l-6 -4l-115 59l-20 -100l-51 22l-56 -29l-233 566l-232 -574l-59 23l-78 -12l-37 63l-39 -4l275 737z" />
    <glyph glyph-name="afii10040" unicode="&#x426;" horiz-adv-x="1505" 
d="M47 709c-4 281.333 2.33301 583.67 19 907.003l30 6c14.667 2 23 4 25 6l57 -182l76 201l86 -72l72 6c-1.33301 -26 -10.333 -103 -27 -231c-12.667 -141.333 -20.334 -235 -23.001 -281c-12 -256.667 -4.33301 -471 23 -643c34.667 -75.333 122 -106 262 -92
c50.667 7.33301 102 17.666 154 30.999c6 3.33301 28.333 10.666 67 21.999l-14 1188l43 -6l68 49l84 -219l94 243l47 -6l-21 -1341c86.667 -22.667 143.334 -55.334 170.001 -98.001c81.333 -136 78 -307.333 -10 -514l-24 6l-23 114l-84 -100l-31 33l-67 -8
c13.333 52.667 22 92.667 26 120c16 113.333 -9.66699 179 -77 197c-38.667 34.667 -105.667 47 -201 37v-2c-260 -100 -474.333 -96.667 -643 10c-101.333 66.667 -154 273 -158 619z" />
    <glyph glyph-name="afii10041" unicode="&#x427;" horiz-adv-x="1218" 
d="M27 1214c-2 118.667 -0.667969 191.334 3.99902 218.001c5.33301 23.333 10 77.666 14 162.999l2 31l33 4c3.33301 0 14.333 1.33301 33 4c10.667 2.66699 16.667 4 18 4l33 7l31 -95l51 131l92 -73c6 18.667 19 28 39 28
c-39.333 -333.333 -42.666 -567.333 -9.99902 -702c25.333 -59.333 90 -95 194 -107l74 7c30 -2 88 4 174 18l6 752l55 -13l93 66l63 -156l66 162l57 -14l-25 -1618l-45 51l-82 -98l-51 129l-45 -103l-82 31l-12 518c-116.667 -20.667 -217 -31 -301 -31
c-132 0 -235 22 -309 66c-109.333 68 -166 274.667 -170 620z" />
    <glyph glyph-name="afii10042" unicode="&#x428;" horiz-adv-x="2080" 
d="M72 731c-4 277.333 1.99805 585.998 17.998 925.998l33 6l13.5 2c4.33301 0.666992 7.5 1.16699 9.5 1.5s3.33301 0.5 4 0.5l59 -182l78 203l90 -74l78 6c-1.33301 -15.333 -11 -101.333 -29 -258c-13.333 -109.333 -21.666 -198.666 -24.999 -267.999
c-12 -278.667 3 -499.334 45 -662.001c22.667 -84.667 107.334 -120 254.001 -106c56.667 8 110 18 160 30l19 6c-17.333 104.667 -27 227.667 -29 369c-2 289.333 4.66699 598 20 926l33 6l13.5 2c4.33301 0.666992 7.5 1.16699 9.5 1.5s3.33301 0.5 4 0.5l57 -182l80 203
l90 -74l76 6c-4 -50.667 -13 -136.667 -27 -258c-12 -99.333 -20 -188.666 -24 -267.999c-14 -272 1 -492.667 45 -662c22.667 -84.667 106.667 -120 252 -106c55.333 8 109 18 161 30c-1.33301 -1.33301 -2 -5.33301 -2 -12l2 2v10h2l5 1241l59 -6l72 49l86 -221l100 248
l49 -6l-24 -1657l-76 100l-66 -79l-39 61l-90 -18l-14 -15l-27 6l-55 -10c-248 -74 -449.333 -63.667 -604 31c-9.33301 4.66699 -17.666 10.667 -24.999 18l-102 -35l-55 -16c-2 0 -3.66699 -0.666992 -5 -2c-240.667 -69.333 -438.334 -57.666 -593.001 35.001
c-106.667 68.667 -162 285.667 -166 651z" />
    <glyph glyph-name="afii10043" unicode="&#x429;" horiz-adv-x="2234" 
d="M43 750c-2 275.333 4.66797 576.998 20.001 904.998l58 10l55 -184l78 205l86 -74l74 6c-4 -54.667 -13 -136.667 -27 -246c-11.333 -106 -18.666 -191.333 -21.999 -256c-14 -281.333 0.333008 -505.333 43 -672c22.667 -86.667 103.667 -122 243 -106
c54.667 6 106.667 16.333 156 31l18 6c-16.667 100.667 -26 225.667 -28 375c-2 275.333 4.66699 577 20 905l57 10l56 -184l78 205l86 -74l73 6c-4.66699 -66.667 -13.334 -148.667 -26.001 -246c-12.667 -118 -20.334 -203.333 -23.001 -256
c-14 -281.333 0.333008 -505.333 43 -672c22.667 -86.667 104 -122 244 -106c54.667 6 106.667 16.333 156 31c0 -6 -0.666992 -11 -2 -15l4 4l-2 11h2l4 1226l59 -6l68 49l84 -223l96 250l47 -6l-18 -1352c106 -27.333 172.667 -63.333 200 -108
c83.333 -138.667 80 -313.667 -10 -525l-25 7l-22 116l-86 -102l-31 35l-69 -11c12.667 42 22 83.667 28 125c18 114.667 -8.66699 181 -80 199l-41 10l-2 -4l-6 6c-34.667 8.66699 -75 16.334 -121 23.001h-2h-10l-29 -8l-53 -13c-240 -76 -435.333 -65.667 -586 31l-22 21
l-100 -35l-52 -19c-1.33301 0 -2.66602 -0.666992 -3.99902 -2c-234.667 -71.333 -426.334 -59.666 -575.001 35.001c-104 68 -158 288.667 -162 662z" />
    <glyph glyph-name="afii10044" unicode="&#x42a;" horiz-adv-x="1509" 
d="M39 1511l67 86l-40 84l747 -59l37 -84l-141 -51l106 -62l-59 -32l24 -93h-67l-4 -280c216.667 -2 365.334 -22.667 446.001 -62c225.333 -125.333 317.666 -272.666 276.999 -441.999c-26.667 -104.667 -128 -209.667 -304 -315
c-142 -84.667 -292.667 -148.334 -452 -191.001l-35 -10l-18 45l-15 39l-2 2l-88 -59l-10 30l-19 -6l-24 49l-31 -63l-43 37l8 264l11 993l-324 43l-14 78l65 18zM690 307c161.333 52 274.667 98.333 340 139c83.333 50.667 121 111 113 181c-8 78.667 -91.333 118 -250 118
c-68.667 0 -133.667 -8 -195 -24z" />
    <glyph glyph-name="afii10045" unicode="&#x42b;" horiz-adv-x="1562" 
d="M70 1602l98 14l22 -62l33 -43l37 105l80 -68l68 8l2 -575h16c217.333 0 364 -19 440 -57c216.667 -120.667 305.667 -261.334 267 -422.001c-27.333 -103.333 -124.333 -203.666 -291 -300.999c-134 -78 -279.333 -139 -436 -183l-33 -8l-13 29l-6 12l-49 -16l-16 45
l-27 -8l-22 -72l-70 100l-80 -51l-2 53l-6 -2v559zM426 692c-13.333 -122.667 -12.668 -257.667 1.99902 -405c150.667 53.333 254.334 100.333 311.001 141c76 50.667 111 108.667 105 174c-8 79.333 -85.333 119 -232 119c-64.667 0 -126.667 -9.66699 -186 -29zM1171 49
l5 1528l53 -8l80 61l55 -149l35 155l94 -14l-23 -1585l-84 49l-49 -94l-43 123l-41 -97z" />
    <glyph glyph-name="afii10046" unicode="&#x42c;" horiz-adv-x="1144" 
d="M72 1626l82.001 -8.00098l90 63l61 -155l-18 162l106 -15l-8 -622c206 -2 347.333 -22.667 424 -62c219.333 -127.333 308.666 -275.333 267.999 -444c-26.667 -108 -125 -214 -295 -318c-136 -83.333 -282.667 -146.666 -440 -189.999l-33 -10l-12 30l-6 15
c-0.666992 4 -2.16699 8.5 -4.5 13.5s-3.5 7.83301 -3.5 8.5l-9 4l2 -98l-40 43l-15 12l-28 23l-11 -74l-104 35zM375.001 323.999c153.333 52 261.667 98.333 325 139c78.667 51.333 115 111.333 109 180c-10 80.667 -94 121 -252 121c-60.667 0 -118.667 -7 -174 -21z" />
    <glyph glyph-name="afii10047" unicode="&#x42d;" horiz-adv-x="897" 
d="M78 12l12 111.001l148 29l-134 94l50 59v43c92 9.33301 170 38 234 86s106 114.333 126 199c-37.333 1.33301 -93.5 5.33301 -168.5 12s-125.167 10.667 -150.5 12l47 56l-84 129l118 67l-49 86c116.667 -17.333 213.667 -28.666 291 -33.999
c-17.333 101.333 -53.333 182.166 -108 242.499s-112 90.5 -172 90.5h-13v97l-63 39l123 88l-181 98l29 12c12.667 0 29 1 49 3s34.333 3 43 3c112 0 212 -35.333 300 -106s156.333 -168.834 205 -294.501s73 -267.834 73 -426.501
c0 -247.333 -63.833 -441.666 -191.5 -582.999s-305.5 -212 -533.5 -212z" />
    <glyph glyph-name="afii10048" unicode="&#x42e;" horiz-adv-x="1699" 
d="M72 23l3.99805 1566l76 -10l65 59l47 -149l88 162l45 -35l-12 -662l168 7c6.66699 72.667 13.334 127.667 20.001 165c63.333 306 227.333 472.667 492 500c21.333 2.66699 52 2 92 -2l27 -2l18 -119l113 45l26 -141l107 29l14 -19c58.667 -83.333 93 -165.333 103 -246
c59.333 -522.667 2 -868 -172 -1036c-92.667 -88.667 -213.667 -133 -363 -133c-147.333 0 -253.666 35.667 -318.999 107c-87.333 91.333 -140 248.333 -158 471h-160l-18 -580l-35 61l-70 -73l-71 104l-43 -94zM859.998 803c-4 -208 26.668 -359.667 92.001 -455
c23.333 -31.333 67 -47 131 -47s109.333 23.333 136 70c68.667 118.667 100 270 94 454c-6 146.667 -29.333 267.667 -70 363c-31.333 64 -77 96 -137 96c-80.667 0 -139.334 -31.333 -176.001 -94c-40.667 -71.333 -64 -200.333 -70 -387z" />
    <glyph glyph-name="afii10049" unicode="&#x42f;" horiz-adv-x="1329" 
d="M43 158c58.667 45.333 214.999 180.333 468.999 405c-131.333 50 -228.333 117.667 -291 203c-65.333 85.333 -98 187 -98 305c0 90.667 19.667 171.334 59 242.001c38.667 71.333 95.334 130.666 170.001 177.999c71.333 48.667 160 85.667 266 111
c100 24 217 36 351 36c20 0 53.333 -1.33301 100 -4c43.333 -2.66699 75.333 -5.33398 96 -8.00098l115 -22v-52l-119 -36l-43 -13l41 -39l101 -96l-107 -59c0 -1.33301 -0.333008 -14.5 -1 -39.5l-3.5 -126l-5.5 -189.5c-6 -238 -5.33301 -419.333 2 -544
c5.33301 -89.333 12 -222.666 20 -399.999l-39 -35h-26l-96 170l-58 -170h-2l-53 39l-45 13l-6 133l-13 229c-70.667 -30.667 -257.667 -180 -561 -448l-30 45h-99l-8 10l76 170l-125 -47zM417.999 1085c0 -97.333 34.667 -168.333 104 -213
c70 -44.667 167.667 -80.667 293 -108c0 142 0.666992 243.667 2 305c2 102 7.66699 188 17 258c-140.667 -10 -246 -34 -316 -72c-66.667 -36 -100 -92.667 -100 -170z" />
    <glyph glyph-name="afii10065" unicode="&#x430;" horiz-adv-x="1058" 
d="M41 12l264 1264l82 -25l76 66l112 -139l64 125l72 -43l65 38l240 -1294l-45 31l-76 -43l-57 74l-56 -56l-75 277l-381 -31l-74 -279l-21 -8l-65 82l-82 -65zM377 489l293 27l-103 459l-86 -6z" />
    <glyph glyph-name="afii10066" unicode="&#x431;" horiz-adv-x="995" 
d="M49 1266l0.00195312 24l639 47l-24 -47l45 -49l-113 -47l113 -47l-21 -25l-319 -24v-336c58.667 0 106.667 -0.666992 144 -2s79.833 -5.66602 127.5 -12.999s86.167 -18 115.5 -32c142 -80.667 213 -180.334 213 -299.001c0 -52 -18.667 -104.167 -56 -156.5
s-86.333 -99.5 -147 -141.5s-124.834 -79.333 -192.501 -112s-135.834 -60 -204.501 -82v47l-23 -22l-24 47l-68 -25v-22l-45 47l-47 -25v49h-21v1055h-47l23 47l-23 25l92 72zM369.002 164c51.333 20.667 93.833 39.333 127.5 56s66.334 36.667 98.001 60
s55.167 49 70.5 77s23 59.333 23 94c-7.33301 42 -28.833 73.667 -64.5 95s-76.167 32 -121.5 32c-20 0 -40.167 -1.66699 -60.5 -5s-38.333 -9.5 -54 -18.5s-21.834 -19.833 -18.501 -32.5v-358z" />
    <glyph glyph-name="afii10067" unicode="&#x432;" horiz-adv-x="1019" 
d="M53 1143l57.999 76.0049l-25 79c90 24 181.5 39.5 274.5 46.5s179.333 3.5 259 -10.5s140.167 -38 181.5 -72c37.333 -32 65.333 -71.167 84 -117.5s27.167 -95.833 25.5 -148.5s-16.167 -107.834 -43.5 -165.501s-66.333 -111.834 -117 -162.501
c116.667 -52 186 -114.333 208 -187c39.333 -136.667 -23.334 -265 -188.001 -385c-63.333 -44.667 -145.666 -78.834 -246.999 -102.501s-200 -33.834 -296 -30.501v111l-98 -4c0 44.667 -0.666992 194.167 -2 448.5s0 420.166 4 497.499
c-23.333 0 -39.666 0.666992 -48.999 2l39 69zM341.499 856.505c0.333008 -11.667 1.16797 -52.167 2.50098 -121.5c86 8 163.833 35.167 233.5 81.5s104.5 94.5 104.5 144.5c0 41.333 -18.667 74 -56 98s-80.833 35.5 -130.5 34.5s-99.5 -10.5 -149.5 -28.5
c0 -7.33301 -0.833008 -41 -2.5 -101s-2.33398 -95.833 -2.00098 -107.5zM346.001 213.005c20.667 -6 44.5 -7.99609 71.5 -5.99609s54.667 5.66699 83 11s56 14.666 83 27.999s50.833 28.333 71.5 45s36.834 37.167 48.501 61.5s16.167 50.166 13.5 77.499
c-2.66699 32.667 -16.834 58.667 -42.501 78s-57.5 31.166 -95.5 35.499s-76.833 4.83301 -116.5 1.5s-77.167 -10.333 -112.5 -21c-16 -98.667 -17.333 -202.334 -4 -311.001z" />
    <glyph glyph-name="afii10068" unicode="&#x433;" horiz-adv-x="770" 
d="M39 1272v22l690 47l-27 -47l50 -69l-123 -47l123 -23l-23 -22l-346 -50v-372v-211l25 -492l-48 -22l-51 141l-49 -141l-49 47l-49 -25l-23 1053h-51l23 72l-23 22l98 45z" />
    <glyph glyph-name="afii10069" unicode="&#x434;" horiz-adv-x="1275" 
d="M63 -92c-23.333 66 -23.333 142.999 0 230.999l27 13c18.667 8 33.667 12 45 12c25.333 0 43.666 3.33301 54.999 10c8.66699 2 15 6 19 12h49l264 1141l47 -24l72 47l76 -115l47 92h47l266 -1141h119h51v-256c-22.667 -8 -52.5 -15.5 -89.5 -22.5
s-63.833 -14.5 -80.5 -22.5v90h-819c0 -16 -4.5 -38.833 -13.5 -68.5s-13.5 -52.5 -13.5 -68.5c-14 4.66699 -32.667 9.33398 -56 14.001l-56.5 11.5c-14.333 3 -27.166 8.33301 -38.499 16s-17 17.167 -17 28.5zM475 185.999h361l-170 768z" />
    <glyph glyph-name="afii10070" unicode="&#x435;" horiz-adv-x="759" 
d="M57 1171l29 66l-14 27l585 39l19 -80l-127 -88l121 -37l-17 -45l-299 -27l-6 -315l299 10l-35 -107l60 -24l-10 -55l-310 -31l13 -334l309 12l-21 -106l56 -25l-23 -78l-483 -28l8 104l-125 -8l12 958l-24 41l88 76z" />
    <glyph glyph-name="afii10072" unicode="&#x436;" horiz-adv-x="1533" 
d="M49 123c7.33301 7.33301 14.5029 22.166 21.5029 44.499s14.833 37.5 23.5 45.5l183 207.5c83.333 92.333 144 161.833 182 208.5l-365 436c-14.667 18.667 -22 65 -22 139c22 -5.33301 39.167 -4.66602 51.5 2.00098s20.166 15.834 23.499 27.501s8.16602 24 14.499 37
s14.5 21.5 24.5 25.5c41.333 -26.667 80.833 -62.167 118.5 -106.5s69 -87.333 94 -129s55.5 -88.334 91.5 -140.001s71.333 -94.834 106 -129.501v391c-6.66699 19.333 -10.834 36.833 -12.501 52.5s0 30 5 43s15.5 19.167 31.5 18.5s38.667 -8 68 -22
c48 0 85.667 7.33301 113 22c7.33301 0 15.333 2 24 6l37.5 18c16.333 8 33.833 15 52.5 21v-505c0 -6.66699 1 -11 3 -13c4.66699 -6.66699 11.334 -10 20.001 -10l82.5 131l92 146l78.5 120l89 131l28.5 -16.5c13 -7.66699 22.5 -12.834 28.5 -15.501s14.333 -5.5 25 -8.5
s21.667 -4.5 33 -4.5c21.333 -11.333 37.166 -39.333 47.499 -84s9.5 -78 -2.5 -100c-146 -170 -267.667 -323.667 -365 -461l135.5 -142.5c77.667 -82.333 139.167 -142.5 184.5 -180.5c4.66699 -7.33301 14 -20.166 28 -38.499s23.333 -31.833 28 -40.5
s9.5 -21.334 14.5 -38.001s5.16699 -34 0.5 -52s-13.334 -38.333 -26.001 -61c-12 12 -23 19 -33 21c-5.33301 2.66699 -9.33301 4 -12 4c-8 -16 -15.5 -41.667 -22.5 -77s-14.5 -63.666 -22.5 -84.999c-61.333 67.333 -136.833 162 -226.5 284s-151.5 203.333 -185.5 244
l-23 -22v-483c-85.333 90.667 -176.666 98 -273.999 22c0 54 -3.83301 130.833 -11.5 230.5s-11.5 176.5 -11.5 230.5h-45l-90 -113l-80 -105.5l-99.5 -135l-94.5 -129.5c-17.333 50.667 -40 104.334 -68 161.001c0 -7.33301 -4 -13.166 -12 -17.499s-18 -8.83301 -30 -13.5
s-21 -10 -27 -16c0 3.33301 -1.33301 7.66602 -4 12.999c-8 8 -14.333 12 -19 12z" />
    <glyph glyph-name="afii10073" unicode="&#x437;" horiz-adv-x="804" 
d="M51 186c0 12.667 0.663086 19.6807 1.99609 21.0137s8.33301 2 21 2c2.66699 3.33301 5.83398 6.16602 9.50098 8.49902s7 4.16602 10 5.49902s6.83301 2.66602 11.5 3.99902s8.5 2.16602 11.5 2.49902s7.16699 0.666016 12.5 0.999023s9 0.5 11 0.5h11h9h61
c64.667 0 129.667 23.333 195 70c36.667 27.333 63.834 51.666 81.501 72.999s26.5 43.333 26.5 66c0 43.333 -13.167 77.166 -39.5 101.499s-56.166 36.5 -89.499 36.5h21c-21.333 0 -86.333 -22.667 -195 -68c-10 6 -24.333 13 -43 21s-32.334 16.667 -41.001 26l43 21
l-12 12l-13.5 6.5c-7.66699 3.66699 -13.5 5.5 -17.5 5.5l23 117c10.667 10.667 18.5 18.167 23.5 22.5s14.667 10.5 29 18.5s32.166 16 53.499 24c80 40 137.333 79 172 117c22.667 26 39.334 51 50.001 75s16 53 16 87c0 10.667 -0.333008 18.5 -1 23.5
s-2.83398 9.83301 -6.50098 14.5s-9.5 7 -17.5 7c-74 0 -130.667 -22.667 -170 -68c-54 -31.333 -90 -47 -108 -47h-41l20 70l-43 -23l-43 47l43 46h-63l-23 20h23v27c0 4.66699 1.33301 9.16699 4 13.5s7.5 9.33301 14.5 15s14 11 21 16l30.5 21.5l36 26
c53.333 30 104 45 152 45c5.33301 3.33301 10.333 6.16602 15 8.49902s8.83398 4.16602 12.501 5.49902s8 2.66602 13 3.99902s8.83301 2.16602 11.5 2.49902s7 0.666016 13 0.999023s10 0.5 12 0.5h14h15c13.333 0 26.5 -0.833008 39.5 -2.5s24.167 -3.33398 33.5 -5.00098
s20.166 -5 32.499 -10l27.5 -11c6 -2.33301 15.333 -7.33301 28 -15l24 -14.5c3.33301 -2 12.166 -7.83301 26.499 -17.5l24.5 -16.5c42 -66.667 63 -135.667 63 -207c0 -20.667 -0.5 -36.667 -1.5 -48s-4.83301 -27.333 -11.5 -48s-16.667 -42.334 -30 -65.001l-16.5 -27.5
l-15.5 -25.5l-13 -21c-5.33301 -8.66699 -10 -15 -14 -19s-8.5 -8.16699 -13.5 -12.5s-10 -7.33301 -15 -9s-10.5 -2.5 -16.5 -2.5c-2 -2 -4.66699 -4.33301 -8 -7c-10.667 -10 -19 -15.333 -25 -16h-12c12 0 19.5 -0.666992 22.5 -2s10.5 -7.33301 22.5 -18
c5.33301 0 15 -4.5 29 -13.5s25.333 -13.5 34 -13.5c40.667 -44 68.667 -86.167 84 -126.5s23 -90.166 23 -149.499c0 -66.667 -22 -135.667 -66 -207c-4 -4.66699 -12 -13.334 -24 -26.001l-28 -29.5c-6.66699 -7 -15.667 -15.833 -27 -26.5s-22.666 -20.5 -33.999 -29.5
s-23.333 -17.5 -36 -25.5l-26.5 -18.5c-11.667 -8.33301 -21.167 -14.833 -28.5 -19.5s-17.666 -9.83398 -30.999 -15.501s-27.666 -10.5 -42.999 -14.5c-22 -6 -45.667 -13.5 -71 -22.5s-45.166 -15.667 -59.499 -20s-27.5 -6.5 -39.5 -6.5c-10 0 -17.5 0.333008 -22.5 1
s-10 2.83398 -15 6.50098s-7.5 9.5 -7.5 17.5v24l-41 -24c-10.667 0 -18.334 0.166992 -23.001 0.5s-11.167 2.33301 -19.5 6s-16.166 9.5 -23.499 17.5l66 68l-86 -25l20 47z" />
    <glyph glyph-name="afii10074" unicode="&#x438;" horiz-adv-x="1148" 
d="M72 1317l39 6l88 -129l96 127l55 -31l-12 -753h43l434 759l94 -30l74 75l94 -47l-10 -1284l-37 -18l-61 121l-84 -109l-62 -8l-16 661l-53 -6l-430 -651l-43 -8l-107 71l-78 -75l-22 14z" />
    <glyph glyph-name="afii10075" unicode="&#x439;" horiz-adv-x="1124" 
d="M59 1317l2 -1315l23 -14l78 75l106 -71l43 8l430 651l54 6l16 -661l61 8l84 109l62 -121l37 18l10 1284l-94 47l-74 -75l-94 30l-434 -759h-43l12 753l-55 31l-97 -127l-88 129zM414 1425c0 15.333 1.66602 33.167 4.99902 53.5s5 33.5 5 39.5
c0 5.33301 4.66699 10 14 14c2.66699 1.33301 7.66699 2 15 2c50.667 12 138 18 262 18v-104c0 -4 1.83301 -9.5 5.5 -16.5s5.5 -13.5 5.5 -19.5s-3.66699 -11.667 -11 -17c0 -8 -9.66699 -15.5 -29 -22.5s-36.333 -10.5 -51 -10.5c-105.333 0 -175.666 11 -210.999 33
c-6.66699 4.66699 -10 14.667 -10 30z" />
    <glyph glyph-name="afii10076" unicode="&#x43a;" horiz-adv-x="968" 
d="M70 -27l18 1348l45 -12l21 18l69 -119l68 140l39 -2l-4 -676l366 661l43 -31l74 19l-21 -129l113 94l23 -12l-277 -543l262 -659l-20 -31l-123 82v-111l-47 23l-43 -27l-240 590l-127 -174l2 -414l-53 21l-39 -29l-67 80l-58 -113z" />
    <glyph glyph-name="afii10077" unicode="&#x43b;" horiz-adv-x="995" 
d="M35 2l323 1323l35 14l56 -96l83 103l60 -48l59 27l310 -1309l-54 -14l-104 135l-25 -155l-51 4l-217 968l-23 -4l-190 -948l-43 43l-55 -35l-19 117l-131 -137z" />
    <glyph glyph-name="afii10078" unicode="&#x43c;" horiz-adv-x="1374" 
d="M53 -23l185 1356l47 -8l41 23l53 -164l63 143l52 14l186 -688l41 -6l205 682l43 -20l84 59l61 -43l47 6l158 -1345l-62 45l-36 -68l-80 105l-41 -119l-25 2l-82 731l-39 -8l-213 -699l-10 -4l-61 146l-29 -137l-18 2l-187 680l-37 2l-100 -699l-18 8l-41 -18l-60 111
l-102 -101z" />
    <glyph glyph-name="afii10079" unicode="&#x43d;" horiz-adv-x="1019" 
d="M70 23l18 1296l33 -10l31 22l59 -127l72 131l39 -6l-5 -508l371 10l10 508l39 11l47 -121l70 117l47 -37l51 12l-28 -1290l-58 -27l-39 158l-47 -137l-57 34l-29 -12l2 535l-391 -21l-18 -508l-43 10l-43 -49l-54 115l-57 -113z" />
    <glyph glyph-name="afii10080" unicode="&#x43e;" horiz-adv-x="1048" 
d="M70 514c-10.667 174 -3.33203 315.336 22.001 424.003c54.667 251.333 194 388.666 418 411.999c10 1.33301 36 0.666016 78 -2.00098l20 -121l103 41l24 -117l109 27c50.667 -67.333 80 -133 88 -197c51.333 -444.667 2 -736.334 -148 -875.001
c-78.667 -72.667 -184.334 -108 -317.001 -106c-119.333 2 -205.333 29.333 -258 82c-78.667 80.667 -125 224.667 -139 432zM307.002 668.003c-4 -166.667 20.002 -291.666 72.002 -374.999c22 -32 62.333 -49 121 -51c61.333 -2 105.666 21.667 132.999 71
c54.667 99.333 80 223 76 371c-4 119.333 -23.333 217.666 -58 294.999c-30.667 70.667 -80.334 102 -149.001 94c-64 -8 -110.667 -38 -140 -90c-34.667 -58.667 -53 -163.667 -55 -315z" />
    <glyph glyph-name="afii10081" unicode="&#x43f;" horiz-adv-x="1128" 
d="M55 1085l86 56v2l-84 63l49 76l-22 33l143 2l9 8l2 -8l124 6l9 23l35 -5v-16l565 16l2 5l24 -5l50 2l-25 -59l49 -47l-63 -37v-39l63 -18l-4 -45l-61 -2l-15 -1065l-55 32l-47 -61l-49 131l-54 -133l-47 12l4 1078l-237 -7l-103 -4l-16 -1048l-53 32l-47 -61l-51 131
l-52 -133l-47 12l4 1053l-75 -8z" />
    <glyph glyph-name="afii10082" unicode="&#x440;" horiz-adv-x="899" 
d="M57 1225l10.999 48.999c117.333 46 242.5 68.333 375.5 67s230.167 -24.333 291.5 -69c52 -44.667 89.667 -103.167 113 -175.5s31.833 -144.666 25.5 -216.999s-25.166 -135.5 -56.499 -189.5c-90 -148 -247.667 -251 -473 -309c-8 -100 -12 -232.333 -12 -397l-37 -19
l-86 180l-68 -145l-26 23c-4.66699 104.667 -8.5 257 -11.5 457s-2.83301 382 0.5 546l41 66l-45 24l99 92zM333.999 630.999c75.333 7.33301 150.998 42 226.998 104c17.333 17.333 33 37.333 47 60s25.167 47 33.5 73s10.833 53 7.5 81s-13.666 53.667 -30.999 77
c-55.333 79.333 -148.666 87 -279.999 23z" />
    <glyph glyph-name="afii10083" unicode="&#x441;" horiz-adv-x="776" 
d="M48.5 552c0.333008 70.667 3.83105 141.335 10.498 212.002c4 56.667 14 113.167 30 169.5s37.167 110.333 63.5 162s59.5 97.667 99.5 138s84.333 69.5 133 87.5c97.333 38 206.666 29.667 327.999 -25l6 -32l-101 -58l89 -90l-56 -31l31 -55
c-121.333 37.333 -214.333 26.333 -279 -33c-32 -26 -58.667 -75.333 -80 -148s-34.333 -149 -39 -229s2 -156.5 20 -229.5s47 -121.833 87 -146.5c46 -30 134.667 -30.667 266 -2c-0.666992 -2 -1.16699 -5.5 -1.5 -10.5s-1 -10 -2 -15s-2.5 -9.5 -4.5 -13.5l-4 -25l78 -41
l-123 -86l105 -28l-13 -31c-47.333 -19.333 -98.666 -30.833 -153.999 -34.5s-109.166 -0.166992 -161.499 10.5s-100.666 30.667 -144.999 60s-77.833 65.666 -100.5 108.999c-27.333 55.333 -48 120.666 -62 195.999s-20.833 148.333 -20.5 219z" />
    <glyph glyph-name="afii10084" unicode="&#x442;" horiz-adv-x="837" 
d="M29 1065l98 61l-96 68l55 80l-25 35l721 30l-30 -63l57 -49l-125 -70l125 -29l-4 -51l-275 -14l-6 -1071l-49 -21l-96 140l-72 -136l-18 13l-4 1069l-246 -21z" />
    <glyph glyph-name="afii10085" unicode="&#x443;" horiz-adv-x="995" 
d="M27 1311l145.001 -75.998c8.66699 44 15.667 83.667 21 119c61.333 -33.333 95.333 -53.333 102 -60l186 -389c0.666992 -0.666992 2.83398 -4.33398 6.50098 -11.001l19 -34l28.5 -49l155 549c13.333 -24.667 25.666 -46 36.999 -64
c14.667 -20.667 23 -34.334 25 -41.001c28 7.33301 61.333 17 100 29c52 16 89.667 26.333 113 31l-377 -1315c-4 5.33301 -9.83301 12 -17.5 20l-30.5 33l-34 37c-44 -34 -69.333 -51 -76 -51c-1.33301 -1.33301 -33.333 0 -96 4l127 543l-35 -17c-84 90 -127 138 -129 144
c-45.333 80 -126 239.667 -242 479c-0.666992 0.666992 -1.83398 5 -3.50098 13s-5 22.667 -10 44z" />
    <glyph glyph-name="afii10086" unicode="&#x444;" horiz-adv-x="1411" 
d="M51 651c-14 118.667 0.334961 205.336 43.002 260.003c71.333 97.333 225.666 167.666 462.999 210.999v178l45 -4l53 39l66 -172l74 193l36 -4l-4 -199c25.333 1.33301 54 0.666016 86 -2.00098c252 -16 405.667 -130.667 461 -344c4.66699 -19.333 8 -45.333 10 -78
l-114 -35l55 -92l-111 -43l41 -102c-60 -60 -120 -97 -180 -111c-74.667 -22.667 -161.334 -42.334 -260.001 -59.001l-2 -256l-57 32l-49 -61l-50 131l-57 -133l-45 12v252c-158.667 2 -276.667 33.333 -354 94c-84 66 -134 163.667 -150 293zM293.002 655.002
c6 -61.333 35.333 -101.333 88 -120c50.667 -18 108.667 -29 174 -33v381c-103.333 -27.333 -180.333 -62.333 -231 -105c-28.667 -26.667 -39 -67.667 -31 -123zM819.002 532.002c94 24 165.668 51.333 215.001 82c64.667 42 88 95.333 70 160
c-18.667 62.667 -54.334 103 -107.001 121c-38 15.333 -96 22 -174 20z" />
    <glyph glyph-name="afii10087" unicode="&#x445;" horiz-adv-x="868" 
d="M55 1264l41 4l23 67l76 -28l45 39l192 -455l203 467l18 4l49 -98l82 61l19 -10l-225 -613l237 -684l-4 -2l-94 50l-17 -84l-43 18l-45 -25l-190 474l-189 -480l-47 19l-63 -11l-31 54l-33 -4l226 618z" />
    <glyph glyph-name="afii10088" unicode="&#x446;" horiz-adv-x="1294" 
d="M47 586c-4 230 1.33203 477.665 15.999 742.998l25 6c13.333 2 20.333 3.33301 21 4l49 -147l63 164l74 -60l63 7c-2 -39.333 -10 -103 -24 -191c-10.667 -98.667 -17 -175 -19 -229c-10 -213.333 -3.66699 -389.666 19 -528.999c30.667 -62 105 -87 223 -75
c34 4.66699 77.667 13.334 131 26.001l57 17l-12 974l37 -4l57 39l72 -178l80 199l39 -4l-14 -1100c72 -19.333 119.667 -46.666 143 -81.999c70 -112.667 67.333 -253.334 -8 -422.001l-23 6l-18 92l-72 -80l-25 25l-59 -6c8.66699 27.333 16.334 60 23.001 98
c14 94 -8 148 -66 162c-32.667 30.667 -90 41 -172 31v-2c-220.667 -82 -403 -78.667 -547 10c-86.667 51.333 -131 220 -133 506z" />
    <glyph glyph-name="afii10089" unicode="&#x447;" horiz-adv-x="1032" 
d="M27 983c-2 96.667 -0.666016 155.333 4.00098 176c4.66699 28 8 72.333 10 133l2 25l29 4c9.33301 0 18 0.666992 26 2c8 2.66699 13 4 15 4l28 4l25 -76l43 107l78 -59c6 14.667 16 22 30 22c-32.667 -266.667 -35.334 -456.334 -8.00098 -569.001
c20.667 -48.667 74.667 -78 162 -88l64 6c18 -1.33301 65.667 3.33398 143 14.001l6 610l45 -10l78 53l53 -124l53 131l50 -13l-21 -1312l-39 40l-67 -79l-43 104l-37 -82l-68 25l-10 420c-100 -16.667 -184 -25 -252 -25c-112.667 0 -198.667 17.667 -258 53
c-92 55.333 -139 223.333 -141 504z" />
    <glyph glyph-name="afii10090" unicode="&#x448;" horiz-adv-x="1748" 
d="M70 582c-2 243.333 3.33203 488.998 15.999 736.998l27 4c4 0.666992 7.66699 1.33398 11 2.00098l7.5 1.5c1.66699 0.333008 2.83398 0.5 3.50098 0.5l49 -145l66 161l74 -59l65 6l-24 -207c-12.667 -102 -19.667 -173 -21 -213c-10 -220.667 2.33301 -396 37 -526
c18 -68 88.333 -96 211 -84c38 4.66699 82.333 13 133 25c1.33301 0 6 1.33301 14 4c-12.667 68 -20 165.667 -22 293c-2 243.333 3.33301 489 16 737l27 4c4 0.666992 7.66699 1.33398 11 2.00098l7.5 1.5c1.66699 0.333008 2.83398 0.5 3.50098 0.5l47 -145l68 161l74 -59
l63 6l-22 -207c-12.667 -102 -19.667 -173 -21 -213c-10 -220.667 2.33301 -396 37 -526c18 -68 87.667 -96 209 -84c40.667 5.33301 85.667 13.666 135 24.999c-1.33301 -1.33301 -2 -5 -2 -11l2 2v9h2l2 987l49 -4l60 39l71 -177l84 197l41 -4l-20 -1319l-64 80l-55 -64
l-31 48l-75 -15l-13 -10l-20 4l-47 -8c-208 -59.333 -374.667 -51.333 -500 24c-5.33301 2 -12 7 -20 15l-86 -27c-24.667 -7.33301 -39.667 -12 -45 -14h-5c-202.667 -55.333 -366.334 -46.666 -491.001 26.001c-88.667 53.333 -135 226.333 -139 519z" />
    <glyph glyph-name="afii10091" unicode="&#x449;" horiz-adv-x="1726" 
d="M43 596c-2 232 3.33398 472.997 16.001 722.997c20 4 34.333 6.66699 43 8l43 -147l60 163l67 -59l58 6l-5 -48.5c-2 -19 -4.83301 -43 -8.5 -72l-9.5 -75.5c-8.66699 -85.333 -14 -153.666 -16 -204.999c-10 -228 1 -407 33 -537c18 -71.333 80.667 -100 188 -86
c34.667 4.66699 75 13 121 25l14 6c-12.667 80.667 -20 180.334 -22 299.001c-2 181.333 2.66699 422.333 14 723l15 2.5l32 5.5l41 -147l61 163l66 -59l57 6c-1.33301 -26 -8 -91.333 -20 -196c-10 -93.333 -16.333 -161.666 -19 -204.999
c-10 -223.333 1.66699 -402.333 35 -537c16 -71.333 78.333 -100 187 -86c38 5.33301 78 13.666 120 24.999c0 -2.66699 -0.666992 -6 -2 -10l5 2l-3 8h3l4 979l45 -4l51 41l65 -181l76 201l35 -6l-14 -1079c80 -19.333 131.667 -48.666 155 -87.999
c64 -112.667 61.333 -252 -8 -418l-18 4l-17 94l-67 -82l-25 27l-53 -8c6.66699 21.333 14 54.666 22 99.999c14 92.667 -6.33301 146 -61 160c-6 0 -17 2.66699 -33 8l-2 -4l-4 4c-32 8 -62.667 14 -92 18h-2h-8l-21 -6l-43 -10c-184 -58 -334.667 -49 -452 27l-17 16
l-78 -29c-2.66699 -1.33301 -8.83398 -3.83301 -18.501 -7.5s-16.5 -6.5 -20.5 -8.5h-4c-182.667 -57.333 -330.667 -47.666 -444 29.001c-81.333 54 -123 230 -125 528z" />
    <glyph glyph-name="afii10092" unicode="&#x44a;" horiz-adv-x="1222" 
d="M39 1210l52.999 68l-33 68l603 -48l28 -67l-112 -41l84 -49l-48 -27l21 -74h-55l-2 -223c176.667 -2 296 -18.333 358 -49c180.667 -100 254.334 -218 221.001 -354c-23.333 -86 -104.666 -170.667 -243.999 -254c-108.667 -65.333 -229.334 -116 -362.001 -152l-29 -8
l-14 37l-12 31l-2 2l-70 -50l-8 25l-15 -4l-20 39l-25 -51l-34 30l6 211l8 795l-260 35l-10 61l53 17zM560.999 246c134 43.333 225.667 80 275 110c66 42 96 90.667 90 146c-6 62.667 -73 94 -201 94c-55.333 0 -107.333 -6 -156 -18z" />
    <glyph glyph-name="afii10093" unicode="&#x44b;" horiz-adv-x="1347" 
d="M70 1331l84.002 12.001l18 -51l29 -37l30 88l68 -57l57 8l2 -479h15c181.333 0 305.333 -15.667 372 -47c185.333 -100.667 261.333 -218 228 -352c-22.667 -84 -105.334 -167.333 -248.001 -250c-118.667 -66.667 -242.334 -117.334 -371.001 -152.001l-26 -8l-11 25
l-6 10l-41 -14l-14 39l-23 -9l-20 -59l-57 84l-70 -43v45l-6 -2v465zM373.002 575.001c-12 -111.333 -11.334 -223.667 1.99902 -337c128.667 43.333 216.667 82 264 116c64.667 44 94 92.667 88 146c-6 65.333 -71.667 98 -197 98
c-53.333 0 -105.666 -7.66699 -156.999 -23zM1006 39l2 1272l45 -6l69 51l47 -125l29 129l80 -12l-18 -1319l-72 41l-43 -78l-35 102l-35 -80z" />
    <glyph glyph-name="afii10094" unicode="&#x44c;" horiz-adv-x="888" 
d="M72 1311l60.999 -6.00098l70 51l47 -127l-14 131l79 -12l-6 -502c157.333 0 265.333 -16.333 324 -49c166.667 -102 234.334 -221.667 203.001 -359c-18 -85.333 -92.667 -170.666 -224 -255.999c-102.667 -66.667 -214.667 -117 -336 -151l-24 -11l-8 27l-6 10l-7 19
l-6 4l2 -80l-30 35l-13 10l-20 18l-8 -59l-80 27zM300.999 259.999c113.333 40.667 196 78.334 248 113.001c60 43.333 88 91.666 84 144.999c-8 65.333 -72.333 98 -193 98c-41.333 0 -85 -5.33301 -131 -16z" />
    <glyph glyph-name="afii10095" unicode="&#x44d;" horiz-adv-x="784" 
d="M59 4l13.001 93.998l78 39l-64 64l45 49v35c86 8.66699 160.833 34.334 224.5 77.001s104.834 99.334 123.501 170.001c-196 8 -299 12.333 -309 13l63 84l-47 73l58 52l-43 71c158.667 -17.333 254.667 -27.333 288 -30c-16.667 84 -53.334 152 -110.001 204
s-113.334 78 -170.001 78h-10v80l-62 33l62 82l-76 74l-12 10c13.333 0 29.333 0.666992 48 2s32 2 40 2c103.333 0 195.833 -29.5 277.5 -88.5s145.167 -141.167 190.5 -246.5s68 -224.333 68 -357c0 -207.333 -59.167 -369.833 -177.5 -487.5s-284.5 -176.5 -498.5 -176.5
z" />
    <glyph glyph-name="afii10096" unicode="&#x44e;" horiz-adv-x="1480" 
d="M72 16l4 1297l65 -8l56 49l41 -123l75 133l39 -29l-10 -547l143 5c5.33301 48 11.666 93.667 18.999 137c52.667 252 193.334 389.667 422.001 413c21.333 2.66699 48 2 80 -2l22 -2l16 -98l99 39l22 -117l90 23l13 -15c52.667 -74 82.667 -142 90 -204
c51.333 -432.667 1.33301 -718 -150 -856c-78 -74 -181.667 -111 -311 -111c-128 -0 -219.333 29.333 -274 88c-76 74 -122 203.667 -138 389h-137l-16 -479l-29 51l-61 -61l-62 86l-37 -78zM750 662c-2 -170.667 24.333 -295.667 79 -375c17.333 -26 55 -39 113 -39
c55.333 0 94.333 19 117 57c60.667 102.667 88 227.667 82 375c-6 120 -26.667 220.333 -62 301c-27.333 53.333 -66 80 -116 80c-70 0 -120.667 -26 -152 -78c-34.667 -58 -55 -165 -61 -321z" />
    <glyph glyph-name="afii10097" unicode="&#x44f;" horiz-adv-x="1081" 
d="M43 119c40.667 32.667 165.667 144.668 375 336.001c-104.667 41.333 -182 97.333 -232 168c-53.333 70.667 -80 153.667 -80 249c0 75.333 16 142.333 48 201c34 60.667 79.667 110 137 148c58.667 40 129.667 70 213 90c82 20 174.667 30 278 30
c16 0 43.333 -1.33301 82 -4c28 0 53.333 -2 76 -6l92 -18v-43l-94 -31l-35 -8l33 -33l80 -80l-86 -49c0 -26.667 -2.66699 -124.334 -8 -293.001c-5.33301 -174.667 -4.66602 -324 2.00098 -448c8 -146.667 13.333 -256.667 16 -330l-31 -29h-20l-78 142l-45 -142h-2
l-43 33l-37 10l-4 109l-10 190c-58.667 -26.667 -208.334 -150 -449.001 -370l-24 36h-78l-6 9l59 141l-100 -39zM342 885.001c0 -77.333 28 -136 84 -176c52 -34.667 129.667 -64 233 -88c0 91.333 1 175 3 251c2 85.333 6.66699 156.333 14 213
c-118.667 -10 -202.667 -29.667 -252 -59c-54.667 -30.667 -82 -77.667 -82 -141z" />
    <glyph glyph-name="afii10071" unicode="&#x451;" horiz-adv-x="784" 
d="M43 1114l131 70l-131 45l53 47l-28 20l659 50l-27 -50l52 -20l-105 -47l105 -70l-25 -22l-344 -23v-323h344l25 -23l-78 -70l53 -24v-47l-344 -45v-371l344 25l25 -25l-129 -43l129 -47l-52 -49l27 -45l-422 -23l27 47h-131v92h-80v926h-53zM147 1440
c-16.667 38.667 -14 74.832 8 108.499s63.333 50.5 124 50.5c0 -14 1.5 -31 4.5 -51s5 -36.167 6 -48.5s-0.166992 -25.666 -3.5 -39.999s-12 -26.833 -26 -37.5s-33.667 -20.334 -59 -29.001l-27 12c-18 12.667 -27 24.334 -27 35.001zM436 1483
c0 38.667 15.335 67.001 46.002 85.001s77.667 21 141 9c-9.33301 -16 -22.833 -43.5 -40.5 -82.5s-30.834 -66.167 -39.501 -81.5c-9.33301 8.66699 -27.333 20.667 -54 36s-44.334 26.666 -53.001 33.999z" />
    <glyph glyph-name="uni2000" unicode="&#x2000;" horiz-adv-x="1034" 
 />
    <glyph glyph-name="uni2001" unicode="&#x2001;" horiz-adv-x="2068" 
 />
    <glyph glyph-name="uni2002" unicode="&#x2002;" horiz-adv-x="1034" 
 />
    <glyph glyph-name="uni2003" unicode="&#x2003;" horiz-adv-x="2068" 
 />
    <glyph glyph-name="uni2004" unicode="&#x2004;" horiz-adv-x="689" 
 />
    <glyph glyph-name="uni2005" unicode="&#x2005;" horiz-adv-x="517" 
 />
    <glyph glyph-name="uni2006" unicode="&#x2006;" horiz-adv-x="344" 
 />
    <glyph glyph-name="uni2007" unicode="&#x2007;" horiz-adv-x="344" 
 />
    <glyph glyph-name="uni2008" unicode="&#x2008;" horiz-adv-x="258" 
 />
    <glyph glyph-name="uni2009" unicode="&#x2009;" horiz-adv-x="413" 
 />
    <glyph glyph-name="uni200A" unicode="&#x200a;" horiz-adv-x="114" 
 />
    <glyph glyph-name="uni2010" unicode="&#x2010;" horiz-adv-x="620" 
d="M92 756l49 39l-35 79l422 33l-67 -41l82 -116l-115 -74l45 -68l-362 -69l-15 30l97 78z" />
    <glyph glyph-name="uni2011" unicode="&#x2011;" horiz-adv-x="620" 
d="M92 756l49 39l-35 79l422 33l-67 -41l82 -116l-115 -74l45 -68l-362 -69l-15 30l97 78z" />
    <glyph glyph-name="figuredash" unicode="&#x2012;" horiz-adv-x="620" 
d="M92 756l49 39l-35 79l422 33l-67 -41l82 -116l-115 -74l45 -68l-362 -69l-15 30l97 78z" />
    <glyph glyph-name="endash" unicode="&#x2013;" horiz-adv-x="804" 
d="M82 674l106 104l-98 33l25 82l608 -10l16 -68l-86 -70l111 -53l-41 -61l-614 -80l28 88z" />
    <glyph glyph-name="emdash" unicode="&#x2014;" horiz-adv-x="1015" 
d="M70 758l71 69l-20 64l784 27l10 -62l-92 -59l117 -66l-16 -82l-826 -82l-24 45l94 58z" />
    <glyph glyph-name="quoteleft" unicode="&#x2018;" horiz-adv-x="641" 
d="M29 1538l61 61l113 -51l47 64l102 -21l240 -497l-55 -13l-31 -41l-51 56l-37 -35z" />
    <glyph glyph-name="quoteright" unicode="&#x2019;" horiz-adv-x="616" 
d="M55 1085l230 531l65 6l-6 -90l191 37l28 -41l-368 -512l-60 6l19 59z" />
    <glyph glyph-name="quotesinglbase" unicode="&#x201a;" horiz-adv-x="616" 
d="M55 31l230 530l65 6l-6 -90l191 37l28 -41l-368 -512l-60 6l19 60z" />
    <glyph glyph-name="quotedblleft" unicode="&#x201c;" horiz-adv-x="878" 
d="M86 1415l57 47l97 -55l49 57l90 -28l188 -490l-49 -8l-31 -33l-41 53l-34 -28zM479 1581l62 41l37 -59l73 77l51 -65l68 33l33 -478l-64 -6l-4 -73l-73 12z" />
    <glyph glyph-name="quotedblright" unicode="&#x201d;" horiz-adv-x="917" 
d="M61 999l74 517l58 20l14 -80l155 74l33 -25l-198 -532l-50 -12v57zM371 1059l202 500l76 -37l82 65l57 -31h76l-325 -479l-62 45l-74 -84z" />
    <glyph glyph-name="quotedblbase" unicode="&#x201e;" horiz-adv-x="917" 
d="M72 -45l73 516l58 21l14 -80l156 73l33 -24l-199 -533l-49 -12v57zM381 14l203 500l75 -37l82 66l58 -31h75l-325 -479l-62 45l-73 -84z" />
    <glyph glyph-name="bullet" unicode="&#x2022;" horiz-adv-x="528" 
d="M82 621.5c-4 40.333 -0.666992 88.501 10 144.501c4.66699 37.333 19 72 43 104s52.167 56.5 84.5 73.5s67.833 25.333 106.5 25s74 -11.833 106 -34.5c14 -10 23.167 -38.833 27.5 -86.5s0.5 -99.334 -11.5 -155.001s-31.667 -95.5 -59 -119.5
c-42 -32.667 -90.167 -55.5 -144.5 -68.5s-92.833 -8.5 -115.5 13.5c-27.333 28.667 -43 63.167 -47 103.5z" />
    <glyph glyph-name="ellipsis" unicode="&#x2026;" horiz-adv-x="1396" 
d="M114 82.5c-2.66699 31.667 -0.333008 69.166 7 112.499c5.33301 40.667 21.166 76 47.499 106s56 47.5 89 52.5s65.833 -3.5 98.5 -25.5c10 -8 16.5 -30.833 19.5 -68.5s0.5 -78.5 -7.5 -122.5s-21.333 -75.333 -40 -94c-28.667 -26.667 -62.667 -44.667 -102 -54
s-65.666 -5.66602 -78.999 11.001c-19.333 23.333 -30.333 50.833 -33 82.5zM565.501 81.999c-3 31.333 -1.16699 69.001 5.5 113.001c5.33301 40.667 21.333 76 48 106s56.5 47.5 89.5 52.5s65.833 -3.5 98.5 -25.5c10 -8 16.5 -30.833 19.5 -68.5
s0.333008 -78.5 -8 -122.5s-21.833 -75.333 -40.5 -94c-26.667 -26.667 -60.167 -44.5 -100.5 -53.5s-66.833 -5.5 -79.5 10.5c-18.667 23.333 -29.5 50.666 -32.5 81.999zM991.501 82c-3 31.333 -1.16699 69.001 5.5 113.001c5.33301 40.667 21.333 76 48 106
s56.5 47.5 89.5 52.5s65.833 -3.5 98.5 -25.5c10.667 -7.33301 17.5 -30.333 20.5 -69s0.166992 -79.667 -8.5 -123s-22.334 -74.333 -41.001 -93c-26 -26 -59.167 -43.667 -99.5 -53s-67.166 -6 -80.499 10c-18.667 23.333 -29.5 50.666 -32.5 81.999z" />
    <glyph glyph-name="uni202F" unicode="&#x202f;" horiz-adv-x="413" 
 />
    <glyph glyph-name="guilsinglleft" unicode="&#x2039;" horiz-adv-x="770" 
d="M53 743l355 490l53 14l78 -35l96 35l45 -24l14 2l-344 -449l387 -473l-10 -6l-100 27l-90 -58l-54 4z" />
    <glyph glyph-name="guilsinglright" unicode="&#x203a;" horiz-adv-x="763" 
d="M59 1245l9 4l100 -24l92 55l51 -4l430 -473l-354 -490l-53 -14l-78 37l-94 -35l-47 23l-15 -2l344 448z" />
    <glyph glyph-name="uni205F" unicode="&#x205f;" horiz-adv-x="517" 
 />
    <glyph glyph-name="Euro" unicode="&#x20ac;" horiz-adv-x="1069" 
d="M61 449l120.998 55l-76 100l107 4c-2 87.333 -0.666992 161.666 4 222.999l-96 -8l35 58l-88 57l47 51l-9 94l146 4c19.333 76 44.333 145.5 75 208.5s69.667 119.5 117 169.5s100 86.667 158 110c116 46 243.667 36.333 383 -29l8 -39l-116 -69l100 -107l-64 -35l35 -67
c-37.333 12 -73.833 19.833 -109.5 23.5s-73 0.833984 -112 -8.49902s-72.833 -26.666 -101.5 -51.999c-18 -14 -40 -46.667 -66 -98l246 6l4 -35l-88 -84l86 -76l-16 -31l-295 -22c-12 -94.667 -15.667 -171.667 -11 -231l328 14l39 -60l-111 -55l37 -102l-246 -23
c24.667 -50.667 50.667 -84 78 -100c23.333 -15.333 55.333 -24.166 96 -26.499s77.834 -0.833008 111.501 4.5s67.834 12.666 102.501 21.999c-4.66699 -12.667 -8.33398 -29 -11.001 -49l-4 -29l90 -47l-143 -102l125 -33l-16 -37
c-55.333 -22 -116.333 -35.833 -183 -41.5s-131.667 -3 -195 8s-121.666 33.167 -174.999 66.5s-92.333 75.666 -117 126.999c-26.667 54 -46.667 123.667 -60 209l-145 -13l14 56z" />
    <glyph glyph-name="trademark" unicode="&#x2122;" horiz-adv-x="1230" 
d="M94 1462l41 19l-20 49l356 22l2 -8l-45 -31l39 -57l-25 -12l11 -27l-117 -14v-518l-39 10l-25 -43l-51 16l-10 -32h-2l-6 567l-107 -10l27 16zM575 842l35 698h2l21 -41l80 47l16 -39l41 19l88 -396l105 396l22 -6l41 32l57 -57l21 51h2l41 -667l-17 6l-24 -39l-45 43
l-33 -53l-2 2l-55 430l-101 -420l-14 2l-25 -4l-108 448l-39 -438l-18 10l-13 -18l-30 57z" />
    <glyph glyph-name="uniE000" unicode="&#xe000;" horiz-adv-x="1320" 
d="M0 0v1321h1321v-1321h-1321z" />
    <glyph glyph-name="uniFB01" unicode="&#xfb01;" horiz-adv-x="1277" 
d="M61 1124l41 58l-18 61l653 31l-37 -127l48 -29l-21 -51l-338 -23l-6 -301l303 7l-27 -107l62 -25l-12 -57l-328 -39l12 -522l-41 -16l-71 147l-64 -135l-24 33l-56 -17l-12 994l-43 12l90 55zM901 -4v1274l45 16l68 -160l86 154l61 -33l58 21l-35 -1295l-25 -8l-86 123
l-59 -108l-53 20z" />
    <glyph glyph-name="uniFB02" unicode="&#xfb02;" horiz-adv-x="1566" 
d="M61 1124l41 58l-18 61l653 31l-37 -127l48 -29l-21 -51l-338 -23l-6 -301l303 7l-27 -107l62 -25l-12 -57l-328 -39l12 -522l-41 -16l-71 147l-64 -135l-24 33l-56 -17l-12 994l-43 12l90 55zM879 1227l39 -6l57 41l59 -101l107 142l33 -11l-35 -1102h338l-84 -71
l114 -45l-57 -70l20 -29l-460 -34l-19 112l-108 -16z" />
    <glyph glyph-name="glyph2" horiz-adv-x="682" 
 />
    </font>
</defs>
</svg>
